<svg id="Layer_1" data-name="Layer 1" xmlns="http://www.w3.org/2000/svg" viewBox="0 0 993.73 1220.11"><defs><style>.cls-1{fill:none;stroke:#fff;stroke-miterlimit:10;stroke-width:50px;}.cls-2{fill:#d89621;}.cls-3{opacity:0.14;}.cls-4{fill:#c3874c;}</style></defs><title>Brown with Black_1</title><rect class="cls-1" x="-7793.12" y="-12444.93" width="16383" height="16383"/><path d="M831.66,601v485.35c0,37-12.92,67.82-39.49,94.25-26.73,26.42-58,39.49-95.43,39.49H135.06c-37.73,0-68.7-13.07-95.57-39.49C12.92,1154.19,0,1123.36,0,1086.37V297.43c0-37.14,12.92-68.12,39.64-94.4s57.69-39.34,95.42-39.34H370.39V291.86H129.77V1092H702V601Z"/><polygon class="cls-2" points="993.73 0 993.73 495.03 702.02 495.03 702.02 291.86 476.39 291.86 476.39 0 993.73 0"/><g class="cls-3"><polygon class="cls-4" points="702 291.79 702 495.08 701.51 495.08 701.51 291.98 476.41 291.98 476.41 291.79 702 291.79"/></g></svg>