<svg id="Layer_1" data-name="Layer 1" xmlns="http://www.w3.org/2000/svg" viewBox="0 0 2500 810.31"><defs><style>.cls-1{fill:none;stroke:#fff;stroke-miterlimit:10;stroke-width:50px;}.cls-2{fill:#fff;}.cls-3{opacity:0.14;}</style></defs><title>Full White</title><rect class="cls-1" x="-2581.87" y="-2867.61" width="16383" height="16383"/><path class="cls-2" d="M40.53,91.08v105H217.8a40.56,40.56,0,0,1,29.82,12.31C256,216.71,260,226.32,260,237.92V339.48c0,11.54-4,21.15-12.37,29.43a40.45,40.45,0,0,1-29.82,12.31H0v-40H219.46v-105H42.25a40.53,40.53,0,0,1-29.88-12.32C4,215.55,0,205.94,0,194.35V92.85a40.69,40.69,0,0,1,3-16,42,42,0,0,1,9.33-13.47A40.52,40.52,0,0,1,42.25,51.05H260v40Z"/><path class="cls-2" d="M390.31,163.59v177.6H569.24V268.68h40.53v70.8a39.55,39.55,0,0,1-12.37,29.43,40.56,40.56,0,0,1-29.87,12.31H392a40.45,40.45,0,0,1-29.82-12.31,39.55,39.55,0,0,1-12.37-29.43V51.05h40.53v72.56H609.77v40Z"/><path class="cls-2" d="M959.5,51.05V381.22H741.75a40.46,40.46,0,0,1-29.82-12.31,39.59,39.59,0,0,1-12.37-29.43V51.05H740.1V341.19H919V51.05Z"/><path class="cls-2" d="M1268.76,51.05v72.58h-177.2a40.61,40.61,0,0,0-29.89,12.3c-8.31,8.22-12.39,17.82-12.39,29.43V339.49a39.66,39.66,0,0,0,12.39,29.42,40.63,40.63,0,0,0,29.89,12.31h175.55a40.41,40.41,0,0,0,29.79-12.31,39.48,39.48,0,0,0,12.4-29.42V51.05Zm0,290.14h-178.9V163.57h178.9Z"/><rect class="cls-2" x="1399.08" y="51.05" width="40.53" height="40.04"/><path class="cls-2" d="M1427.24,135.92a39.57,39.57,0,0,1,12.37,29.44V381.22h-40.53V123.5l3.47.33A40.72,40.72,0,0,1,1427.24,135.92Z"/><path class="cls-2" d="M401.36,520.17v105H578.57a40.63,40.63,0,0,1,29.88,12.31A39.77,39.77,0,0,1,620.82,667V768.56A39.53,39.53,0,0,1,608.45,798a40.55,40.55,0,0,1-29.88,12.32H360.83v-40H580.28v-105H403.07a40.47,40.47,0,0,1-29.87-12.32,39.55,39.55,0,0,1-12.37-29.43V521.93c0-11.6,4-21.2,12.37-29.48a40.47,40.47,0,0,1,29.87-12.32H620.82v40Z"/><path class="cls-2" d="M751.14,592.67v177.6H930.07V697.76H970.6v70.8A39.76,39.76,0,0,1,958.23,798a40.61,40.61,0,0,1-29.88,12.32H752.8A40.49,40.49,0,0,1,723,798a39.53,39.53,0,0,1-12.37-29.43V480.13h40.53v72.56H970.6v40Z"/><path class="cls-2" d="M1320.33,480.13V810.31H1102.58A40.51,40.51,0,0,1,1072.76,798a39.53,39.53,0,0,1-12.37-29.43V480.13h40.53V770.27h178.87V480.13Z"/><path class="cls-2" d="M1670.11,521.93V810.31h-40.54V520.17H1450.71V810.31h-40.59V480.13h217.8a40.46,40.46,0,0,1,29.82,12.32C1666.08,500.73,1670.11,510.33,1670.11,521.93Z"/><path class="cls-2" d="M2019.89,521.93V810.31h-40.53V520.17H1800.43V810.31H1759.9V480.13h217.8a40.53,40.53,0,0,1,29.82,12.32C2015.86,500.73,2019.89,510.33,2019.89,521.93Z"/><rect class="cls-2" x="2109.68" y="480.13" width="40.54" height="40.04"/><path class="cls-2" d="M2137.85,565a39.55,39.55,0,0,1,12.37,29.43V810.31h-40.54V552.58l3.43.39A40.4,40.4,0,0,1,2137.85,565Z"/><path class="cls-2" d="M2280.54,592.67v177.6h178.93V697.76H2500v70.8A39.53,39.53,0,0,1,2487.63,798a40.49,40.49,0,0,1-29.82,12.32H2282.2A40.49,40.49,0,0,1,2252.38,798,39.53,39.53,0,0,1,2240,768.56V480.13h40.53v72.56H2500v40Z"/><path class="cls-2" d="M1789.49,187.94V339.72a39.76,39.76,0,0,1-12.35,29.47,40.67,40.67,0,0,1-29.84,12.35H1571.66c-11.8,0-21.49-4.09-29.89-12.35a39.76,39.76,0,0,1-12.35-29.47V93a39.56,39.56,0,0,1,12.4-29.52,40.47,40.47,0,0,1,29.84-12.3h73.59V91.27H1570V341.46H1749V187.94Z"/><polygon class="cls-2" points="1840.17 0 1840.17 154.8 1748.95 154.8 1748.95 91.27 1678.39 91.27 1678.39 0 1840.17 0"/><g class="cls-3"><polygon class="cls-2" points="1748.95 91.24 1748.95 154.81 1748.79 154.81 1748.79 91.31 1678.4 91.31 1678.4 91.24 1748.95 91.24"/></g></svg>