<?xml version="1.0" encoding="UTF-8"?>
<svg id="Layer_2" data-name="Layer 2" xmlns="http://www.w3.org/2000/svg" viewBox="0 0 650 207.5">
  <defs>
    <style>
      .cls-1 {
        fill: #fff;
      }

      .cls-2 {
        font-family: MyriadPro-Regular, 'Myriad Pro';
        font-size: 12px;
      }
    </style>
  </defs>
  <g id="Layer_1-2" data-name="Layer 1">
    <g>
      <path class="cls-1" d="M10.54,23.3v26.9H56.63c3.04,0,5.57,1.03,7.75,3.15,2.17,2.12,3.22,4.58,3.22,7.55v26.01c0,2.96-1.05,5.42-3.22,7.54-2.17,2.12-4.71,3.15-7.75,3.15H0v-10.25H57.06v-26.9H10.98c-3.06,0-5.6-1.03-7.77-3.15-2.17-2.12-3.22-4.58-3.22-7.55V23.75c0-1.51,.26-2.84,.79-4.1,.53-1.24,1.34-2.38,2.43-3.45,2.17-2.12,4.71-3.15,7.77-3.15h56.61v10.25H10.54Z"/>
      <path class="cls-1" d="M101.48,41.87v45.49h46.52v-18.57h10.54v18.13c0,2.96-1.05,5.43-3.22,7.54-2.18,2.12-4.71,3.15-7.77,3.15h-45.64c-3.04,0-5.59-1.03-7.75-3.15-2.17-2.11-3.22-4.58-3.22-7.54V13.04h10.54V31.63h57.06v10.24h-57.06Z"/>
      <path class="cls-1" d="M249.47,13.04V97.61h-56.61c-3.04,0-5.59-1.03-7.75-3.15-2.17-2.11-3.22-4.58-3.22-7.54V13.04h10.54V87.35h46.51V13.04h10.54Z"/>
      <path class="cls-1" d="M329.88,13.04V31.63h-46.07c-3.04,0-5.59,1.02-7.77,3.15-2.16,2.1-3.22,4.56-3.22,7.54v44.6c0,2.95,1.06,5.43,3.22,7.54,2.18,2.12,4.7,3.15,7.77,3.15h45.64c3.04,0,5.59-1.03,7.75-3.15,2.17-2.1,3.22-4.59,3.22-7.54V13.04h-10.54Zm0,74.31h-46.51V41.86h46.51v45.49Z"/>
      <rect class="cls-1" x="363.76" y="13.04" width="10.54" height="10.25"/>
      <path class="cls-1" d="M371.08,34.78c2.17,2.11,3.22,4.58,3.22,7.54v55.29h-10.54V31.6l.9,.09c2.43,.27,4.59,1.3,6.42,3.1Z"/>
      <path class="cls-1" d="M104.35,133.19v26.9h46.08c3.06,0,5.59,1.03,7.77,3.15,2.17,2.12,3.22,4.6,3.22,7.55v26.01c0,2.96-1.05,5.43-3.22,7.54-2.17,2.12-4.71,3.15-7.77,3.15h-56.61v-10.25h57.06v-26.9h-46.07c-3.06,0-5.6-1.03-7.77-3.15-2.17-2.11-3.22-4.58-3.22-7.54v-26.01c0-2.97,1.05-5.43,3.22-7.55,2.17-2.12,4.71-3.15,7.77-3.15h56.61v10.25h-57.06Z"/>
      <path class="cls-1" d="M195.3,151.76v45.49h46.52v-18.57h10.54v18.13c0,2.96-1.06,5.43-3.22,7.54-2.18,2.12-4.71,3.15-7.77,3.15h-45.64c-3.04,0-5.59-1.03-7.75-3.15-2.17-2.11-3.22-4.58-3.22-7.54V122.94h10.54v18.58h57.06v10.24h-57.06Z"/>
      <path class="cls-1" d="M343.28,122.94v84.56h-56.61c-3.04,0-5.59-1.03-7.75-3.15-2.17-2.11-3.22-4.58-3.22-7.54V122.94h10.54v74.31h46.51V122.94h10.54Z"/>
      <path class="cls-1" d="M434.23,133.65v73.86h-10.54v-74.31h-46.5v74.31h-10.55V122.94h56.63c3.04,0,5.58,1.03,7.75,3.15,2.17,2.12,3.22,4.58,3.22,7.55Z"/>
      <path class="cls-1" d="M525.17,133.65v73.86h-10.54v-74.31h-46.52v74.31h-10.54V122.94h56.63c3.04,0,5.57,1.03,7.75,3.15,2.17,2.12,3.22,4.58,3.22,7.55Z"/>
      <rect class="cls-1" x="548.52" y="122.94" width="10.54" height="10.25"/>
      <text class="cls-2" transform="translate(548.52 164.42)"><tspan x="0" y="0">L</tspan><tspan x="0" y="14.4">or</tspan><tspan x="0" y="28.8">e</tspan></text>
      <path class="cls-1" d="M592.94,151.76v45.49h46.52v-18.57h10.54v18.13c0,2.96-1.05,5.43-3.22,7.54-2.17,2.12-4.71,3.15-7.75,3.15h-45.66c-3.04,0-5.59-1.03-7.75-3.15-2.17-2.11-3.22-4.58-3.22-7.54V122.94h10.54v18.58h57.06v10.24h-57.06Z"/>
      <path class="cls-1" d="M465.27,48.11v38.87c0,2.96-1.05,5.43-3.21,7.55-2.17,2.12-4.71,3.16-7.76,3.16h-45.67c-3.07,0-5.59-1.05-7.77-3.16-2.16-2.12-3.21-4.59-3.21-7.55V23.79c0-2.98,1.05-5.46,3.22-7.56,2.17-2.12,4.69-3.15,7.76-3.15h19.13v10.27h-19.56V87.42h46.53V48.11h10.54Z"/>
      <polygon class="cls-1" points="478.46 0 478.46 39.57 454.72 39.57 454.72 23.39 436.43 23.39 436.43 0 478.46 0"/>
    </g>
  </g>
</svg>