<?xml version="1.0" encoding="UTF-8"?>
<svg id="Layer_2" data-name="Layer 2" xmlns="http://www.w3.org/2000/svg" viewBox="0 0 36.95 53.13">
  <defs>
    <style>
      .cls-1 {
        fill: #bc8028;
      }
    </style>
  </defs>
  <g id="Layer_1-2" data-name="Layer 1">
    <path d="M36.78,26.16v21.14c0,1.61-.57,2.95-1.75,4.11-1.18,1.15-2.56,1.72-4.22,1.72H5.97c-1.67,0-3.04-.57-4.23-1.72-1.18-1.15-1.75-2.49-1.75-4.11V12.94c0-1.62,.57-2.97,1.75-4.11,1.18-1.15,2.55-1.71,4.22-1.71h10.41v5.58H5.74V47.55H31.04V26.16h5.73Z"/>
    <polygon class="cls-1" points="36.95 0 36.95 21.52 24.04 21.52 24.04 12.72 14.09 12.72 14.09 0 36.95 0"/>
  </g>
</svg>