<svg xmlns="http://www.w3.org/2000/svg" xmlns:xlink="http://www.w3.org/1999/xlink" viewBox="0 0 3685.75 2266.95"><defs><style>.cls-1{fill:#f9a826;}.cls-1,.cls-18,.cls-2,.cls-5{opacity:0.1;}.cls-1,.cls-2,.cls-24,.cls-5,.cls-9{isolation:isolate;}.cls-2{fill:#6c63ff;}.cls-3{fill:#eaecf0;}.cls-4{fill:#3a3768;}.cls-6{fill:#efc6cd;}.cls-7{fill:#d48a9b;}.cls-8{fill:#dfe6f5;}.cls-9{opacity:0.15;}.cls-10{fill:#4c4c56;}.cls-11{fill:#d1d9ec;}.cls-12{fill:#be8028;}.cls-13{fill:url(#linear-gradient);}.cls-14{fill:#d38884;}.cls-15{fill:#a36468;}.cls-16{fill:#67647e;}.cls-17{fill:#444053;}.cls-19{fill:#d3dae1;}.cls-20{fill:#fff;}.cls-21{fill:#d5e1f4;}.cls-22{fill:url(#linear-gradient-2);}.cls-23{fill:#efb7b9;}.cls-24{opacity:0.05;}.cls-25{opacity:0.7;}.cls-26{fill:#ea6c00;}.cls-27{fill:#fdad00;}.cls-28{fill:#fdd231;}.cls-29{fill:#feeeb7;}</style><linearGradient id="linear-gradient" x1="810.18" y1="1561.14" x2="1632.56" y2="1561.14" gradientTransform="matrix(1, 0, 0, -1, -17.96, 3069.91)" gradientUnits="userSpaceOnUse"><stop offset="0" stop-color="gray" stop-opacity="0.25"/><stop offset="0.54" stop-color="gray" stop-opacity="0.12"/><stop offset="1" stop-color="gray" stop-opacity="0.1"/></linearGradient><linearGradient id="linear-gradient-2" x1="362.68" y1="1079.11" x2="362.68" y2="2006.17" gradientTransform="matrix(1, 0, 0, -1, 1979.37, 3069.91)" xlink:href="#linear-gradient"/></defs><title>Asset 8</title><g id="Layer_2" data-name="Layer 2"><g id="Layer_1-2" data-name="Layer 1"><path class="cls-1" d="M3685.75,1456.07a755.42,755.42,0,0,1-22.13,182.25q-7.44,30.14-17.3,59a697.58,697.58,0,0,1-27.91,69.85q-8,17.27-16.87,33.86a455.51,455.51,0,0,1-38.08,183,471.88,471.88,0,0,1-229,235.94A481.76,481.76,0,0,1,3130,2267H699.73a612.37,612.37,0,0,1-308-82.33l-1.44-.81q-20-11.71-39-24.79a611.23,611.23,0,0,1-80-66,595.64,595.64,0,0,1-88-109,581.65,581.65,0,0,1-89.46-310.52C34.58,1569.5,0,1444.87,0,1310.93c0-169,55-323.12,145.23-439.81a617.42,617.42,0,0,1,61.68-68.62,573.27,573.27,0,0,1,70.53-57.74A548.06,548.06,0,0,1,340,707.21c9.05-4.6,18.12-9,27.35-13q12.17-5.38,24.6-10.1,14.92-5.67,30.23-10.42t30.19-8.33q21.92-5.36,44.56-8.7c12.52-1.84,25-3.13,37.56-4.1,10-.75,20-1.15,30.1-1.28h5.48c11.14,0,22.21.44,33.2,1.19,1.15-2.32,2.41-4.66,3.56-7,4.38-8.35,8.92-16.68,13.49-24.81a.81.81,0,0,1,0-.22q1.17-2.16,2.38-4.23c3.69-6.66,7.54-13.26,11.48-19.8,1.82-3.13,3.6-6.07,5.45-9a23.85,23.85,0,0,1,1.28-2.12q2.82-4.7,5.73-9.39,14.49-23.16,30.13-45.5l2.66-3.82c1.63-2.31,3.13-4.57,4.95-6.88,4.31-6,8.76-12.11,13.23-18.06,3.13-4.25,6.26-8.48,9.64-12.52q12.21-15.65,25-31.29T759,427c1.25-1.41,2.5-2.79,3.81-4.17l13.37-14.58h0c.65-.69,1.22-1.31,1.84-1.94h0c1.6-1.72,3.13-3.44,4.85-5.1,7.17-7.6,14.52-15.05,21.91-22.47A1192.08,1192.08,0,0,1,924.6,274.31c1.66-1.31,3.35-2.57,5-3.82,7.95-6,16-11.89,24.1-17.71a1268.54,1268.54,0,0,1,139-86.68c3.32-1.91,6.7-3.69,10.11-5.44a1324.51,1324.51,0,0,1,133-61.21c24.75-9.8,50.07-19,75.54-27.41,17-5.57,34-10.86,51.22-15.84q40.44-11.64,81.43-20.87A1450.22,1450.22,0,0,1,1688.76,2q37.54-1.9,75.94-2a1455.44,1455.44,0,0,1,366.13,46.31,13.19,13.19,0,0,0,11.36,5.92h10.51c4.57,1.25,9.11,2.5,13.67,3.82q38.28,11,75.45,24.06l6.26,2.25a1347.38,1347.38,0,0,1,178.08,78.23,1284.14,1284.14,0,0,1,149.11,92.13q11,7.89,21.66,15.9,12.95-8.3,26.34-15.9a518.4,518.4,0,0,1,109.15-46.53,497.87,497.87,0,0,1,244.83-9.58c104.05,22.06,198.24,76.82,274.31,154.71a639.79,639.79,0,0,1,82.27,104.46c1.72,2.69,3.44,5.41,5.1,8.16a689.16,689.16,0,0,1,52.39,104.43c.53,1.34,1.06,2.59,1.53,3.91a723.16,723.16,0,0,1,32.23,104.36c.38,1.81.81,3.6,1.19,5.41a752.25,752.25,0,0,1,15.4,104.42,20.19,20.19,0,0,0,.25,3.85q2,27.25,2,55.08,0,24.87-1.6,49.38c0,1.78-.25,3.63-.4,5.47-.29,4.73-.69,9.39-1.1,14.15a594,594,0,0,1,66.9,63.11q13.68,14.94,26.48,31a658.69,658.69,0,0,1,68.21,104.43C3655.33,1212.8,3685.75,1330.3,3685.75,1456.07Z"/><path class="cls-2" d="M3373.92,1331.08h-216V1056.35H3254q-3.57-4.27-7.2-8.5H3158V960.27q-27-22.75-55.62-43.79V1048H2604.49v-289h222q-9.37-4.27-18.76-8.5H2604.49V671.88q-27.81-9.18-55.62-17.7v96.08H1838.24l-1.69-1.62,205.57-195.13q-34-3.74-68.11-6.8L1831.64,681.82V536.7q-27.81-1.47-55.62-2.53v157L1607.19,530.91q-37.44,0-74.86.43l229,217.3-1.69,1.62H1078.42V557.94q-27.81,3.51-55.62,7.93V750.43H585c-2.37,2.78-4.68,5.62-6.9,8.5h444.64v288.92H562.08c1.57,2.86,3.21,5.71,4.91,8.5h455.76v274.73H798.57q-4.55,4.41-9.35,8.5h233.53v281.14q27.81,4,55.62,8.29V1339.58H1776v352.25q27.81,0,55.62.74v-353h717.23v431.24l2.3.25q26.7,3,53.37,5.59V1339.58h497.78v426.15c4.25-.78,8.49-1.61,12.64-2.52s7.89-1.6,11.83-2.53q15.57-3.32,31.12-7V1339.58h217.73Q3374.77,1335.34,3373.92,1331.08Zm-1597.95,0H1078.42V1056.35H1776Zm0-283.15H1078.42v-289h687.67l9.81,7.73Zm772.85,283.15H1831.64V1056.35h717.18Zm0-283.15H1831.64v-289h717.18Zm553.45,283.15H2604.49V1056.35h497.78Z"/><path class="cls-3" d="M1181.13,1950.57a4.19,4.19,0,0,1-.33,1h0a2.75,2.75,0,0,1,.36-1Z"/><path class="cls-3" d="M1197,1936.05h-18.74l-14.07.18-1.55-16-1.42-15.16-6.61-69.15-.21-2.13v-.94l-1.85-19.46,28.32-10.61,3.45,28.23.24,2.09v.24l7,57.3,2.15,17.59,1.24,10.22,1.07,8.76v.3Z"/><polygon class="cls-4" points="1298.62 1950.54 1298.95 1951.54 1296.71 1951.54 1296.37 1950.54 1298.62 1950.54"/><path class="cls-4" d="M1737.76,1551.09v1.3s-26.44,72.25-35,133.92q-.89,6.06-1.46,12.13c-.42,4.27-.75,8.46-.94,12.52-.24,4.76-.3,9.37-.18,13.77v3c0,2,.21,4.12.33,6.27s.31,4.31.49,6.55.36,4.22.58,6.37c6.51,66.7,31.29,164.36,31.29,164.36s.81,2.64,1.88,7.12h-6.86c-42.66.7-85.41,1.91-128.19,3.37l-7.7.24h-2.54c-91,3.22-181.92,7.49-272.63,10.55l-22.17.73h-3.21q-47.3,1.52-94.51,2.34h-8.33a51.12,51.12,0,0,1,7.33-8.28,53.68,53.68,0,0,1,7.43-5.76,167.09,167.09,0,0,1,46.54-20,37.14,37.14,0,0,1,10.64-1.31l21.23.43H1285l32.56.64,279.3,5.54h.7l2-.39a52.6,52.6,0,0,0,9.43-3.34,33.11,33.11,0,0,0,19.89-25.71c0-.94.24-1.94.3-3a32.6,32.6,0,0,0,0-4.42,15.2,15.2,0,0,0-.24-3.25c-.24-1.12-.3-2.24-.51-3.39-6.73-37.63-18.2-153.45-18.2-153.45v.36s0-4.94.28-13.24v-3.82c0-1.85.21-3.86.33-6.07,0-1.3.18-2.64.27-4,.16-2,.34-4.12.52-6.31a1.27,1.27,0,0,1,0-.39c.12-1.38.24-2.77.36-4.19.19-2.12,0-.3,0-.45,4.52-44.72,18.74-115.52,63.67-141.74,21.08-12.34,35-14.83,44.21-12.4,13.4,3.51,16.77,17.46,17.49,26.53V1546A44,44,0,0,1,1737.76,1551.09Z"/><path class="cls-5" d="M1181.13,1950.57a4.19,4.19,0,0,1-.33,1h0a2.75,2.75,0,0,1,.36-1Z"/><polygon class="cls-5" points="1298.62 1950.54 1298.95 1951.54 1296.71 1951.54 1296.37 1950.54 1298.62 1950.54"/><path class="cls-5" d="M1737.76,1551.09v.94s-21.8,59.58-32.2,116.7h0q-1.1,6.06-2,11.73c-.31,1.94-.58,3.88-.85,5.82q-.89,6.06-1.46,12.13c-.42,4.27-.75,8.46-.94,12.52-.24,4.76-.3,9.37-.18,13.77v3c0,2,.21,4.12.33,6.27s.31,4.34.49,6.55.36,4.22.58,6.37.42,4.21.66,6.34c1,8.58,2.19,17.58,3.58,26.74,9.49,61.76,27,131,27,131s.87,2.79,1.94,7.45h-6.86c-42.66.7-85.41,1.91-128.19,3.37l-7.7.24h-2.54c-91,3.22-181.92,7.49-272.63,10.55l-22.17.73h-3.21q-47.3,1.51-94.5,2.34h-8.61a51.93,51.93,0,0,1,7.57-8.58,50.58,50.58,0,0,1,7.46-5.83,169.13,169.13,0,0,1,46.54-20,38.26,38.26,0,0,1,10.65-1.27l21.22.42h3.27l32.66.64,279.51,5.52h.48a7.66,7.66,0,0,0,2.19-.46,49.32,49.32,0,0,0,9.49-3.42,33.09,33.09,0,0,0,19.61-25.2c0-.94.25-1.94.31-3a36.21,36.21,0,0,0,0-4.42,14.61,14.61,0,0,0-.25-3.25c-.24-1.12-.3-2.45-.51-3.73-6.73-37.62-18.19-153.44-18.19-153.44s0-4.95.27-13.25v-3.82c0-1.85.21-3.85.33-6.07,0-1.3.18-2.63.28-4,.15-2,.33-4.12.51-6.31a2.54,2.54,0,0,1,0-.39c.12-1.37.24-2.77.36-4.18.19-2.13,0-.31,0-.46.55-5.58,1.28-11.58,2.19-17.86,6.3-43.9,22.07-101.23,61.36-124.3,20.53-12.13,34.26-14.68,43.48-12.59,14.19,3.25,17.56,17.86,18.19,27.08v1.76A43.28,43.28,0,0,1,1737.76,1551.09Z"/><path class="cls-4" d="M1181.13,1950.57a4.19,4.19,0,0,1-.33,1h0a2.75,2.75,0,0,1,.36-1Z"/><polygon class="cls-4" points="1298.62 1950.54 1298.95 1951.54 1296.71 1951.54 1296.37 1950.54 1298.62 1950.54"/><path class="cls-4" d="M1730,1548.51s-39.57,108.12-37.66,172.82,32.8,186.28,32.8,186.28,1.34,4.28,2.76,11.1c-42.66.7-85.41,1.91-128.19,3.36l-7.7.25h-2.54c-91,3.21-181.92,7.48-272.63,10.55l-22.17.72h-3.21q-47.3,1.53-94.5,2.34h-18.74a54.66,54.66,0,0,1,16.64-17.5l.82-.57a168.93,168.93,0,0,1,46.51-19.56,38.19,38.19,0,0,1,10.64-1.27l28,.55h3.27l33.75.66,272.11,5.43a45.47,45.47,0,0,0,11.25-3.67,31.08,31.08,0,0,0,3.46-1.85h0a36.34,36.34,0,0,0,9.09-7.43c5.73-6.52,9.55-16.22,7-30.32-6.76-37.62-18.2-153.44-18.2-153.44s-1.94-140.92,65.62-180.49c27.28-16,42.62-15.43,51.2-9.1a6.64,6.64,0,0,1,.73.55C1732,1527.44,1730,1548.51,1730,1548.51Z"/><path class="cls-3" d="M641.24,1813.8l-1.09,11.31-6.61,69.4q-15.49-3.24-30.93-6.79l7.73-63.09,2.61-21.44Z"/><polygon class="cls-6" points="447.19 1791.37 612.31 1439.94 1277.42 1491.82 1338.73 1791.37 447.19 1791.37"/><polygon class="cls-7" points="447.19 1822.02 447.19 1791.37 1338.73 1791.37 1338.73 1836.18 447.19 1822.02"/><path class="cls-8" d="M698.6,1740l398.88,8.12a5.53,5.53,0,0,0,5.37-7.24l-62.19-167.73L772,1568.07l-79.46,162.69a6.61,6.61,0,0,0,6.06,9.28Z"/><path class="cls-9" d="M698.6,1740l398.88,8.12a5.53,5.53,0,0,0,5.37-7.24l-62.19-167.73L772,1568.07l-79.46,162.69a6.61,6.61,0,0,0,6.06,9.28Z"/><path class="cls-8" d="M695.39,1733l403,8.49-54.79-165.93a13.67,13.67,0,0,0-12.7-9.4l-259-4.91Z"/><path class="cls-10" d="M728.68,1695.47,777,1589.2a12.87,12.87,0,0,1,11.7-7.52h120a12.82,12.82,0,0,1,12.83,12.83v114.81a12.85,12.85,0,0,1-12.87,12.84h-.59l-168.37-8.58a12.83,12.83,0,0,1-12.16-13.46A12.65,12.65,0,0,1,728.68,1695.47Z"/><path class="cls-11" d="M965.41,1682l2.06-60.64a9.32,9.32,0,0,1,9.28-9.1h35.47a9.29,9.29,0,0,1,9.1,7.7l10.43,60.31a9.29,9.29,0,0,1-9.1,10.88l-48,.43a9.29,9.29,0,0,1-9.26-9.31C965.4,1682.19,965.41,1682.1,965.41,1682Z"/><path class="cls-10" d="M495.46,1287.62l133.74-11.16a9.1,9.1,0,0,1,9.52,5.36l126.46,286.25L694.6,1726.52c2.21-5,3.85,33.71-12.13.18l-201-419.29C478.79,1301.81,489.19,1288.4,495.46,1287.62Z"/><path class="cls-9" d="M495.46,1287.62l133.74-11.16a9.1,9.1,0,0,1,9.52,5.36l126.46,286.25L694.6,1726.52c2.21-5,3.85,33.71-12.13.18l-201-419.29C478.79,1301.81,489.19,1288.4,495.46,1287.62Z"/><path class="cls-10" d="M495.46,1287.62,636,1269.67a9.08,9.08,0,0,1,9.52,5.36L772,1561.28,695.48,1733l-207.2-432.41a9.1,9.1,0,0,1,4.22-12.15A9,9,0,0,1,495.46,1287.62Z"/><path class="cls-12" d="M530.54,1307.75l101.6-15.83a9.11,9.11,0,0,1,9.86,5.58l106.42,260.32a8.24,8.24,0,0,1-.19,6.67L699.51,1666.3a8.22,8.22,0,0,1-14.89,0l-161-345.64a9.09,9.09,0,0,1,6.88-12.91Z"/><path class="cls-13" d="M1614.6,1894.3s-2.09,3.46-5.15,9.1l-.28.51c-2.72,4.85-6.06,11.22-9.46,18.19l-7.7.25h-2.54c-91,3.21-181.92,7.48-272.63,10.55l-22.17.72h-3.21q-47.3,1.53-94.5,2.34h-18.74l-14.07.18q-21.92.21-43.75.24h-17.34c-53.42-.15-106.63-1.33-159.51-4.09l-5.88-.33c10.4-22.62,29-59.7,44.08-71.56,11.67-9.09,95.51-19.19,172.61-26.59l8.12-.78h.18l21.53-2c29.5-2.7,56.27-4.89,75.37-6.37l1.76-.15-9.94-33.35-14.4-48.51,4.09-40.75.33-3.28H1241a26.77,26.77,0,0,1-12.13-1.51l-144-5h-2.61l-55.3-2h0c-29.66-1.06-50.73-1.85-51.55-2a12.42,12.42,0,0,1-2.54-.7,11.29,11.29,0,0,1-3.52-2.12,14,14,0,0,1-3-3.64h-1.94l-7.82.52-4,.27c-.15-.42-.27-.85-.42-1.24-.36-1.18-.73-2.31-1.06-3.46H949l-27.29-.57h-.49s-70.4,5.36-107.17-8h0c-13.5-4.91-22.47-12.34-21.77-23.47a25.27,25.27,0,0,1,1.57-7.39c-11.82-22.11,45.94-62.43,90-51.3a77.84,77.84,0,0,0,36.56,1.51,47,47,0,0,0,18.2-8.27c.54-.4,1-.79,1.48-1.19-.73-.45-1.48-.85-2.18-1.21a33.85,33.85,0,0,0-9.61-3.33l11.94-3.49h.19s42.44-3.88,70.06-5.43h.18c8.22-.42,15.16-.7,19.29-.57,18.19.51,53.63-12.5,55.15-16.5s17.7,0,17.7,0l14.16-5.52c14.16-5.48,22.26-13,22.26-18.49s12.64-11.49,12.64-11.49c5.7-9.58,16.89-19.86,28.62-29,10.16-7.85,20.71-14.85,28.53-19.73a574,574,0,0,1,12.13-58.34c5.37-17.92,22-31.2,28-35.5l2.19-1.46a158.69,158.69,0,0,0-6.67-22.19c-.21-.61-.45-1.21-.73-1.82-.61-1.42-1.24-2.82-1.88-4.12l-.94-1.82c-1.55.3-3,.57-4.67.79a106.86,106.86,0,0,1-15.16,1.12,104,104,0,0,1-100.51-75.8V1265a103.08,103.08,0,0,1-3.64-27.29,99.83,99.83,0,0,1,3.46-26.19h0c.46-1.82,1-3.61,1.58-5.4a6.26,6.26,0,0,1,.21-.61c.27-.82.55-1.67.85-2.48a108,108,0,0,1-13.55,1.18h-3a64.09,64.09,0,0,1-25.37-4.22h0a34.1,34.1,0,0,1-5.61-3,.61.61,0,0,1-.24-.18,28.48,28.48,0,0,1-6.25-4.94,32.11,32.11,0,0,0,12.34-21.47c.82-6.55-.27-13.85,3.64-19.19a27.45,27.45,0,0,1,7.09-6.06c16.13-11,28.93-26.11,43.51-39.12s32.23-24.25,51.85-24.86c26.31-.82,49.48,17.5,75.55,20.95,8,1.06,16.22.7,24,2.7a82.65,82.65,0,0,1,24.41,12.37,61.23,61.23,0,0,1,17.4,14.8,52,52,0,0,1,7.1,17,186.79,186.79,0,0,1,6.06,38.84c.7,13.73,0,27.56,1.46,41.2a70.64,70.64,0,0,0,11.64,33.14h.4a47.17,47.17,0,0,0,3.75,4.61c-2.57.81-5.15,1.54-7.79,2.18a125.28,125.28,0,0,1-13.31,2.64,38,38,0,0,1-6.21.51,18.35,18.35,0,0,1-4.31-.39l2.67,1.79,7.4,5h0l2.79,1.85,5.61,3.73c1.27-3.73,3-4.73,5.06-4.49,4.12-3.88,10.28,4.52,10.28,4.52,3.61,6.91,13.31,13.79,21.89,18.89a171.25,171.25,0,0,0,15.55,8.12c113.3,67.52,106.12,168.55,112.79,176.55s7.09,37,7.09,37,16.71,98.51,24.26,107,.48,11.49,7.06,21,5.07,35,5.07,35,4.54,60,20.73,73c14.53,11.68,33.93,109.88,37.78,130Z"/><path class="cls-14" d="M950.52,1578.25s-15.73,24.78-60.3,13.38-103.54,31.71-86.72,53,125.34-6.06,125.34-6.06l41.63-8.43-2.73-34.65Z"/><path class="cls-5" d="M950.52,1578.25s-15.73,24.78-60.3,13.38-103.54,31.71-86.72,53,125.34-6.06,125.34-6.06l41.63-8.43-2.73-34.65Z"/><path class="cls-15" d="M965,1576.92l-19.31-1-11.88,3.46s37.65,5.45,27.28,56.48l40.6-2.45Z"/><path class="cls-5" d="M965,1576.92l-19.31-1-11.88,3.46s37.65,5.45,27.28,56.48l40.6-2.45Z"/><path class="cls-12" d="M1220.67,1462.8s-53,30.32-67.89,55.51c0,0-12.37,6.07-12.37,11.4s-7.94,12.86-21.8,18.2l-13.88,5.45s-15.86-4-17.35,0-36.14,16.83-54,16.34-87.68,6.07-87.68,6.07a62,62,0,0,1,35.17,68.85l165-6.91,62.39-13.89,36.69-36.65Z"/><path class="cls-5" d="M1220.67,1462.8s-53,30.32-67.89,55.51c0,0-12.37,6.07-12.37,11.4s-7.94,12.86-21.8,18.2l-13.88,5.45s-15.86-4-17.35,0-36.14,16.83-54,16.34-87.68,6.07-87.68,6.07a62,62,0,0,1,35.17,68.85l165-6.91,62.39-13.89,36.69-36.65Z"/><path class="cls-14" d="M977.54,1682l-23.35-.46L926.9,1681s-128.85,9.91-126.34-31.29S902.19,1594,916,1605.85c10.46,8.94,34.65,16.16,45.69,19.1,3.52.94,5.67,1.45,5.67,1.45Z"/><path class="cls-5" d="M977.54,1682l-23.35-.46c-9.31-32,1.49-49.6,7.61-56.51,3.52.94,5.67,1.45,5.67,1.45Z"/><path class="cls-15" d="M993.27,1683.77,969,1685.46l-11.52.79c-15.86-46.57,9.76-64.91,9.76-64.91h7.58l12.4,1.48Z"/><path class="cls-14" d="M1287.06,1374.63l-28.74,54.58s-4.39-55.28-17.19-81.32c-3.27-6.67-7.09-11.4-11.55-12.82-12.13-3.83,57.61-80.26,57.61-80.26,2.33.49,15.67,9.1,32,20.22,18,12.13,39.63,26.93,54.18,36.39C1401,1329,1287.06,1374.63,1287.06,1374.63Z"/><path class="cls-12" d="M1250.2,1375.66s-23.11,14.83-29.53,36.63-12.41,60.94-12.41,60.94,10.43,93.62,15.86,98.08,26.08,98.08,26.08,98.08l20-13.37L1244,1538.11S1261.41,1386.61,1250.2,1375.66Z"/><path class="cls-5" d="M1250.2,1375.66s-23.11,14.83-29.53,36.63-12.41,60.94-12.41,60.94,10.43,93.62,15.86,98.08,26.08,98.08,26.08,98.08l20-13.37L1244,1538.11S1261.41,1386.61,1250.2,1375.66Z"/><polygon class="cls-15" points="1350.73 1584.53 1235.25 1584.53 1253.96 1402.34 1350.73 1402.34 1350.73 1584.53"/><path class="cls-16" d="M1083.17,1950.57h1.39l-2.6,1Z"/><path class="cls-16" d="M1300.43,1867.59l-22.58,8.67-3,1.12-81.32,31.26-31,11.92-42.2,16.22h-17.22c-53.42-.15-106.63-1.34-159.51-4.09,10.25-22.47,28.17-58.43,42.78-70,11.4-9.1,93-18.92,168.24-26.32,9.4-.91,18.68-1.79,27.71-2.61l2.15-.21c29.9-2.73,56.94-4.94,75.8-6.46l3-.24L1287,1825l2.49-2.48,3,13,2.52,10.37Z"/><path class="cls-5" d="M1083.17,1950.57h1.39l-2.6,1Z"/><path class="cls-5" d="M1300.43,1867.59l-22.58,8.67-3,1.12-81.32,31.26-31,11.92-42.2,16.22h-17.22c-53.42-.15-106.63-1.34-159.51-4.09,10.25-22.47,28.17-58.43,42.78-70,11.4-9.1,93-18.92,168.24-26.32,9.4-.91,18.68-1.79,27.71-2.61l2.15-.21c29.9-2.73,56.94-4.94,75.8-6.46l3-.24L1287,1825l2.49-2.48,3,13,2.52,10.37Z"/><path class="cls-16" d="M1083.17,1950.57h1.39l-2.6,1Z"/><path class="cls-16" d="M1181.13,1950.57a4.19,4.19,0,0,1-.33,1h0a2.75,2.75,0,0,1,.36-1Z"/><polygon class="cls-16" points="1298.95 1951.54 1296.71 1951.54 1296.37 1950.54 1298.62 1950.54 1298.95 1951.54"/><path class="cls-16" d="M1319.75,1835.91l-1.88,62.39v3.7l-.94,30.9-22.16.72h-3.22q-47.29,1.53-94.5,2.34h-18.74l-14.07.18q-21.91.21-43.75.24h-17.43c15.76-9.76,36.17-20.52,58.12-31.29,9.85-4.85,20.07-9.67,30.32-14.43,27.29-12.67,54.91-24.65,77.43-34.2l2.88-1.21c8.74-3.7,16.65-7,23.41-9.79,14.61-6.07,23.89-9.71,24.53-10Z"/><path class="cls-5" d="M1117.25,1579.47c5.67,11.82,11.52,23.89,20.89,33.11,1.48,1.45,4.06,2.79,5.39,1.18a3.87,3.87,0,0,0,.58-2.25,29,29,0,0,0-5.46-15.46c-3-4.67-6.61-8.91-9.31-13.76s-5.79-14.19-11.85-15.47C1109.7,1565.19,1115.52,1575.89,1117.25,1579.47Z"/><path class="cls-5" d="M1319.08,1274.94c-.42,1.52-.88,3-1.36,4.49a102.14,102.14,0,0,1-76.59,68.37c-3.27-6.67-7.09-11.4-11.55-12.83-12.13-3.82,57.61-80.25,57.61-80.25C1289.4,1255.2,1302.74,1264,1319.08,1274.94Z"/><path class="cls-14" d="M1322.72,1245.81a101.85,101.85,0,1,1,0-.43Z"/><path class="cls-16" d="M1259.81,1397.4s-21.23,25.77-17.83,42.63h25.74l18.83-21.22Z"/><path class="cls-5" d="M1335.3,1288.59l-81,111.3s20.8,29.74,30.71,31.23,66.46-131.65,66.46-131.65Z"/><path class="cls-15" d="M1336.33,1286.59l-81,111.45s20.8,29.71,30.71,31.2,66.46-131.62,66.46-131.62Z"/><path class="cls-16" d="M1245,1429.15s-4,62.39-7.94,74.79,0,126.31,0,126.31l37.17-15.34L1267.72,1440Z"/><polygon class="cls-5" points="1298.62 1950.54 1298.95 1951.54 1296.71 1951.54 1296.37 1950.54 1298.62 1950.54"/><path class="cls-5" d="M1603.14,1896.82l-1.85,3c-1.15,1.88-2.39,4.21-4,7.19a2.12,2.12,0,0,0-.21.36c-2.25,4.15-4.91,9.25-7.61,14.79-91,3.22-181.92,7.49-272.63,10.56l-22.17.72h-3.21l-9.52-32.13V1901l-1-3.39-6.06-20.2-6.07-20.52-6.27-21.89-2.31-8-.6-2-9.89-33.65-13.4-45.69,4.34-43.6h0l.3-3.31,3.91-39,.55-11.58h0l.3-6.06v-1.73h0l.67-14.07,2-41.84,1-21.41h0l.18-3.24h0l2.06-43,5.85-17.56,3-8.73,6.73-20.28,1.45-5h0c2.12-7.61,6.4-22.65,10.4-37.11h0l.36-1.25h0l.28-.94,2.85-10.28,3.54-13.18c1.34-5.07,2.22-8.68,2.43-9.92.33-2.15,6.06-11.67,13.58-24.25h0c15.16-25.08,38-62,40.57-74.35a1.5,1.5,0,0,0,0-.3,15.5,15.5,0,0,1,.64-2.21c1.24-3.7,3-4.7,4.91-4.46a6.11,6.11,0,0,1,2.39.94,18.94,18.94,0,0,1,4.73,4.55c3.55,6.82,13,13.64,21.44,18.7l1.64.94,1,.58c7,4,12.61,6.52,12.61,6.52,111,66.88,104.05,167,110.48,174.88s7,36.69,7,36.69,16.34,97.59,23.77,106.11.51,11.4,6.94,20.83,4.94,34.35,4.94,34.35,4.46,59.43,20.31,72.31S1603.14,1896.82,1603.14,1896.82Z"/><path class="cls-12" d="M1606.11,1895.85l-1.33,2.3h0c-1.06,1.88-2.76,4.85-4.79,8.58l-.21.43c-2.31,4.27-5,9.46-7.74,15.16h-2.54c-91,3.21-181.92,7.48-272.63,10.55l-22.17.72-9.49-32.25V1901l-1-3.39-6.27-21.23-6.07-20.61-6.06-20.59-2.39-8.25h0l-10.37-35.41-13.71-46.66,3.79-37.93.52-5.06,4.18-43.09h0l1.61-33.59,2-40.6.51-10.64.58-12.31.24-5.18,2-40.57,5.86-17.53,2.51-7.55,5.88-17.73,1.25-3.76s5.67-19.92,11.15-39.66c.22-.73.43-1.45.61-2.18.49-1.7.94-3.4,1.43-5.07h0c.48-1.69.94-3.36,1.36-5,1.55-5.52,3-10.67,4.06-14.92,1.49-5.54,2.49-9.58,2.7-10.88.33-2.15,6.06-11.95,13.86-24.68,14.34-23.71,35.26-57.61,39.68-71.67a21.45,21.45,0,0,0,.61-2.22h0a11.57,11.57,0,0,1,2.64-6.06c4.06-3.91,10.09,4.49,10.09,4.49,3.55,6.82,13,13.67,21.44,18.7a161.49,161.49,0,0,0,15.16,8c111,66.88,104.06,167,110.48,174.91s7,36.65,7,36.65,16.34,97.6,23.77,106.12.51,11.4,6.94,20.8,4.94,34.68,4.94,34.68,4.46,59.46,20.32,72.35S1606.11,1895.85,1606.11,1895.85Z"/><path class="cls-5" d="M1379.84,1312.08c-10.88,15.83-28.62,43.66-33.35,63.67,0,0-17.34,17.86-23.8,16.86s6.06,13.37,6.06,13.37l-68.12,94.42,9.67-29s20.31-71.34,21.22-77.77,50.24-80.07,54.15-98.6c3-14.82,12.73-1.48,12.73-1.48C1361.92,1300.2,1371.41,1307.08,1379.84,1312.08Z"/><path class="cls-12" d="M1379.84,1310.11c-10.88,15.8-28.62,43.66-33.35,63.52,0,0-17.34,17.83-23.8,16.86s6.06,13.37,6.06,13.37l-68.12,94.41,9.67-29s20.31-71.34,21.22-77.8,50.24-80,54.15-98.57c3-14.86,12.73-1.48,12.73-1.48C1361.92,1298.23,1371.41,1305.05,1379.84,1310.11Z"/><path class="cls-5" d="M1471.34,1505.73c.52,21.65-31.19,51.21-32.68,52.94s-98.6,81.86-98.6,81.86L1270.33,1694a59.28,59.28,0,0,1-27.29,12.62l4.76-47.85,4.7-97c10.88-12.13,21.44-24.86,21.68-28.92.48-8.4,18.19-17.35,18.19-17.35s12.4-10.4,10.4-16.34,6.58-34.41,6.58-34.41c4.46-80.77,87.68-88.68,87.68-88.68s40.14,15.85,68.37,32.68S1470.86,1484.11,1471.34,1505.73Z"/><path class="cls-5" d="M993.27,1683.77,969,1685.46c-10.25-17.43,3.85-64.12,3.85-64.12h2l12.4,1.48Z"/><path class="cls-12" d="M1397,1371.15s-83.22,7.94-87.68,88.68c0,0-8.43,28.26-6.46,34.2s-10.4,16.34-10.4,16.34-17.83,8.91-18.19,17.34-45.48,54.4-45.48,54.4-18.8,21.4-62.4,23.64-63.91,15.59-63.91,15.59-21.22-14.86-36.68-10.4-90.66,10.4-90.66,10.4-20,66.22,4.94,70.37c3,.48,248.32,8.91,248.32,8.91s16.76,7.92,42-11.4,69.73-53.51,69.73-53.51,97-80.26,98.6-81.86,33.35-31.32,32.68-52.94,22.32-80.1-6.06-97S1397,1371.15,1397,1371.15Z"/><path class="cls-5" d="M1322.72,1245.81a102,102,0,0,1-5,31.62,42.58,42.58,0,0,1-3.76-5.19q-7.1-10.9-14.22-21.83a59,59,0,0,0-14.46-17c-6.07-4.31-14.68-6.07-21.23-2.25-5.76,3.4-8.58,10.34-9.09,17a192,192,0,0,0,.51,20.07,11.09,11.09,0,0,1-1.85,7.25,11.88,11.88,0,0,1-7.82,3l-9.1,1.24a6.52,6.52,0,0,1-8.31-4,1.09,1.09,0,0,1-.05-.17c-7.55-13.67-12.77-30.65-26.93-37.23-8.73-4.07-20.25-3.79-25.86-11.61-3.82-5.34-3.3-12.59-2.18-19.08a151,151,0,0,1,5.3-21.58c1.61-5,5.19-14.89-2.76-15.89-5.39-.7-12.85,5-15.58,9.1s-3.4,9.49-5.34,14.12a33.73,33.73,0,0,1-18.64,17.32,53.45,53.45,0,0,1-12.86,3.48,102.06,102.06,0,0,1,199.2,31.35Z"/><path class="cls-17" d="M1160.36,1176.71c-2.76,4.21-3.4,9.46-5.34,14.1a33.79,33.79,0,0,1-18.61,17.31,71.73,71.73,0,0,1-25.56,4.55c-14.13.42-29.9-1.73-39-12.56a31.92,31.92,0,0,0,12.13-21.22c.79-6.49-.28-13.73,3.57-19a27.35,27.35,0,0,1,6.92-5.85c15.82-10.92,28.32-25.89,42.63-38.75s31.56-24,50.78-24.65c25.74-.79,48.51,17.34,74,20.77,7.82,1.06,15.89.7,23.53,2.67a80.23,80.23,0,0,1,23.92,12.13,61.26,61.26,0,0,1,17.07,14.67,52.65,52.65,0,0,1,6.94,16.8,187.55,187.55,0,0,1,6.06,38.47c.7,13.59,0,27.29,1.46,40.81s5.76,27.29,15,37.29a131.78,131.78,0,0,1-20.65,4.76,21.48,21.48,0,0,1-13.13-1,23.06,23.06,0,0,1-8-8.64l-14.22-21.83a59,59,0,0,0-14.46-17c-6.07-4.3-14.68-6.06-21.23-2.24-5.76,3.4-8.55,10.34-9.09,17a192.06,192.06,0,0,0,.51,20.07,11,11,0,0,1-1.85,7.25,11.91,11.91,0,0,1-7.85,3l-9.09,1.24a6.52,6.52,0,0,1-8.32-4s0-.11,0-.16c-7.55-13.71-12.77-30.65-26.93-37.23-8.73-4.07-20.25-3.79-25.86-11.62-3.82-5.33-3.3-12.58-2.18-19.07a151,151,0,0,1,5.3-21.58c1.61-5,5.19-14.89-2.75-15.92C1170.55,1166.64,1163.09,1172.37,1160.36,1176.71Z"/><path class="cls-5" d="M1391.21,1416.44c7.67-1.06,15.74-1.76,22.92,1.18-18.71-7.67-49.15-4.73-66.19,5.83C1349.49,1427,1385.27,1417.26,1391.21,1416.44Z"/><path class="cls-5" d="M1400.15,1441.3c18.65,1.25,37.9,3.85,55.58-2.21-14.8-5.09-31.08-1.88-46.66-3.43-12.43-1.24-25.08-5.54-37.2-2.39-5.07,1.3-23.71,9.88-22.44,16.16A100.7,100.7,0,0,1,1400.15,1441.3Z"/><path class="cls-5" d="M1350.76,1482.05a27.93,27.93,0,0,1,11.59,1.22A176.73,176.73,0,0,0,1405,1488c11,0,22.8-1.66,30.8-9.09Z"/><path class="cls-5" d="M1290.7,1576.92a85.46,85.46,0,0,0,41.69,7.58,184.44,184.44,0,0,0,42-8.06c6.07-1.79,12.68-4,16.22-9.31Z"/><path class="cls-5" d="M1424.93,1590.26a222.64,222.64,0,0,0,92.53,28.65q-24.64-9.89-49.66-18.7a359.57,359.57,0,0,0-52.3-14A26.74,26.74,0,0,1,1424.93,1590.26Z"/><path class="cls-5" d="M1470.74,1572.89a78.45,78.45,0,0,0,17.25.94c3,0,6.64-.43,8.43-3-13,.54-25.83-2.79-38.54-5.67-3.61-.85-10.09-2.85-13.13-.7C1450.51,1568.55,1463.46,1571.43,1470.74,1572.89Z"/><path class="cls-5" d="M1548.93,1843.73c6.82,11.7,13.73,23.53,23.16,33.35a170.28,170.28,0,0,0,17.38,14.92c-11.25-28.69-22.68-57.61-40.69-82.68-4.55-6.31-11.34-15.35-19.62-16.5-2.36,7,3.61,19.41,6.49,26A249.83,249.83,0,0,0,1548.93,1843.73Z"/><path class="cls-5" d="M1217.45,1629.25c-.51,4.85-.91,10.22,1.91,14.19a10.24,10.24,0,0,0,5.76,4c-1.45-.36-3-14.61-3.39-16.55-.67-4,0-11.4-2.82-14.34C1218.18,1620.7,1217.91,1625,1217.45,1629.25Z"/><path class="cls-5" d="M1233.22,1623.67a32.29,32.29,0,0,0,15.16,20.53c-5.31-6.55-7-15.16-11.65-22.35-1.48-2.3-3.21-5.61-6.06-6.06Q1231.75,1619.8,1233.22,1623.67Z"/><path class="cls-5" d="M1219.88,1536.35a37.84,37.84,0,0,1-30,3.79c-2.27-.66-7.58-3-6.31-6.36s7.43-1,10-.73l13.19,1.67C1209.11,1535,1217.91,1537.51,1219.88,1536.35Z"/><path class="cls-5" d="M1175.25,1557.94c6.21-.79,11.79,3.52,17.61,5.85a53.49,53.49,0,0,0,20,2.67c3.4,0,7.25-.27,9.34-3C1206.42,1559.82,1191.65,1555.85,1175.25,1557.94Z"/><polygon class="cls-15" points="1250.2 1375.63 1251.2 1375.63 1258.63 1402.34 1250.2 1411.32 1250.2 1375.63"/><g class="cls-18"><path d="M1085.93,1163.85a62.91,62.91,0,0,0-1.37,13.19,29.12,29.12,0,0,0,.82-4.24C1085.75,1169.89,1085.71,1166.82,1085.93,1163.85Z"/><path d="M1176.37,1167.31a5.33,5.33,0,0,1,5,5.64,3,3,0,0,1,0,.42c1.43-5,2.21-11.21-4-12.12-5.4-.67-12.86,5.06-15.58,9.24s-3.4,9.49-5.34,14.13a33.67,33.67,0,0,1-18.62,17.31,71.47,71.47,0,0,1-25.56,4.55c-12.85.4-27.07-1.39-36.38-9.88a30.27,30.27,0,0,1-3.61,3.27c9.1,10.83,24.87,13,39,12.55a71.74,71.74,0,0,0,25.53-4.54,33.88,33.88,0,0,0,18.65-17.32c1.94-4.63,2.55-9.88,5.3-14.09S1171,1166.64,1176.37,1167.31Z"/><path d="M1336.51,1273a21.45,21.45,0,0,1-13.12-1,23.4,23.4,0,0,1-8-8.64q-7.1-10.92-14.22-21.83a58.51,58.51,0,0,0-14.43-17c-6.06-4.33-14.7-6.06-21.22-2.24-5.79,3.39-8.58,10.34-9.25,17v.82a19.16,19.16,0,0,1,8.28-11.89c6.46-3.82,15.16-2.06,21.22,2.24a59.63,59.63,0,0,1,14.46,17q7.1,10.92,14.22,21.83a22.86,22.86,0,0,0,8,8.64,21.35,21.35,0,0,0,13.09,1,133,133,0,0,0,20.68-4.76,45,45,0,0,1-3.7-4.57A130.16,130.16,0,0,1,1336.51,1273Z"/><path d="M1255,1266.54a12.16,12.16,0,0,1-7.83,3l-9.09,1.24a6.52,6.52,0,0,1-8.31-4l-.06-.16c-7.55-13.71-12.76-30.66-26.92-37.24-8.73-4.06-20.23-3.79-25.83-11.61a22.31,22.31,0,0,1-2.7-15.89c-.15.94-.37,1.85-.52,2.76-1.09,6.49-1.64,13.74,2.21,19.07,5.61,7.83,17.13,7.55,25.84,11.62,14.19,6.58,19.4,23.52,27,37.23a8.64,8.64,0,0,0,3.49,4.15,8.8,8.8,0,0,0,4.88.21l9.09-1.24a11.93,11.93,0,0,0,7.83-3,11,11,0,0,0,1.85-7.25h0A9.32,9.32,0,0,1,1255,1266.54Z"/></g><path class="cls-3" d="M2197.51,1942.58l-18.42-2.55V1668.12l3.76,1.15,11.5,3.54V1699l.14,11.81.26,24.31v33.16l1.38,122.43V1894l.49,43.1v.66Z"/><path class="cls-19" d="M2207.85,1944l-10.26-1.44V1937l-.49-43.1v-3.28l-1.38-122.43V1735l-.25-24.31-.15-11.81v-26.17h11.06v35.14l.23,26.26v27.79h0l1.07,128.49v3.31l.34,42.72v.69Z"/><path class="cls-3" d="M3435.53,1640.2v252.59q-8.81,6.18-18.06,12.15l-.24-210.28v-22.33Z"/><path class="cls-19" d="M3448.4,1636.55V1883c-4.21,3.37-8.51,6.62-12.87,9.81V1640.2Z"/><path class="cls-3" d="M3070.71,1963.62c-7.07,1.43-14.16,2.87-21.26,4.1l-.26-212.36v-9.2l20.49-8.62V1757Z"/><path class="cls-19" d="M3084.22,1730.82v229.86c-4.49,1-9,1.9-13.45,2.88l-.95-206.51v-19.48l1.35-.63h0Z"/><path class="cls-3" d="M1866.35,1900l-19.1-1.93-2.45-239.46V1647.2h18.77v13Z"/><path class="cls-19" d="M1880.58,1901.52l-14.37-1.52-2.87-239.78v-13h14.51v14.28Z"/><polygon class="cls-5" points="3071.03 1736.97 3084.16 1730.79 3084.16 1759.78 3071.37 1764.06 3071.03 1736.97"/><polygon class="cls-5" points="3448.37 1636.49 3448.37 1684.24 3435.53 1688.53 3417.2 1694.63 3417.16 1672.3 3435.53 1640.17 3448.37 1636.49"/><polygon class="cls-7" points="3337.5 1545.69 3337.5 1668.52 3071.37 1757.22 3069.65 1625.86 3337.5 1545.69"/><polygon class="cls-6" points="1841.27 1537.16 2191.01 1470.61 3337.5 1545.69 3069.65 1625.86 1841.27 1537.16"/><polygon class="cls-5" points="1877.96 1647.2 1878.08 1661.46 1863.6 1660.19 1844.78 1658.58 1844.69 1647.2 1877.96 1647.2"/><polygon class="cls-5" points="2205.67 1689.62 2194.6 1688.64 2179.09 1687.32 2179.09 1668.12 2194.43 1672.78 2205.52 1672.78 2205.67 1689.62"/><polygon class="cls-7" points="1841.27 1537.16 1841.27 1651.46 3071.37 1757.22 3069.65 1625.86 1841.27 1537.16"/><polygon class="cls-7" points="2816.59 1673.06 2655.92 1673.06 2655.92 1614.76 2816.59 1626.09 2816.59 1673.06"/><polygon class="cls-5" points="2816.59 1673.06 2655.92 1673.06 2655.92 1614.76 2816.59 1626.09 2816.59 1673.06"/><polygon class="cls-5" points="2440.1 1601.98 2440.1 1694.1 3056.86 1741.02 3056.86 1642.92 2816.31 1629.28 2792.4 1650.6 2694.3 1643.79 2659.34 1618.18 2440.1 1601.98"/><polygon class="cls-20" points="2436.68 1598.56 2436.68 1690.71 3053.44 1737.6 3053.44 1639.5 2812.89 1625.86 2789.01 1647.2 2690.89 1640.37 2655.92 1614.76 2436.68 1598.56"/><polygon class="cls-7" points="2056.22 1573.82 2202.1 1584.08 2200.41 1630.42 2105.16 1630.42 2041.45 1605.4 2056.22 1573.82"/><polygon class="cls-5" points="2056.22 1573.82 2202.1 1584.08 2200.41 1630.42 2105.16 1630.42 2041.45 1605.4 2056.22 1573.82"/><polygon class="cls-5" points="1861.76 1561.03 1861.76 1643.79 2421.34 1688.15 2421.34 1600.28 2205.52 1587.47 2182.48 1604.54 2095.47 1599.42 2059.64 1577.24 1861.76 1561.03"/><polygon class="cls-20" points="1858.34 1557.61 1858.34 1640.37 2417.92 1684.73 2417.92 1596.86 2202.1 1584.08 2179.09 1601.12 2092.05 1596 2056.22 1573.82 1858.34 1557.61"/><polygon class="cls-5" points="3056.92 1557.93 3135.36 1563.07 3005.4 1601.98 2939.2 1597.21 3056.92 1557.93"/><polygon class="cls-20" points="3056.92 1554.54 3135.36 1559.65 3005.4 1598.56 2939.2 1593.79 3056.92 1554.54"/><path class="cls-19" d="M3047.55,1563.36c3.1-1.35,6.41,1.15,9.71,1.78,1.87.38,3.82,0,5.75.38,3.85.51,7.64,3.07,11.32,1.78Z"/><path class="cls-19" d="M3043.5,1565.69c3.07-1.32,6.38,1.18,9.68,1.81,1.9.34,3.85,0,5.75.34,3.82.52,7.64,3.11,11.32,1.81Z"/><path class="cls-19" d="M3034.19,1570.4c3.07-1.32,6.38,1.15,9.68,1.78,1.9.38,3.83,0,5.75.38,3.85.51,7.67,3.1,11.32,1.78Z"/><polygon class="cls-5" points="2527.68 1514.89 2702.58 1526.35 2665.31 1579.88 2473.03 1559.34 2527.68 1514.89"/><polygon class="cls-4" points="2524.26 1511.47 2699.16 1522.9 2661.89 1576.46 2469.58 1555.92 2524.26 1511.47"/><polygon class="cls-21" points="2531.96 1515.4 2684.51 1524.74 2652.01 1568.36 2484.29 1551.61 2531.96 1515.4"/><path class="cls-4" d="M2429.67,1952.84a14.27,14.27,0,0,1-.14,2.44,17.66,17.66,0,0,1-.23,2.16,48.4,48.4,0,0,1-4.17,14.62h0c-72.26-8.13-144.7-17.9-217.22-27.93l-10.26-1.43-18.42-2.56-15.51-2.15h0a374.38,374.38,0,0,1-50.69-4.75,263.68,263.68,0,0,1-31.32-6.6c-46-6.3-92.2-12.36-138.29-17.88l-6-.71c1.09-4.89,2-7.85,2-7.85s9.89-38.85,18.11-82.26h0c1.81-9.43,3.53-19,5-28.53,1.21-7.62,2.3-15.15,3.22-22.39.52-4,1-7.9,1.32-11.72.2-1.9.38-3.79.52-5.75s.32-4.08.46-6.06.2-3.74.29-5.55v-2.7c0-3.88,0-7.93-.15-12.09a355.39,355.39,0,0,0-9.77-61.52c-.8-3.45-1.63-6.9-2.5-10.26-.25-1.09-.54-2.15-.83-3.22-9.28-35.94-20.11-65.31-20.11-65.31a4,4,0,0,1,0-.49,1.93,1.93,0,0,0,0-.34q0-.36,0-.72v-5.11a44.1,44.1,0,0,1,1.55-8.91c.31-1,.68-2,1.09-3a19,19,0,0,1,12.93-12h0c8.13-2.1,20.43,0,39,11a67.12,67.12,0,0,1,8.62,5.92,38,38,0,0,1,4,3.48c21.26,19.8,32.58,52.47,38.61,82.29.23,1.07.43,2.13.63,3.19.72,3.68,1.33,7.27,1.87,10.81,1,6.2,1.76,12.18,2.33,17.72,0,1.5.32,2.88.46,4.4s.29,2.87.37,4.25c.38,4.49.64,8.62.81,12.13.49,9.31.4,15,.4,15v.28a8.16,8.16,0,0,1-.14,1.24.45.45,0,0,0,0,.23v2.58c-.12,1.21-.26,2.62-.43,4.23-.26,2.47-.55,5.37-.9,8.62h0c-.23,2.41-.51,5-.8,7.79-.63,5.74-1.32,12.41-2.07,19.42-.17,1.32-.31,2.64-.46,4-.66,6-1.35,12.27-2.07,18.59h0c-.77,7.19-1.63,14.37-2.47,21.47-.2,1.55-.4,3.1-.57,4.62-2.13,17.24-4.26,32.9-6,42.64a40.5,40.5,0,0,0-.57,4.37,12.51,12.51,0,0,0,0,1.5,28.2,28.2,0,0,0,0,3.9c1.4,24.54,27.92,28.74,27.92,28.74l120.43-2.39,17.87-.34,10.4-.2,93.87-1.87h0l8.62-.17,46.69-.92a33.12,33.12,0,0,1,9.4,1.12,148.89,148.89,0,0,1,40.8,17.84,47.75,47.75,0,0,1,10.55,9.2,3.47,3.47,0,0,1,.4.45,49.74,49.74,0,0,1,11.29,26.9v2A25.73,25.73,0,0,1,2429.67,1952.84Z"/><path class="cls-5" d="M2429.67,1952.84a14.27,14.27,0,0,1-.14,2.44,17.66,17.66,0,0,1-.23,2.16,50.44,50.44,0,0,1-4.31,14.62c-72.27-8.13-144.7-17.9-217.23-27.93l-10.25-1.43-18.42-2.56-15.52-2.15h0a374.24,374.24,0,0,1-50.68-4.75,262.85,262.85,0,0,1-31.32-6.6c-46-6.3-92.21-12.36-138.3-17.88l-6-.71h0c1.09-5.06,2.07-8.14,2.07-8.14s8.07-31.6,15.74-69.9h0c.55-2.65,1.07-5.29,1.58-8l.78-4h0c1.78-9.4,3.5-19.06,5-28.54,1.2-7.61,2.3-15.14,3.22-22.38.51-4,.94-7.9,1.32-11.72.2-1.9.37-3.8.51-5.75s.32-4.08.46-6.06.21-3.74.29-5.55v-2.7c0-3.88,0-7.93-.14-12.1a352.43,352.43,0,0,0-9.69-61.51q-1.2-5.24-2.5-10.26c-.28-1.09-.54-2.16-.83-3.22-9.31-36.06-20.11-65.6-20.11-65.6a.67.67,0,0,0,0-.2,1.93,1.93,0,0,0,0-.34q0-.36,0-.72v-5.12a44,44,0,0,1,1.46-8.9c.32-1,.66-2,1.07-3a19,19,0,0,1,13.62-12.38c8.13-1.9,20.28.46,38.44,11.09a69.56,69.56,0,0,1,9,6.26h0c1.35,1.12,2.64,2.24,3.9,3.45,21.09,19.91,32.33,52.52,38.31,82.26.23,1.07.43,2.16.63,3.22.72,3.65,1.32,7.27,1.87,10.78,1,6.2,1.72,12.15,2.29,17.67.15,1.52.32,3,.43,4.45s.29,2.87.38,4.25c.37,4.48.63,8.62.8,12.13.49,9.31.41,15,.41,15V1724a.45.45,0,0,0,0,.23v2.58c-.12,1.21-.26,2.62-.44,4.23-.25,2.47-.54,5.37-.89,8.62h0c-.28,2.38-.54,5-.83,7.78-.63,5.75-1.32,12.42-2.07,19.43-.17,1.32-.31,2.64-.46,4-.66,6-1.38,12.33-2.07,18.65h0c-.83,7.18-1.66,14.37-2.53,21.44-.2,1.55-.37,3.1-.57,4.62-2.1,17.24-4.2,32.67-5.92,42.36a40.67,40.67,0,0,0-.57,4.68,12.34,12.34,0,0,0,0,1.49,28.35,28.35,0,0,0,0,3.91c1.63,24.25,27.92,28.3,27.92,28.3l120.43-2.35,17.84-.38,10.43-.2,94-1.84,8.8-.17,46.52-.92a31.67,31.67,0,0,1,9.39,1.12,147.86,147.86,0,0,1,41.12,17.67,47.56,47.56,0,0,1,10.69,9.37,2.93,2.93,0,0,1,.4.46,49.3,49.3,0,0,1,11.15,27v2A33.35,33.35,0,0,0,2429.67,1952.84Z"/><path class="cls-4" d="M2429.87,1972.49l-4.74-.54h0c-72.26-8.13-144.7-17.9-217.22-27.93l-10.26-1.44-18.42-2.55-15.51-2.16h0a374.37,374.37,0,0,1-50.69-4.74,261.74,261.74,0,0,1-31.32-6.61c-46-6.29-92.2-12.35-138.29-17.87a116.69,116.69,0,0,1,2.87-12s27.3-107.5,29-164.65c.61-20.43-3.45-45.71-8.93-69.82h0c-.81-3.47-1.61-6.92-2.47-10.31l-.78-3.22c-9.74-37.79-21.32-69.39-21.32-69.39a46.83,46.83,0,0,1,.66-11.7c.18-1,.41-2.06.69-3.07a23.43,23.43,0,0,1,7.41-12.41h0a4.36,4.36,0,0,1,.55-.41c7.56-5.74,21.12-6.15,45.25,8a70.79,70.79,0,0,1,13.48,10.32c1.15,1.09,2.3,2.24,3.39,3.42,19.4,21,29.68,53.18,35.08,82l.61,3.19c.63,3.59,1.18,7.13,1.69,10.55v.28h0q1,6.81,1.67,13h0a346,346,0,0,1,2.07,36.69s-1.12,11.35-2.88,27.7c-.66,6.41-1.43,13.59-2.27,21.18v1.15l-.43,4c-1.46,13.25-3.07,27.38-4.71,40.49-.17,1.6-.37,3.18-.57,4.74-1.84,14.74-3.68,27.84-5.2,36.37-6,33.28,27.29,38.39,27.29,38.39l113.61-2.24,17.82-.35,10.43-.23h5.77l90.11-1.78h8.62l51.72-1a32.44,32.44,0,0,1,9.4,1.15,148,148,0,0,1,41.14,17.64,48.86,48.86,0,0,1,9.69,8.22,6.68,6.68,0,0,1,.49.57A49.77,49.77,0,0,1,2429.87,1972.49Z"/><polygon class="cls-10" points="2836.05 1453.11 2871.19 1528.39 2865.3 1528.39 2824.09 1454 2836.05 1453.11"/><polygon class="cls-5" points="2836.05 1453.11 2871.19 1528.39 2865.3 1528.39 2824.09 1454 2836.05 1453.11"/><polygon class="cls-10" points="2836.05 1528.39 2871.19 1528.39 2871.19 1536.27 2836.05 1537.16 2836.05 1528.39"/><polygon class="cls-5" points="2836.05 1528.39 2871.19 1528.39 2871.19 1536.27 2836.05 1537.16 2836.05 1528.39"/><path class="cls-10" d="M2562.71,1176.09V1439a19.5,19.5,0,0,0,19.51,19.51H3020.4a19.39,19.39,0,0,0,19.4-19.39c0-.12,0-.25,0-.37l-5-263.12a19.39,19.39,0,0,0-19.39-19H2582.22A19.51,19.51,0,0,0,2562.71,1176.09Z"/><path class="cls-5" d="M2562.71,1176.09V1439a19.5,19.5,0,0,0,19.51,19.51H3020.4a19.39,19.39,0,0,0,19.4-19.39c0-.12,0-.25,0-.37l-5-263.12a19.39,19.39,0,0,0-19.39-19H2582.22A19.51,19.51,0,0,0,2562.71,1176.09Z"/><path class="cls-10" d="M2546.9,1176.09V1439a19.51,19.51,0,0,0,19.51,19.51H3004.6a19.36,19.36,0,0,0,19.37-19.36c0-.13,0-.27,0-.4l-5-263.12a19.4,19.4,0,0,0-19.37-19H2566.53a19.52,19.52,0,0,0-19.63,19.4Z"/><path class="cls-12" d="M2564.14,1192.53V1424a19.52,19.52,0,0,0,19.51,19.51H2989.4a19.4,19.4,0,0,0,19.39-19.4h0V1192.38A19.39,19.39,0,0,0,2989.4,1173H2583.65A19.51,19.51,0,0,0,2564.14,1192.53Z"/><polygon class="cls-10" points="2739.7 1454.17 2778.23 1528.39 2865.3 1528.39 2821.76 1443.48 2739.7 1454.17"/><polygon class="cls-10" points="2709.02 1528.39 2702.58 1536.27 2836.05 1536.27 2836.05 1528.39 2709.02 1528.39"/><path class="cls-22" d="M2146.25,1255.89c-9.57-26.9-9.52-56.75-21.12-82.81a100,100,0,0,1-4.86-11.5,33.41,33.41,0,0,1-1.32-7.5l-.72.18-.72.2-.72.28h0l-.66.41c.18.85.4,1.69.66,2.53a96.13,96.13,0,0,0,4.92,11.49c11.84,26.2,11.75,56.17,21.49,83.33a7.72,7.72,0,0,0,1.81,3.18,4.2,4.2,0,0,0,1.47.9C2146.39,1256.26,2146.3,1256.09,2146.25,1255.89Zm0,0c-9.57-26.9-9.52-56.75-21.12-82.81a100,100,0,0,1-4.86-11.5,33.41,33.41,0,0,1-1.32-7.5l-.72.18-.72.2-.72.28h0l-.66.41c.18.85.4,1.69.66,2.53a96.13,96.13,0,0,0,4.92,11.49c11.84,26.2,11.75,56.17,21.49,83.33a7.72,7.72,0,0,0,1.81,3.18,4.2,4.2,0,0,0,1.47.9C2146.39,1256.26,2146.3,1256.09,2146.25,1255.89Zm0,0c-9.57-26.9-9.52-56.75-21.12-82.81a100,100,0,0,1-4.86-11.5,33.41,33.41,0,0,1-1.32-7.5l-.72.18-.72.2-.72.28h0l-.66.41c.18.85.4,1.69.66,2.53a96.13,96.13,0,0,0,4.92,11.49c11.84,26.2,11.75,56.17,21.49,83.33a7.72,7.72,0,0,0,1.81,3.18,4.2,4.2,0,0,0,1.47.9C2146.39,1256.26,2146.3,1256.09,2146.25,1255.89Zm0,0c-9.57-26.9-9.52-56.75-21.12-82.81a100,100,0,0,1-4.86-11.5,33.41,33.41,0,0,1-1.32-7.5l-.72.18-.72.2-.72.28h0l-.66.41c.18.85.4,1.69.66,2.53a96.13,96.13,0,0,0,4.92,11.49c11.84,26.2,11.75,56.17,21.49,83.33a7.72,7.72,0,0,0,1.81,3.18,4.2,4.2,0,0,0,1.47.9C2146.39,1256.26,2146.3,1256.09,2146.25,1255.89Zm0,0c-9.57-26.9-9.52-56.75-21.12-82.81a100,100,0,0,1-4.86-11.5,33.41,33.41,0,0,1-1.32-7.5l-.72.18-.72.2-.72.28h0l-.66.41c.18.85.4,1.69.66,2.53a96.13,96.13,0,0,0,4.92,11.49c11.84,26.2,11.75,56.17,21.49,83.33a7.72,7.72,0,0,0,1.81,3.18,4.2,4.2,0,0,0,1.47.9C2146.39,1256.26,2146.3,1256.09,2146.25,1255.89Zm0,0c-9.57-26.9-9.52-56.75-21.12-82.81a100,100,0,0,1-4.86-11.5,33.41,33.41,0,0,1-1.32-7.5l-.72.18-.72.2-.72.28h0l-.66.41c.18.85.4,1.69.66,2.53a96.13,96.13,0,0,0,4.92,11.49c11.84,26.2,11.75,56.17,21.49,83.33a7.72,7.72,0,0,0,1.81,3.18,4.2,4.2,0,0,0,1.47.9C2146.39,1256.26,2146.3,1256.09,2146.25,1255.89Zm0,0c-9.57-26.9-9.52-56.75-21.12-82.81a100,100,0,0,1-4.86-11.5,33.41,33.41,0,0,1-1.32-7.5l-.72.18-.72.2-.72.28h0l-.66.41c.18.85.4,1.69.66,2.53a96.13,96.13,0,0,0,4.92,11.49c11.84,26.2,11.75,56.17,21.49,83.33a7.72,7.72,0,0,0,1.81,3.18,4.2,4.2,0,0,0,1.47.9C2146.39,1256.26,2146.3,1256.09,2146.25,1255.89Zm499.24,267.79h0l-2.22-.4,2.88-.63h0a4,4,0,0,0,.83-.21h0c3.19-.69,6.35-1.46,9.45-2.29h0l3.25-.92h0l.46-.15c26.78-7.9-4.45-15.17-44.16-20.57h-.12c-42.87-5.75-95.45-9.51-95.45-9.51l-16.46,2.18h-.15c-20.11,2.65-51.86,7-56.92,8.62-6.15,2-58.33,4.54-76.51,5.35a8,8,0,0,0-2.71-2.88L2314,1499.8v7.39h0l-.4-.18a73.73,73.73,0,0,0-7.27-28.73l-.4-.8c-13.85-26.27-16.64-32.85-16.64-32.85h0a5.6,5.6,0,0,0-.37-1.4c-4.66-16.15-21.81-44.22-50.89-84.51l-1-1.41-3.65-17.87-.63-3.13h-18.3a239.61,239.61,0,0,1,12.7-45.43c.37-.92.75-1.84,1.15-2.73l.23-.51c.4-1,.86-1.9,1.29-2.88H2233a87.43,87.43,0,0,0,84-81.31.88.88,0,0,0,0-.23c.11-1.78.17-3.57.17-5.35a85.58,85.58,0,0,0-11.49-43.1c-.23-.4-.46-.8-.72-1.2l-.46-.78-1-1.61c6.55-1.55,14.37,1.44,20.12-2.24a14.65,14.65,0,0,0,4.91-5.92,30.49,30.49,0,0,0,2.87-8.62h0a2,2,0,0,0,0-.49.25.25,0,0,0,0-.17,33.57,33.57,0,0,0,.43-5.92,31.83,31.83,0,0,0-2-12,32.91,32.91,0,0,0-18.5-18.56,122.52,122.52,0,0,0-13.45-3.65c-18.39-4.92-33.93-17-51.72-23.79a93.82,93.82,0,0,0-38.76-6,55.5,55.5,0,0,0-23,5.75,97.34,97.34,0,0,0-15.34,11.12c-12.79,10.08-27.3,18.7-38.42,30.74a69.71,69.71,0,0,0-5.57,6.9c-1,1.4-1.87,2.87-2.87,4.31a7.72,7.72,0,0,0-6.93-2.88h0a11.06,11.06,0,0,0-1.41,0,28.47,28.47,0,0,0-3.56.38c-2.87.49-24.28,6.15-24.28,9.08a101,101,0,0,0-24.6,15.11c-17.24,15.77-21.09,40.77-23.27,63.82a592.13,592.13,0,0,0-2.87,80.45c.4,9.77,1.18,19.54.72,29.31a217.24,217.24,0,0,1-5.09,34.13q-3.71,17.54-8,34.94c-1.38,5.75-3.59,12.16-9.22,14l2.1.28a9.67,9.67,0,0,1-2.1,1,63.75,63.75,0,0,0,7.3.72h1.69a19.57,19.57,0,0,0,4.11-.49,15.34,15.34,0,0,0,5.2-2.41c.23-.58.43-1.15.64-1.76a9.67,9.67,0,0,0,3.44-5.34,37.63,37.63,0,0,1-.57,9.71,5.9,5.9,0,0,1-.29,1.41,39.62,39.62,0,0,1-9.88,18.73l2.87-2.18a41.41,41.41,0,0,1-2.87,3.48q6.2-4.67,12.41-9.51h0a7.61,7.61,0,0,0,.72-.55h0l7.07-5.57v5.57h0v1.29c-.58,19.83-1.41,68.53,3.1,80.17.26.69.55,1.38.78,2,5.14,13.24,7.35,19,6.69,25.86-.46,4.8,3.13,18.53,5.12,29.45a36.35,36.35,0,0,1,.91,13.3,19.13,19.13,0,0,0,.52,7.93c.26,1.27.58,2.62.92,4a5.94,5.94,0,0,0,.38,1.52c2.61,10.46,6.32,23.39,2.44,28.53a23,23,0,0,0-2.88,5.75c-3.19,8.62-3.7,20.4-7.38,25.17-4.31,5.54-2.87,15.4-2.53,16.66a.38.38,0,0,1,0,.15s-.2,1.12-.6,2.87c-.49,2.42-1.27,6.12-2.24,10.23v.29a146.89,146.89,0,0,1-5,17h0c-1.47,3.9-2.88,6.72-4.52,7.27-5.74,2.09-8.62,29.07-8.62,29.07s-13.16,21.35-10.66,26.61a37.4,37.4,0,0,0,1.87,3.54l-1.26,1.95c-7,11.29-17.24,31.81-7.36,42.84a48.88,48.88,0,0,0,11.78,9c-.51,1.15-1.06,2.39-1.64,3.74-10.86,25.46-27.58,84.59,36.75,109.53q9.6,3.69,19.51,6.41a263.72,263.72,0,0,0,31.32,6.61,384.77,384.77,0,0,0,46,4.11c6.84.23,13.59.28,20.11.23s12.44-.21,18.36-.46q5.27-.21,10.26-.52a535.66,535.66,0,0,0,59-6.47l91.94-16.46s38.62,1.38,52.85,9.54l.43.26s2.32-1.35,6.23-4h0c1.7-1.15,3.71-2.52,5.92-4.16,14.57-10.72,38.88-31.61,54.79-61l.32-.55,3.13-.4h.72l2.24-.32,4.66-.66h.83c11.64-1.69,22.64-3.56,22.64-3.56s.43,12.84.95,27.73c.17,4.54.32,9.28.49,13.87.54,15.75,1,30.06,1,30.55s11.84,31.6,25.09,63l10.34.83q41,3.29,81.92,5.43l10.2.52,6.38.32c-4.6-27.85-8.22-54.39-8.22-54.39l-17.07-79.51s-1.78-16.46-14.56-89.65c-10.35-59.3-71.26-54-94.08-49.88-2.32.43-4.22.83-5.74,1.15v-4.45s-43.76,3.68-83.33,5.46l-9.63.4c-9.16.34-17.87.54-25.51.54a184.94,184.94,0,0,1-20.11-.8c-30.55-3.51-65.37,7-65.37,7s-44.51,7.21-50.46,4.57a15.4,15.4,0,0,0-5-1h-2.87a4.6,4.6,0,0,0,2.87-5.12c-1.78-7.35-2.5-17.53,2.5-24.54,2.19-3.1,5.75-8,8.94-12.44l7.76-10.66v-.83l.2-3.13,1.87-27.93,4.48-25.86.29-1.64.4-2.3.29-1.66.86.28h0c12.73,4.43,27.15,7.53,37.35,4h.2a16.92,16.92,0,0,0,2.36-1h.46v1.93l.17,3.36,48-2.62h.71s1.87-9.25,3.88-22c.15-1,.32-2.09.49-3.18s.43-2.88.63-4.2a16.68,16.68,0,0,1,.29-2h2.87c22.24-.8,53.28-2.7,65.92-7.3h0a14.34,14.34,0,0,0,4.34-2.33c5.37-4.65,24.65-11.32,43.59-17.06h0l7.55-2.24c5.49-1.61,10.78-3.11,15.46-4.43,10.86-2.87,18.62-5,18.62-5s74.71,6.93,130.51-9.19h0l.92-.26C2683.5,1534.05,2670.46,1528.42,2645.49,1523.68Zm-530.1-373.53a15.85,15.85,0,0,0,.31,2.55h0a8.12,8.12,0,0,0,.17,1.1,2,2,0,0,0,.23,1.12,25.51,25.51,0,0,0,.67,2.53,94.47,94.47,0,0,0,4.91,11.49c11.84,26.2,11.75,56.17,21.49,83.33a7.72,7.72,0,0,0,1.81,3.18,4.2,4.2,0,0,0,1.47.9l.69.23h.8l-.32.54a2,2,0,0,1-.23.4l-.2.32c-3.85,6.49-8,12.87-12.09,18.5a27.08,27.08,0,0,0-10,4.08l-1.61,1.07-.69.51c-1-4.94-2.39-9.82-3.65-14.71a339.45,339.45,0,0,1-11.09-79.7v-5.43c0-7,.17-13.88.6-20.84a17.26,17.26,0,0,1,2.44-9.13h0a6.29,6.29,0,0,1,4.26-2.07Zm30.86,105.76c-9.57-26.89-9.52-56.74-21.12-82.81a99.13,99.13,0,0,1-4.86-11.49,33.51,33.51,0,0,1-1.32-7.5l-.72.17-.72.21-.72.28h0l-.66.41q.27,1.27.66,2.52a95.58,95.58,0,0,0,4.92,11.5c11.84,26.2,11.75,56.17,21.49,83.32a7.69,7.69,0,0,0,1.81,3.19,4,4,0,0,0,1.47.89c-.09-.34-.18-.51-.23-.71Zm0,0c-9.57-26.89-9.52-56.74-21.12-82.81a99.13,99.13,0,0,1-4.86-11.49,33.51,33.51,0,0,1-1.32-7.5l-.72.17-.72.21-.72.28h0l-.66.41q.27,1.27.66,2.52a95.58,95.58,0,0,0,4.92,11.5c11.84,26.2,11.75,56.17,21.49,83.32a7.69,7.69,0,0,0,1.81,3.19,4,4,0,0,0,1.47.89c-.09-.34-.18-.51-.23-.71Zm0,0c-9.57-26.89-9.52-56.74-21.12-82.81a99.13,99.13,0,0,1-4.86-11.49,33.51,33.51,0,0,1-1.32-7.5l-.72.17-.72.21-.72.28h0l-.66.41q.27,1.27.66,2.52a95.58,95.58,0,0,0,4.92,11.5c11.84,26.2,11.75,56.17,21.49,83.32a7.69,7.69,0,0,0,1.81,3.19,4,4,0,0,0,1.47.89c-.09-.34-.18-.51-.23-.71Zm0,0c-9.57-26.89-9.52-56.74-21.12-82.81a99.13,99.13,0,0,1-4.86-11.49,33.51,33.51,0,0,1-1.32-7.5l-.72.17-.72.21-.72.28h0l-.66.41q.27,1.27.66,2.52a95.58,95.58,0,0,0,4.92,11.5c11.84,26.2,11.75,56.17,21.49,83.32a7.69,7.69,0,0,0,1.81,3.19,4,4,0,0,0,1.47.89c-.09-.34-.18-.51-.23-.71Zm0,0c-9.57-26.89-9.52-56.74-21.12-82.81a99.13,99.13,0,0,1-4.86-11.49,33.51,33.51,0,0,1-1.32-7.5l-.72.17-.72.21-.72.28h0l-.66.41q.27,1.27.66,2.52a95.58,95.58,0,0,0,4.92,11.5c11.84,26.2,11.75,56.17,21.49,83.32a7.69,7.69,0,0,0,1.81,3.19,4,4,0,0,0,1.47.89c-.09-.34-.18-.51-.23-.71Zm0,0c-9.57-26.89-9.52-56.74-21.12-82.81a99.13,99.13,0,0,1-4.86-11.49,33.51,33.51,0,0,1-1.32-7.5l-.72.17-.72.21-.72.28h0l-.66.41q.27,1.27.66,2.52a95.58,95.58,0,0,0,4.92,11.5c11.84,26.2,11.75,56.17,21.49,83.32a7.69,7.69,0,0,0,1.81,3.19,4,4,0,0,0,1.47.89c-.09-.34-.18-.51-.23-.71Z"/><path class="cls-23" d="M2242.33,1271a66.75,66.75,0,0,0-11,17.07c-.44.94-.87,1.86-1.27,2.87-12.7,28.73-17,69.39-17,69.39s-7.87-3.53-19-9c-20.77-10.29-52.84-27.41-65.8-41.06-5.75-6.18-7.81-11.64-3-15.46a36.67,36.67,0,0,0,3.16-2.87,90.43,90.43,0,0,0,10-11.9c4.14-5.74,8.22-12.15,12.07-18.73,2.27-3.85,4.43-7.73,6.44-11.49l.8-1.5c8.62-16.35,14.92-30.31,14.92-30.31s2.87.92,7.52,2.55C2201.56,1228.19,2260.66,1251.49,2242.33,1271Z"/><path class="cls-23" d="M2635.63,1936.72s3.51,26,8,53.5l-10.2-.51q-40.92-2.13-81.92-5.44c-15.51-35.94-31.61-78.61-31.61-79.27s-.48-14.71-1-30.4c-.17-5.52-.37-11.21-.55-16.55h0c-.28-8.1-.54-15.4-.69-19.94,0-3.11-.17-4.94-.17-4.94s-14.77,2.58-28,4.39l-5.89.78c-3,.37-5.75.66-8.19.83a21.12,21.12,0,0,1-6.35,0c-4.54-1.75,4.88-46,4.88-46l23.45-56.75,6.55-15.8,2.87-.72c1.41-.35,3.31-.75,5.58-1.18,22.38-4.11,82.18-9.34,92.32,49.68,12.56,72.9,14.37,89.27,14.37,89.27Z"/><path class="cls-23" d="M2658.3,2053.41h0Z"/><path class="cls-24" d="M2635.63,1936.72s3.51,26,8,53.5l-10.2-.51q-40.92-2.13-81.92-5.44c-15.51-35.94-31.61-78.61-31.61-79.27s-.48-14.71-1-30.4c-.17-5.52-.37-11.21-.55-16.55h0c-.28-8.1-.54-15.4-.69-19.94,0-3.11-.17-4.94-.17-4.94s-14.77,2.58-28,4.39l-5.89.78c-3,.37-5.75.66-8.19.83a21.12,21.12,0,0,1-6.35,0c-4.54-1.75,4.88-46,4.88-46l23.45-56.75,6.55-15.8,2.87-.72c1.41-.35,3.31-.75,5.58-1.18,22.38-4.11,82.18-9.34,92.32,49.68,12.56,72.9,14.37,89.27,14.37,89.27Z"/><path class="cls-24" d="M2658.3,2053.41h0Z"/><path class="cls-23" d="M2633.39,1989.71q-40.92-2.13-81.92-5.44l-10.34-.83-4.57-.37c-12.87-31.06-24.31-61.43-24.31-62s-.49-14.71-1-30.4c-.67-19.6-1.41-41.43-1.41-41.43l-1.93.31-.8.15h-1l-4.62.77-2.53.4c-4.57.75-10.09,1.58-15.49,2.36l-1.2.17-3.17.41-2.87.34h0c-2.21.29-4.31.52-6.21.69l-2.32.2a19.89,19.89,0,0,1-6.35,0c-4.54-1.75,4.88-46,4.88-46l30-72.55,1-.29c1.58-.4,4.92-1.18,9.43-2,1.69-.29,3.56-.58,5.57-.84,26-3.33,75.57-2.38,84.74,50.86,12.55,72.9,14.36,89.27,14.36,89.27l16.76,79.25S2630.23,1969.22,2633.39,1989.71Z"/><path class="cls-5" d="M2511.22,1890.69c-.66-19.6-1.41-41.46-1.41-41.46s-28.74,5-42.12,6l2.7-9.13s49.19-13.59,50.22-5.92C2521.36,1845.55,2515,1874.11,2511.22,1890.69Z"/><path class="cls-5" d="M2512.25,1718.61v20.77s-2.44,37.35-21.64,94.5c-.4,1.24-.83,2.45-1.29,3.65a130.44,130.44,0,0,1-7.12,16c-5.41.74-10.64,1.38-14.52,1.66a20.49,20.49,0,0,1-6.35,0c-4.54-1.75,4.86-46,4.86-46l30-72.52,1.06-.29,6.52-15.83A74.22,74.22,0,0,1,2512.25,1718.61Z"/><path class="cls-17" d="M2506.68,1715.33v24.05s-2.45,37.35-21.64,94.53c-.49,1.5-1,2.88-1.58,4.4s-1.26,3.33-2,4.94c-1.58,3.82-3.36,7.53-5.23,11.09h0c-15,28.48-37.93,48.85-52.47,60.06-2.13,1.63-4.11,3.07-5.75,4.28h-.14c-2.87,2-4.94,3.36-6.26,4.19s-1.44.89-1.44.89c-13.62-8.36-52.32-9.77-52.32-9.77l-90.34,16.41a524.47,524.47,0,0,1-59.68,6.78l-10.26.49c-5.92.23-12.07.37-18.36.4-5.08,0-10.26,0-15.51-.2h0a374.37,374.37,0,0,1-50.69-4.74,255.13,255.13,0,0,1-27.35-6.06,193.78,193.78,0,0,1-18.94-6.32c-63.21-24.83-46.75-83.7-36.09-109.19.58-1.35,1.12-2.59,1.64-3.74,2.36-5.2,4.11-8.24,4.11-8.24l4.19-10.15h0l6.87-16.63,1.52-3.65.43-1.06,5.09-12.33,71.83-9.31,52.79-6.84,16.06-2.07,10.89-1.41,20.77-2.7,7.82-1a97.35,97.35,0,0,1,14.57-1.15,20.42,20.42,0,0,1,7.75,1.15c5.75,2.61,49.54-4.54,49.54-4.54s34.16-10.46,64.16-7a356.36,356.36,0,0,0,44.57.28h0l3.67-.17,4.77-.2h1C2463.58,1719,2506.68,1715.33,2506.68,1715.33Z"/><path class="cls-5" d="M2248.22,1787.51s-34.48,78.47-35.92,79.85-1.38,25.86,0,24.42,49.19-107.4,49.19-107.4Z"/><path class="cls-5" d="M2415.28,1721.14s-17.45,11.26-22.68,20.34-53,99.39-64.85,112.63a290.18,290.18,0,0,0-26.52,37.73c-1.38,2.38-1.38,17.38,7,3.07s6.29-16.72,22.67-34.48,34.48-57.89,41.49-65.91,16.75-32.1,29-46.4l23.39-27.33Z"/><path class="cls-5" d="M2419.47,1876.09s-12.21-8.36-23.7,5.92S2419.47,1876.09,2419.47,1876.09Z"/><path class="cls-5" d="M2434.47,1880.4s-10.11,17.65-15,19S2434.47,1880.4,2434.47,1880.4Z"/><path class="cls-5" d="M2419.47,1884.8s-8,14-15,12.56Z"/><path class="cls-23" d="M2363,1507.79s73.93-3.13,81.26-5.57,72.18-10.81,72.18-10.81,192.16,13.59,137.43,30-129,9.4-129,9.4-72.56,18.84-83.7,28.73-93.47,10.11-93.47,10.11Z"/><path class="cls-24" d="M2363,1507.79s73.93-3.13,81.26-5.57,72.18-10.81,72.18-10.81,192.16,13.59,137.43,30-129,9.4-129,9.4-72.56,18.84-83.7,28.73-93.47,10.11-93.47,10.11Z"/><path class="cls-15" d="M2100,1339.36s-67.66,23-34.88,81.6,75,86.2,75,86.2l108.81,75.34s45.68,26.14,66.6,15.34l34.17-2.87,5.74-89.65s-28.73,22.33-60-8.62-69.77-52-72.9-68.7S2139.41,1325.05,2100,1339.36Z"/><path class="cls-16" d="M2313.79,1529.08s35.23,12.56,33.85,13.25-33.85,12.9-33.85,12.9l2.44,47.78,47.79-2.61s17.44-87,2.44-95.74l-52.67-2.44Z"/><path class="cls-5" d="M2313.79,1529.08s35.23,12.56,33.85,13.25-33.85,12.9-33.85,12.9l2.44,47.78,47.79-2.61s17.44-87,2.44-95.74l-52.67-2.44Z"/><path class="cls-5" d="M2242.33,1271a66.75,66.75,0,0,0-11,17.07c-.44.94-.87,1.86-1.27,2.87-25.66,0-44.1-19.94-59.85-37.78-2.87-3.31-10.14,1.69-12.53-2-.26-.43-.51-.86-.8-1.29l.8-1.49c8.62-16.35,14.92-30.32,14.92-30.32s2.87.92,7.52,2.56C2201.56,1228.19,2260.66,1251.49,2242.33,1271Z"/><path class="cls-23" d="M2317,1201.61a86.5,86.5,0,0,1-85.69,86.46h-.83a86.4,86.4,0,0,1-64.88-29.31,88,88,0,0,1-7.93-10.49A86.52,86.52,0,1,1,2317,1201.61Z"/><path class="cls-5" d="M2229.05,1738s-6.57,8-13.84,15.55c-5.49,5.74-11.35,11-15.12,12.35C2191.47,1769,2152,1799,2152,1799s-31.37,21.29-39.39,27.56-37,2.44-37,2.44-27.87-6.09-45.14-17.24a112.13,112.13,0,0,1,5.75-12l18.13-44,71.83-9.28Z"/><path class="cls-16" d="M2227.65,1732.4s-6.55,8-13.82,15.54c-5.49,5.75-11.5,11-15.12,12.36-8.62,3.13-48.13,33.13-48.13,33.13s-31.4,21.29-39.42,27.55-36.95,2.45-36.95,2.45-39.77-8.62-53.73-24.43c-9.77-11,.34-31.4,7.24-42.64a84.49,84.49,0,0,1,5.32-7.93Z"/><path class="cls-16" d="M2279.28,1462.1c-23.73-2.09-101.86-97.69-101.86-97.69l1.78-2.44,16.38-22.67h38.3l4.23,20.92c29.13,40.85,46.29,69.27,50.94,85.54C2292.41,1457.59,2289.22,1463,2279.28,1462.1Z"/><path class="cls-5" d="M2279.28,1462.1c-23.73-2.09-101.86-97.69-101.86-97.69l1.78-2.44a442.43,442.43,0,0,1,39.4,41.14c57.18,67.3,68.5,48.51,70.45,42.65C2292.41,1457.59,2289.22,1463,2279.28,1462.1Z"/><path class="cls-5" d="M2227.65,1732.4s-6.55,8-13.82,15.54a39.16,39.16,0,0,1-12,2.59c-9.08-.35-30,14-30,14s-36.95-2.09-43.94,1.73-33.84,4.54-33.84,4.54c-49.17,14-62.76-7.27-66.35-14.37a84.49,84.49,0,0,1,5.32-7.93Z"/><path class="cls-12" d="M2313,1524.71a30.78,30.78,0,0,1-.43,4c-.17,1.29-.34,2.61-.54,3.85a63.08,63.08,0,0,1-6.3,20.37c-6.26,10.46-25.45,51.26-25.45,51.26l-1.3,7.53-.66,3.94-.69,3.87L2273,1647l-2.1,31.75s-11.49,16-16.38,23-4.19,17.1-2.44,24.42-16,8.36-16,8.36-25.12,12.22-34.2,11.87-30,13.91-30,13.91-36.95-2.1-43.94,1.75-33.84,4.54-33.84,4.54c-52.64,15-64.51-10.49-67-15.72s10.46-26.49,10.46-26.49,2.87-26.86,8.36-29,12.21-37.64,12.21-37.64-2.1-10.84,2.44-16.75,4.2-22.68,10.12-30.69-6.27-34.88-4.17-41.87-6.64-35.22-5.95-42.55-1.72-13.25-7.33-27.9c-4.77-12.5-3.41-68-2.87-84,0-2.7.14-4.25.14-4.25s4.89-15.72,17.79-47.1c9.77-23.76,31.75-32.75,41.84-35.68q2.6-.78,5.25-1.3a37.88,37.88,0,0,1,7.42,1.87c10.17,3.42,30.51,13.1,59.53,40.23a446.22,446.22,0,0,1,36.29,38.27c65.43,76.89,70.77,41,70.77,41s2.88,6.56,16.35,32.7C2313,1493.74,2314.31,1510.35,2313,1524.71Z"/><path class="cls-5" d="M2205.32,1335.07l-65.63-52.35s-23.64,2.88-33.41,42.59l67.55,59.16Z"/><path class="cls-16" d="M2205.32,1335.07l-11.49,16.07-11.67,16.46-8.79,12.9-53.93-45.43-9.28-8-5.2-4.43c5.25-21.46,14.59-32.18,22-37.35a27.47,27.47,0,0,1,11.5-5.14Z"/><path class="cls-23" d="M2656.64,1542.33c-54.77,16.38-129,9.42-129,9.42s-72.55,18.82-83.7,28.74c-7.18,6.29-43.87,8.62-69,9.56-13.93.52-24.36.55-24.36.55l15.31-61.86,8.85-.41c19.86-.91,66.66-3.27,72.41-5.2,7.33-2.44,72.18-10.8,72.18-10.8S2711.37,1525.92,2656.64,1542.33Z"/><path class="cls-5" d="M2312.07,1532.41a63.22,63.22,0,0,1-6.3,20.38c-6.26,10.46-25.45,51.26-25.45,51.26l-2.65,15.48a188.87,188.87,0,0,1-25.86-11.89l-108.9-75.43s-42.21-27.55-75-86.2,34.88-81.6,34.88-81.6c39.39-14.37,119.27,71.83,122.4,88.59s41.52,37.67,72.9,68.7A63.82,63.82,0,0,0,2312.07,1532.41Z"/><path class="cls-5" d="M2313,1524.71c-.26,2.73-.57,5.35-1,7.85a63.16,63.16,0,0,1-6.3,20.37c-6.26,10.46-25.45,51.26-25.45,51.26l-1.3,7.53a186.8,186.8,0,0,1-27.29-12.41l-108.82-75.46s-42.21-27.55-75-86.2S2102.8,1356,2102.8,1356c39.39-14.37,119.27,71.83,122.4,88.59s41.52,37.67,72.9,68.73A63,63,0,0,0,2313,1524.71Z"/><path class="cls-12" d="M2358.1,1526.29l-5.58,89.62-34.19,2.88a16.51,16.51,0,0,1-2.33,1c-21.78,8-64.27-16.35-64.27-16.35L2142.91,1528s-42.21-27.56-75-86.2,34.88-81.6,34.88-81.6c39.39-14.37,119.27,71.83,122.4,88.58s41.52,37.67,72.9,68.7a62.7,62.7,0,0,0,15.69,11.5A42.86,42.86,0,0,0,2358.1,1526.29Z"/><path class="cls-5" d="M2358.1,1526.29l-5.58,89.62-34.19,2.88a16.51,16.51,0,0,1-2.33,1l-2.21-43.56s32.44-12.21,33.85-12.9-33.85-13.24-33.85-13.24v-20.84A42.81,42.81,0,0,0,2358.1,1526.29Z"/><path class="cls-5" d="M2374.79,1589.91c-13.94.52-24.37.55-24.37.55l15.46-61.72,8.85-.41C2380.42,1538.13,2378,1566.92,2374.79,1589.91Z"/><path class="cls-16" d="M2316.58,1550s35.22,12.56,33.84,13.25-33.84,12.9-33.84,12.9l2.44,47.78,47.78-2.61s17.44-87,2.44-95.74l-52.66-2.45Z"/><path class="cls-5" d="M2107.69,1607.21s-11.87,11.15-21.64,14.11Z"/><path class="cls-5" d="M2079.44,1640.34s28.94-1.07,32.41-7S2079.44,1640.34,2079.44,1640.34Z"/><path class="cls-5" d="M2065.13,1681.83c1.75,0,36.61-4.89,38-9.43Z"/><path class="cls-5" d="M2054.33,1708.35c12.55-.37,33.82-14,33.82-14Z"/><path class="cls-5" d="M2135.59,1715.3s75.68,0,79.16-13.93S2135.59,1715.3,2135.59,1715.3Z"/><path class="cls-5" d="M2192.42,1520.35c1.41,0,59.65,0,65.22-8S2192.42,1520.35,2192.42,1520.35Z"/><path class="cls-5" d="M2128.29,1292a55.42,55.42,0,0,1,.74,8.62,52,52,0,0,1-.86,9.57,82.34,82.34,0,0,1-5.4,17.44l-.6,1.41c-.86,2-1.78,4-2.73,5.92a162.61,162.61,0,0,1-15.06,24.83,271.5,271.5,0,0,1-45.17,47q-4.39,3.71-8.88,7.32c0-2.7.15-4.25.15-4.25s4.88-15.72,17.78-47.09C2078,1339,2100,1330,2110.1,1327l-5.2-4.43c5.26-21.46,14.59-32.18,22-37.35C2127.4,1287.38,2127.94,1289.62,2128.29,1292Z"/><path class="cls-5" d="M2304.39,1156.7a10.35,10.35,0,0,0-2.52,1c-5.46,3-7,10.18-11.5,14.69-5.14,5.31-13.19,6.12-20.51,7s-15.52,2.73-19.4,9c-2.87,4.68-2.61,10.57-3.65,16a5.11,5.11,0,0,1-1.12,2.65,5.17,5.17,0,0,1-3.5,1.15c-14.37,1-24.83-3.94-38.28-7.42-6.32-1.61-13.67-1.4-18.5,2.88-4.37,3.93-5.58,10.37-5.46,16.26v.52a111.52,111.52,0,0,1,.52,17.24,28.48,28.48,0,0,1-15,21.06,26.53,26.53,0,0,1-10.86,3.1,8.71,8.71,0,0,1-4.31-.63c2.56-4.37,5-8.62,7.24-13a86.52,86.52,0,0,1,145.29-94c.5.78,1,1.57,1.48,2.37Z"/><path class="cls-17" d="M2328.07,1145.66a14.51,14.51,0,0,1-4.8,5.89c-6.55,4.26-15.95-.43-22.78,3.37-5.49,3-7,10.17-11.5,14.68-5.11,5.31-13.16,6.12-20.51,7s-15.49,2.73-19.4,9c-2.87,4.68-2.58,10.55-3.65,16a4.88,4.88,0,0,1-1.12,2.64,5.28,5.28,0,0,1-3.5,1.15c-14.37,1-24.83-4-38.28-7.41-6.29-1.61-13.64-1.41-18.47,2.87s-5.58,10.4-5.49,16.29a126.06,126.06,0,0,1,.55,17.7,28.75,28.75,0,0,1-25.86,24.17,7.13,7.13,0,0,1-5.32-1.35,7.65,7.65,0,0,1-1.75-3.16c-9.57-26.9-9.48-56.75-21.09-82.84a93.65,93.65,0,0,1-4.86-11.5c-.23-.8-.46-1.63-.63-2.47a38.74,38.74,0,0,1-.69-5,7.3,7.3,0,0,0-3.28,1.35,6,6,0,0,0-.91,1,17,17,0,0,0-2.42,9.11,345,345,0,0,0,10.35,106.8,112.14,112.14,0,0,1,5,26.81,71.61,71.61,0,0,1-6.9,28.42c-18,41.55-54.22,72-90.22,99.47A40,40,0,0,0,2041.2,1396a11.74,11.74,0,0,1-9.11,8.16,35.14,35.14,0,0,1-12.85-.2c5.52-1.81,7.68-8.3,9.06-13.94q4.21-17.24,7.84-34.79a219.94,219.94,0,0,0,5.06-34c.43-9.71-.32-19.45-.72-29.19a592.3,592.3,0,0,1,2.87-80c2.13-23,6-47.84,22.84-63.53a99.64,99.64,0,0,1,24.14-15.06c0-2.87,21.06-8.62,23.85-9a23,23,0,0,1,3.5-.4,7.2,7.2,0,0,1,7.5,3.94c1-1.87,2.19-3.71,3.39-5.46a63.54,63.54,0,0,1,5.46-6.87c10.95-12.07,25.15-20.57,37.82-30.8a97.14,97.14,0,0,1,15.05-11.09,54.19,54.19,0,0,1,22.56-5.75,91.42,91.42,0,0,1,38.07,6c17.47,6.72,32.73,18.79,50.8,23.67a122.61,122.61,0,0,1,13.19,3.65,31.94,31.94,0,0,1,17.95,41.47,30.16,30.16,0,0,1-1.29,2.84Z"/><g class="cls-18"><path d="M2037.09,1403a39.7,39.7,0,0,0,2.61-17,11.78,11.78,0,0,1-9.13,8.16,18.8,18.8,0,0,1-3.34.48c-1.43,4.6-3.7,9-8.1,10.46a34.87,34.87,0,0,0,12.84.23A14.45,14.45,0,0,0,2037.09,1403Z"/><path d="M2330.14,1122.76a32.09,32.09,0,0,1-3.45,13,14.79,14.79,0,0,1-4.83,5.75c-6.52,4.25-15.94-.41-22.78,3.36-5.46,3-7,10.2-11.5,14.68-5.14,5.32-13.18,6.15-20.51,7s-15.52,2.87-19.4,9c-2.87,4.69-2.61,10.58-3.65,16a4,4,0,0,1-4.17,3.86,3.42,3.42,0,0,1-.45,0c-14.37,1-24.83-4-38.27-7.44-6.33-1.61-13.68-1.41-18.51,2.87-4.37,4-5.57,10.37-5.46,16.29a121.25,121.25,0,0,1,.52,17.67,28.58,28.58,0,0,1-25.86,24.2,7.23,7.23,0,0,1-5.32-1.35,7.76,7.76,0,0,1-1.75-3.19c-9.57-26.9-9.51-56.75-21.12-82.81a101.56,101.56,0,0,1-4.82-11.5,33.49,33.49,0,0,1-1.36-7.49,6.31,6.31,0,0,0-4.19,2.32,17.56,17.56,0,0,0-2.41,9.11,346.48,346.48,0,0,0,2.87,69,347.38,347.38,0,0,1-1.41-57.87,17,17,0,0,1,2.42-9.11,6,6,0,0,1,4.19-2.32,34.19,34.19,0,0,0,1.32,7.5,99.87,99.87,0,0,0,4.86,11.49c11.49,26.09,11.49,55.91,21.09,82.81a8,8,0,0,0,1.78,3.19,7,7,0,0,0,5.29,1.58,28.75,28.75,0,0,0,25.86-24.17,126.06,126.06,0,0,0-.55-17.7c0-5.92,1.12-12.32,5.49-16.29,4.83-4.37,12.18-4.54,18.47-2.87,13.45,3.45,23.85,8.42,38.28,7.41a5.22,5.22,0,0,0,3.5-1.15,5,5,0,0,0,1.12-2.67c1.07-5.4.75-11.29,3.65-16,3.91-6.29,12.07-8.13,19.4-9s15.4-1.69,20.54-7c4.34-4.51,5.89-11.66,11.49-14.71,6.81-3.76,16.24.92,22.79-3.33a14.65,14.65,0,0,0,4.8-5.89A32.6,32.6,0,0,0,2330.14,1122.76Z"/><path d="M2126.25,1288a72,72,0,0,1-6.87,28.42c-16.12,37.15-46.81,65.42-78.84,90.62a40.32,40.32,0,0,1-10,20.12c36-27.47,72.23-57.9,90.22-99.45a71.78,71.78,0,0,0,6.9-28.42,63.22,63.22,0,0,0-1.47-12.49C2126.22,1287,2126.25,1287.49,2126.25,1288Z"/></g><path class="cls-5" d="M2129.84,1122.45c-2.59,11.89-6.15,27.35-8.82,35.31a42.53,42.53,0,0,1-.69-5,7.14,7.14,0,0,0-3.25,1.35c0-8.36,1-20.8,1.87-30.11a7.25,7.25,0,0,1,7.53,3.94A49.25,49.25,0,0,1,2129.84,1122.45Z"/><path class="cls-16" d="M2128.46,1122.45c-2.59,11.89-6.15,27.35-8.82,35.31a38.74,38.74,0,0,1-.69-5,7.3,7.3,0,0,0-3.28,1.35c0-8.36,1-20.8,1.9-30.11a7.21,7.21,0,0,1,7.5,3.94C2126.1,1126.07,2127.4,1124.23,2128.46,1122.45Z"/><g class="cls-25"><path id="_88e22766-bb2e-4d8a-8c4e-873561c02ed1-301" data-name="88e22766-bb2e-4d8a-8c4e-873561c02ed1-301" class="cls-26" d="M1605.68,643.46l175.09,342.67L1486.5,643.46Z"/><path id="dcb2c17a-6570-4f03-a416-11c2a206e419-302" class="cls-26" d="M1955.89,643.46,1780.8,986.13l294.27-342.67Z"/><path id="d2c5ae9b-dccc-4d4c-8aa0-840002be2480-303" class="cls-27" d="M1605.68,643.46h350.15L1780.77,986.13Z"/><path id="_616bf47a-f8e5-41ce-b525-03b6ad416eda-304" data-name="616bf47a-f8e5-41ce-b525-03b6ad416eda-304" class="cls-28" d="M1780.77,453.56l-165.88,17.53-9.28,172.37Z"/><path id="ca73b31d-b223-4f6c-ac2e-edd2597912ec-305" class="cls-28" d="M1780.77,453.56l165.84,17.53,9.28,172.37Z"/><path id="_2a7c7013-4804-45aa-950a-2b5376f70ef0-306" data-name="2a7c7013-4804-45aa-950a-2b5376f70ef0-306" class="cls-27" d="M2075.07,643.46l-128.4-172.37L1956,643.46Z"/><path id="_5dac32ab-c712-4de9-a97f-2e05661e9f0b-307" data-name="5dac32ab-c712-4de9-a97f-2e05661e9f0b-307" class="cls-27" d="M1486.5,643.46l128.39-172.37-9.28,172.37Z"/><path id="_2d1bbfda-86f6-4da7-9bb0-15ddbbfa97e7-308" data-name="2d1bbfda-86f6-4da7-9bb0-15ddbbfa97e7-308" class="cls-29" d="M1780.77,453.56l-175.09,189.9h350.15Z"/></g></g></g></svg>