<svg xmlns="http://www.w3.org/2000/svg" viewBox="0 0 3685.75 2266.95"><defs><style>.cls-1,.cls-4{fill:#f9a826;}.cls-1,.cls-5{opacity:0.1;}.cls-1,.cls-5,.cls-9{isolation:isolate;}.cls-2,.cls-9{opacity:0.2;}.cls-3{fill:#3f3d56;}.cls-6{fill:#f1c0c0;}.cls-7{fill:#be6f72;}.cls-8{fill:#be8028;}.cls-10{fill:#fbbebe;}</style></defs><title>Execution</title><g id="Layer_2" data-name="Layer 2"><g id="Layer_1-2" data-name="Layer 1"><path class="cls-1" d="M3685.75,1456.07a755.42,755.42,0,0,1-22.13,182.25q-7.44,30.14-17.3,59a697.58,697.58,0,0,1-27.91,69.85q-8,17.27-16.87,33.86a455.51,455.51,0,0,1-38.08,183,471.88,471.88,0,0,1-229,235.94A481.76,481.76,0,0,1,3130,2267H699.73a612.37,612.37,0,0,1-308-82.33l-1.44-.81q-20-11.71-39-24.79a611.23,611.23,0,0,1-80-66,595.64,595.64,0,0,1-88-109,581.65,581.65,0,0,1-89.46-310.52C34.58,1569.5,0,1444.87,0,1310.93c0-169,55-323.12,145.23-439.81a617.42,617.42,0,0,1,61.68-68.62,573.27,573.27,0,0,1,70.53-57.74A548.06,548.06,0,0,1,340,707.21c9.05-4.6,18.12-9,27.35-13q12.17-5.38,24.6-10.1,14.92-5.67,30.23-10.42t30.19-8.33q21.92-5.36,44.56-8.7c12.52-1.84,25-3.13,37.56-4.1,10-.75,20-1.15,30.1-1.28h5.48c11.14,0,22.21.44,33.2,1.19,1.15-2.32,2.41-4.66,3.56-7,4.38-8.35,8.92-16.68,13.49-24.81a.81.81,0,0,1,0-.22q1.17-2.16,2.38-4.23c3.69-6.66,7.54-13.26,11.48-19.8,1.82-3.13,3.6-6.07,5.45-9a23.85,23.85,0,0,1,1.28-2.12q2.82-4.7,5.73-9.39,14.49-23.16,30.13-45.5l2.66-3.82c1.63-2.31,3.13-4.57,4.95-6.88,4.31-6,8.76-12.11,13.23-18.06,3.13-4.25,6.26-8.48,9.64-12.52q12.21-15.65,25-31.29T759,427c1.25-1.41,2.5-2.79,3.81-4.17l13.37-14.58h0c.65-.69,1.22-1.31,1.84-1.94h0c1.6-1.72,3.13-3.44,4.85-5.1,7.17-7.6,14.52-15.05,21.91-22.47A1192.08,1192.08,0,0,1,924.6,274.31c1.66-1.31,3.35-2.57,5-3.82,7.95-6,16-11.89,24.1-17.71a1268.54,1268.54,0,0,1,139-86.68c3.32-1.91,6.7-3.69,10.11-5.44a1324.51,1324.51,0,0,1,133-61.21c24.75-9.8,50.07-19,75.54-27.41,17-5.57,34-10.86,51.22-15.84q40.44-11.64,81.43-20.87A1450.22,1450.22,0,0,1,1688.76,2q37.54-1.9,75.94-2a1455.44,1455.44,0,0,1,366.13,46.31,13.19,13.19,0,0,0,11.36,5.92h10.51c4.57,1.25,9.11,2.5,13.67,3.82q38.28,11,75.45,24.06l6.26,2.25a1347.38,1347.38,0,0,1,178.08,78.23,1284.14,1284.14,0,0,1,149.11,92.13q11,7.89,21.66,15.9,12.95-8.3,26.34-15.9a518.4,518.4,0,0,1,109.15-46.53,497.87,497.87,0,0,1,244.83-9.58c104.05,22.06,198.24,76.82,274.31,154.71a639.79,639.79,0,0,1,82.27,104.46c1.72,2.69,3.44,5.41,5.1,8.16a689.16,689.16,0,0,1,52.39,104.43c.53,1.34,1.06,2.59,1.53,3.91a723.16,723.16,0,0,1,32.23,104.36c.38,1.81.81,3.6,1.19,5.41a752.25,752.25,0,0,1,15.4,104.42,20.19,20.19,0,0,0,.25,3.85q2,27.25,2,55.08,0,24.87-1.6,49.38c0,1.78-.25,3.63-.4,5.47-.29,4.73-.69,9.39-1.1,14.15a594,594,0,0,1,66.9,63.11q13.68,14.94,26.48,31a658.69,658.69,0,0,1,68.21,104.43C3655.33,1212.8,3685.75,1330.3,3685.75,1456.07Z"/><g class="cls-2"><path class="cls-3" d="M2128.82,2077.91a59.5,59.5,0,0,1-1.15,10.05q-32.67-5.21-65.72-9.39v-2.69a53,53,0,0,1,7.82-26.54c6.45-10.2,16.25-16.58,27-16.24s20.15,7.32,25.94,17.87A52.69,52.69,0,0,1,2128.82,2077.91Z"/><ellipse class="cls-3" cx="2097.15" cy="2023.38" rx="43.84" ry="33.48" transform="translate(8.54 4055.58) rotate(-88.19)"/><ellipse class="cls-3" cx="2098.86" cy="1969.81" rx="43.84" ry="33.48" transform="translate(63.74 4005.41) rotate(-88.19)"/><ellipse class="cls-3" cx="2100.54" cy="1916.23" rx="43.84" ry="33.48" transform="translate(118.92 3955.2) rotate(-88.19)"/><ellipse class="cls-3" cx="2102.21" cy="1862.66" rx="43.84" ry="33.48" transform="translate(174.09 3904.99) rotate(-88.19)"/><path class="cls-4" d="M1988.32,1492a154.67,154.67,0,0,1-11.89-18.77l88.43-11.67-95.19-2.29a160.76,160.76,0,0,1,1-127.17l125.55,70.25-115-90.25a160.47,160.47,0,1,1,259.22,187.76,158.68,158.68,0,0,1,17.37,29.82l-116.06,55.7,123.07-37a160.63,160.63,0,0,1-30.73,149.92,160.47,160.47,0,1,1-252.09-8,160.46,160.46,0,0,1,6.26-198.33Z"/><path class="cls-5" d="M2271.61,1600.2a159.57,159.57,0,0,1-37.55,98.07,160.47,160.47,0,1,1-252.09-8C1961.41,1662.38,2272.17,1582.21,2271.61,1600.2Z"/></g><g class="cls-2"><path class="cls-3" d="M1653.18,2077.91A59.52,59.52,0,0,1,1652,2088q-32.67-5.21-65.71-9.39v-2.69a52.78,52.78,0,0,1,7.82-26.54c6.45-10.2,16.24-16.58,27-16.24s20.15,7.32,25.94,17.87A52.79,52.79,0,0,1,1653.18,2077.91Z"/><ellipse class="cls-3" cx="1621.48" cy="2023.39" rx="43.84" ry="33.48" transform="matrix(0.03, -1, 1, 0.03, -452.12, 3580.15)"/><ellipse class="cls-3" cx="1623.18" cy="1969.82" rx="43.84" ry="33.48" transform="translate(-396.92 3529.98) rotate(-88.19)"/><ellipse class="cls-3" cx="1624.86" cy="1916.25" rx="43.84" ry="33.48" transform="translate(-341.75 3479.77) rotate(-88.19)"/><ellipse class="cls-3" cx="1626.53" cy="1862.67" rx="43.84" ry="33.48" transform="translate(-286.58 3429.56) rotate(-88.19)"/><path class="cls-4" d="M1512.68,1492a154.75,154.75,0,0,1-11.9-18.77l88.44-11.67-95.19-2.29a160.76,160.76,0,0,1,1-127.17l125.54,70.25-115-90.25a160.47,160.47,0,1,1,259.23,187.76,159.18,159.18,0,0,1,17.36,29.82l-116.06,55.7,123.07-37a160.63,160.63,0,0,1-30.73,149.92,160.46,160.46,0,1,1-252.09-8,160.48,160.48,0,0,1,6.26-198.33Z"/><path class="cls-5" d="M1796,1600.2a159.58,159.58,0,0,1-37.56,98.07,160.46,160.46,0,1,1-252.09-8C1485.76,1662.38,1796.53,1582.21,1796,1600.2Z"/></g><g class="cls-2"><path class="cls-3" d="M2952.44,2112.15a117,117,0,0,1-2.28,19q-62.91-10.05-126.71-18v-5.16a101.73,101.73,0,0,1,15.09-51.1c12.51-19.62,31.29-31.92,52-31.3s38.81,14.12,50.07,34.43A101.73,101.73,0,0,1,2952.44,2112.15Z"/><ellipse class="cls-3" cx="2891.38" cy="2007.08" rx="84.43" ry="64.49" transform="translate(793.98 4833.63) rotate(-88.19)"/><ellipse class="cls-3" cx="2894.64" cy="1903.94" rx="84.43" ry="64.49" transform="matrix(0.03, -1, 1, 0.03, 900.22, 4737)"/><ellipse class="cls-3" cx="2897.92" cy="1800.8" rx="84.43" ry="64.49" transform="matrix(0.03, -1, 1, 0.03, 1006.48, 4640.4)"/><ellipse class="cls-3" cx="2897.47" cy="1693.07" rx="84.46" ry="64.52" transform="translate(1118.28 4538.47) rotate(-88.28)"/><path class="cls-4" d="M2681.92,984.18A310.12,310.12,0,0,1,2659,948.1l170.23-22.47-183.21-4.41a309.47,309.47,0,0,1,1.81-244.83L2889.6,811.6,2668.24,637.87c90-144.94,280.48-189.45,425.41-99.43s189.45,280.48,99.43,425.41a307.64,307.64,0,0,1-25.82,35.63,308.18,308.18,0,0,1,33.45,57.42l-223.46,107.3,236.92-71.34a309,309,0,0,1-58.92,288.36c101.21,137.35,71.91,330.74-65.44,432s-330.74,71.91-431.95-65.44a308.92,308.92,0,0,1,12-381.81,309,309,0,0,1,12-381.77Z"/><path class="cls-5" d="M3227.34,1192.46a307.7,307.7,0,0,1-72,188.82c101.21,137.35,71.92,330.74-65.43,432s-330.74,71.91-432-65.44A308.91,308.91,0,0,1,2670,1366C2630.16,1312.12,3228.44,1157.82,3227.34,1192.46Z"/></g><polygon class="cls-6" points="493.92 2117.65 526.75 2117.56 573.03 2117.56 631.54 1166.96 1211.05 199.93 1185.86 172.89 1185.86 104.42 559.13 1144.55 493.92 2117.65"/><polygon class="cls-5" points="530.25 2117.56 573.03 2117.56 631.54 1166.96 1211.05 199.93 1185.86 172.89 588.11 1152.47 530.25 2117.56"/><polygon class="cls-6" points="397.19 2125.57 1898.76 2240.48 1900.04 2240.57 3353.23 2151.2 3354.33 2151.14 3354.33 2089.77 1753.1 2060.39 417.19 2059.11 407.43 2059.11 406.36 2065.99 397.19 2125.57"/><polygon class="cls-5" points="397.19 2125.57 1898.76 2240.48 1900.04 2240.57 3353.23 2151.2 3354.33 2150.01 3354.33 2091.05 3353.05 2091.05 1898.76 2139.62 417.19 2059.11 416.97 2059.11 414.34 2060.83 406.36 2065.99 397.19 2125.57"/><polygon class="cls-5" points="397.19 2125.57 1898.76 2240.48 1898.76 2139.62 414.34 2060.83 406.36 2065.99 397.19 2125.57"/><polygon class="cls-6" points="1185.67 171.61 1847.66 882.13 1827.2 2131.95 1883.43 2138.74 1884.37 2138.87 1940.6 2138.87 1947.33 935.8 3186.91 1349.86 3207.82 2087.11 3253.07 2092.18 3268.4 2093.9 3232.91 1298.73 1937.1 843.8 1226.57 105.14 1185.67 105.14 1185.67 171.61"/><polygon class="cls-5" points="1942.23 912.8 1947.33 935.8 3186.91 1349.86 3207.82 2087.11 3253.07 2092.18 3217.58 1334.53 1942.23 912.8"/><polygon class="cls-5" points="1185.67 171.61 1847.66 882.13 1827.2 2131.95 1883.43 2138.74 1898.76 841.24 1185.67 105.14 1185.67 171.61"/><polygon class="cls-6" points="1944.64 1414.39 2399.28 1503.91 2399.44 1503.95 3195.74 1660.82 3232.19 1646.2 3232.07 1643.64 3229.69 1592.79 1945.11 1333.21 1944.64 1414.39"/><polygon class="cls-5" points="2399.44 1503.95 3195.74 1660.82 3232.19 1646.2 3232.07 1643.64 2399.44 1503.95"/><polygon class="cls-6" points="2429.89 1096.99 2442.19 1773.97 2448.54 2121.28 2504.52 2119.41 2539.76 2118.22 2528.8 1106.78 2504.52 1098.71 2499.2 1096.99 2429.89 1096.99"/><polygon class="cls-5" points="2430.39 1096.83 2430.39 1096.99 2442.19 1773.97 2448.54 2121.28 2504.52 2119.41 2504.52 1096.83 2430.39 1096.83"/><path class="cls-3" d="M1553,1269.88a71.17,71.17,0,0,1,9.39,6.1,62.46,62.46,0,0,1,9.39,10.3c13.42,17.36,25.81,37.55,24.5,59.45a24.23,24.23,0,0,1-7,17.21c-5.54,4.73-13.49,5-20.75,5-7.88,0-16.18,0-23-4.07s-12.51-12-20.59-11.8a10.45,10.45,0,0,1-3.44,0c-2.79-.91-3.35-4.57-5.16-6.88-3.13-4.16-9.74-3.13-14.65-1.32s-10.36,4.54-15.21,2.44a15.79,15.79,0,0,1-6.6-6.6c-11.61-18.77-14.08-41.34-16.27-63.15-1.35-13.26-11.61-58.51,16.71-48.22,12.52,4.51,24.22,13.52,35.61,20.12Z"/><path class="cls-3" d="M1525,1274.35a14,14,0,0,0,17.18-.68,26,26,0,0,0,8.36-16.21c3.13-1,4.72,3.13,6.73,5.63,3.5,4.25,10.64,4.19,13.83,8.73,2.22,3.13,1.72,7.48,3.28,11,2,4.57,7.08,7,10.52,10.64a36.18,36.18,0,0,1,6.88,13.74l5.13,15.4a75.87,75.87,0,0,1,4.7,19.93,25.84,25.84,0,0,1-5.95,19.06c-6.88,7.41-18.18,8.2-28.16,8a36.28,36.28,0,0,1-9.89-1.16c-8.85-2.75-14.52-11.67-16.87-20.65s-2.09-18.4-3.47-27.6a108.26,108.26,0,0,0-7.82-26.23c-2.76-6.51-10.33-16.21-10.2-23.12C1521.5,1270.82,1523.13,1272.88,1525,1274.35Z"/><path class="cls-7" d="M1536.24,1242.65a51.77,51.77,0,0,1-2.54-13.73c0-9.39,4.29-18.22,8.61-26.6l-35.77,4.85c-4.32.59-9.14,1.47-11.58,5.07a12.53,12.53,0,0,0,0,11.55,58.72,58.72,0,0,1,4.26,11.17,55.57,55.57,0,0,0,1.16,10,21.15,21.15,0,0,0,4.6,6.48c10.23,11.33,17.9,24.69,25.53,37.93-.22-.38,21.56-17.25,20.69-22.75-.5-3.13-6.79-6.89-8.8-9.89A50.5,50.5,0,0,1,1536.24,1242.65Z"/><polygon class="cls-6" points="1842.9 1120.39 1842.9 1151.22 1315.1 1254.17 1287.71 1270.76 1193.24 1270.76 1193.24 1253.39 1711.82 1128.09 1842.9 1120.39"/><polygon class="cls-5" points="1842.9 1151.22 1315.1 1254.17 1287.71 1270.76 1193.24 1270.76 1715.67 1158.95 1842.9 1151.22"/><path class="cls-8" d="M1419.14,1995.39a40.9,40.9,0,0,0-49.75-10.57,13.14,13.14,0,0,0-4.57,3.56c-3.13,4.39-1.13,10.42-.85,15.84.72,13.2-9.79,23.94-19.24,33.17-5.07,4.94-10.23,10.23-12.52,17s-.59,15.27,5.54,18.77a23,23,0,0,0,8.58,2.38,92.59,92.59,0,0,0,30.35.85c10-1.91,19.78-7.58,24.09-16.78a17.82,17.82,0,0,1,4-6.66c5.51-4.35,14,.75,20.22-2.35,5.16-2.56,5.38-6.6,5.44-11.92C1430.66,2023.93,1428.47,2007.28,1419.14,1995.39Z"/><path class="cls-8" d="M1494.24,1994.83c3.85,10.14,4.39,21.19,4.89,32,.28,6.26.47,13-2.91,18.25s-10,8.07-16.31,9.38c-13.05,2.69-28.16.16-36.58-10.2-6.44-7.91-7.79-18.77-6.6-29,1-8.41,3.13-18.27-2.91-24.25-1.57-1.59-3.6-2.72-5-4.44-3.13-3.82-2.63-9.58-.94-14.27a62,62,0,0,0,4.91-14.11c.26-2.32,42.37,1.62,46.26,3.53,5.28,2.6,4.47,7,6.07,12.21C1487.3,1981.22,1491.55,1987.82,1494.24,1994.83Z"/><path class="cls-3" d="M1502,1545.28c8.26,5.35,11.46,15.87,12.74,25.63,3.54,26.76-2.66,53.79-3.13,80.8-.44,37.83,10.51,76.35,1.16,113-5.6,21.9-.85,46.93-6.1,69.06-1.57,6.57-4.45,12.77-6,19.34-3.13,14.24.16,29.13,4.57,43.06a44.45,44.45,0,0,1,2.66,11.67,42,42,0,0,1-4.57,17.65l-18.78,44.4c-2.09,5-10.35,5.79-15.64,6.45-10,1.19-21.06,2-29-4.13s-9.82-16.5-11-26.13a398.83,398.83,0,0,1-3.13-55.8,45.93,45.93,0,0,0-1.29-14.49c-1.72-5.35-5.5-10-6.54-15.64-1.31-7.32,2.41-14.52,3.79-21.91a66.19,66.19,0,0,0-.31-20.31c-1.22-10-2.63-20-4.23-30-2.25-13.93,1-27.67,3.13-41.62,2-13.11-.56-26.48-3.13-39.49a108.81,108.81,0,0,1-3.91,31.29c-1.66,5-4,9.73-5.48,14.8-6.41,22.75,7.26,46.63,5.32,70.19-.9,11-5.22,21.9-4,32.76.84,7.95,4.54,15.24,7.07,22.81s3.85,16.24,0,23.32c-10.17,19.21-2.57,45.34,6.54,65a88,88,0,0,1,4.82,10.83c2.69,8.89.44,18.43,1.16,27.69a17.45,17.45,0,0,1-14.68-4.41c-1.38-1.44-2.5-3.13-3.85-4.63a38.34,38.34,0,0,0-13.08-8.17,17.08,17.08,0,0,0-9.39-2.15,18.8,18.8,0,0,0-8.91,5.53,86.91,86.91,0,0,1-9.83,7.48,11.57,11.57,0,0,1-5,2.22,4.42,4.42,0,0,1-4.6-2.34,5.64,5.64,0,0,1-.34-1.63,248.79,248.79,0,0,1-1.85-28.48c0-16.36-19.59-27.63-22.06-43.81-2-13,1.69-26.34.47-39.49-.59-6.76-2.47-13.39-2.35-20.15,0-4.38,1-8.67,1.35-13a97.22,97.22,0,0,0-.22-14.48l-1-15.12c-.94-14.93-2-30.16-7.85-43.81a148.82,148.82,0,0,1-12.21-50.32c-.62-11-.22-21.9-1.47-32.88-1.12-9.92-3.63-19.78-2.91-29.73.6-7.7,3.13-15.15,3.73-22.85,1.22-14.8-4.42-29.19-8.83-43.37s-7.67-29.88-1.88-43.56a14.41,14.41,0,0,1,4-5.82,17.38,17.38,0,0,1,7.38-2.75,572.86,572.86,0,0,1,163.41-10.42A54.18,54.18,0,0,1,1502,1545.28Z"/><circle class="cls-7" cx="1324.33" cy="1162.8" r="50.13"/><path class="cls-7" d="M1314.63,1225.41a17.91,17.91,0,0,1,0,8.73,19.61,19.61,0,0,1-3.29,5.51,141.16,141.16,0,0,1-16,17.46,29,29,0,0,0,15,14.8,87,87,0,0,0,20.68,5.92,21.68,21.68,0,0,0,20.28-3.51l27.85-16.68a55.63,55.63,0,0,0,11.58-8.35,28.53,28.53,0,0,0,8.07-19.59,5.39,5.39,0,0,0-1-3.69,6.61,6.61,0,0,0-3.82-1.6c-9.79-2.16-17.52-10.11-21.9-19.12a101.22,101.22,0,0,1-7.61-29l-29.69,15.65c-4.42,2.35-8.8,4.69-13.37,6.73-2.91,1.31-8.79,2.41-10.85,5.07C1306.55,1208.64,1313.59,1219.5,1314.63,1225.41Z"/><path class="cls-3" d="M1295.47,1248a33,33,0,0,0-9.6,13c-1.94,6.26,0,12.86,1.75,19.06a569.41,569.41,0,0,1,18.78,80.7c2.62,18.78,3.59,37.83,4.88,56.83,2.63,38.74,6.44,100.51,11.54,139,18.78.84,37.09-4.63,55.7-6.63,34.8-3.7,70.63,4.75,104.71-3.13-8.26-32.64-16.52-88.37-24.78-121a231.22,231.22,0,0,1-7.58-39.27c-.72-9.55-.28-19.12-.15-28.73.28-18.77-.75-37.55-1.79-56.32-1.19-21.91-2.38-43.81-7.57-65.25a12.14,12.14,0,0,0-3.63-7.17c-3.13-2.28-7.2-1.47-10.92-1a47.49,47.49,0,0,1-32.48-7.69c-4.13-2.82-9.67-6.26-13.52-3.13a13.44,13.44,0,0,0-3.13,6.66,33.33,33.33,0,0,1-19.59,19.31,98.16,98.16,0,0,1-27.72,5.7,13.65,13.65,0,0,1-8.61-1c-4.44-2.73-4.76-12.52-10.36-13.18C1306.49,1234.27,1298.79,1244.85,1295.47,1248Z"/><path class="cls-8" d="M1369.51,1324.42c-11.54-11-16.61-27.07-25-40.68a90.63,90.63,0,0,0-21.62-23.78,64.94,64.94,0,0,1-11.77-10c-3-3.66-5.23-8.55-9.73-10a11.74,11.74,0,0,0-10.55,2.91,100.83,100.83,0,0,0-7.82,8.32c-13.27,13.74-36.58,15.65-47.1,31.54a25.94,25.94,0,0,0-5.6,11.74,91,91,0,0,0,16.71,65.4,22.3,22.3,0,0,0,11.58,9.39,36.35,36.35,0,0,0,2.25,17.21,462.42,462.42,0,0,0,21.31,58,141.08,141.08,0,0,0-4.19,22.5c-2.19,19.12-.16,38.52-2.22,57.68-1.69,15.64-6.26,30.88-6.42,46.56,0,2.5.22,5.47,2.38,6.76a7.2,7.2,0,0,0,3.73.78l38.49,1.16c22.34.66,44.9,1.31,66.9-2.82a27.75,27.75,0,0,0,8.42-2.66c7.44-4.16,9.92-13.55,11.11-21.9a190.62,190.62,0,0,0,1.84-32.73c4.66,14.73,10.2,30,24.29,36.36,7.44,3.38,16,3.13,24.12,2.91a453.62,453.62,0,0,0,52.54-5.42,6.92,6.92,0,0,0,7.72-6,7.27,7.27,0,0,0,0-2l.19-17.08c.37-34.71-8.23-67.88-11.58-102.42-1.07-10.89-1-21.91-3.63-32.58-1.1-4.47-2.69-8.86-3.66-13.36a95.28,95.28,0,0,1-1.57-13.36l-2.44-34.43c-1.16-15.92-2.82-31.29-4-47.18a228.63,228.63,0,0,0-6.69-45.88c-2.72-9.39-8.39-20-18.18-21.18-5.23-.6-10.3,1.69-15.27,3.28a61.72,61.72,0,0,1-37.55-.15,52.75,52.75,0,0,0-11.71-3.13,11.48,11.48,0,0,0-10.7,4.44,16.06,16.06,0,0,0-1.66,7.89C1380.84,1261.84,1378.12,1294,1369.51,1324.42Z"/><path class="cls-3" d="M1319.16,1325.36c-14.42-15.21-29.22-30.7-47.81-40.37-7.32-3.81-15.65-6.69-23.75-5.25s-15.65,8.48-15.27,16.71c.25,5.1,3.35,9.6,4.32,14.61,1.12,5.63-.51,11.64,1.25,17.09a28.83,28.83,0,0,0,6.26,9.6l22.15,26.26c9.39,11,18.78,22.06,30.85,29.63s27.73,11.11,41,5.73a50.4,50.4,0,0,0,22.47-20.62c5.5-8.77,9.38-18.34,14.55-27.39a135.79,135.79,0,0,1,31.29-37.95c-6.51-1.69-14.68-4.07-18.78-9.39a31.69,31.69,0,0,1-3-5.38l-5.07-11a12.52,12.52,0,0,0-9.39,3.54,77.86,77.86,0,0,1-7,7.1c-4.42,3.32-10.39,4.23-14.4,8a38.53,38.53,0,0,0-4.19,5.26A35.09,35.09,0,0,1,1319.16,1325.36Z"/><path class="cls-7" d="M1407.63,1259.93c10.86-19.81,10.35-43.56,13.45-65.94a30.16,30.16,0,0,1,6-16.36c6.26-7.07,17.3-7.17,26.75-6.26,2.79.31,6.26,1.63,6.11,4.41a5.64,5.64,0,0,1-1.41,2.66,74.43,74.43,0,0,0-15.46,41.06c4.91,3.41,12.52-3.6,17.24,0,3.13,2.63,1.69,7.82-.19,11.58q-6.54,13.05-13.48,25.91a83.44,83.44,0,0,1-14.3,20.62c-4,3.82-8.64,6.82-12.68,10.58-9.38,8.79-15.05,21.21-24.75,29.79a5.09,5.09,0,0,1-3.13,1.59,5.25,5.25,0,0,1-3.28-1.47,47.31,47.31,0,0,1-11.83-14.3c-3.7-6.82-3.13-8.82,2.69-13.64C1390.23,1281.55,1400.84,1272.32,1407.63,1259.93Z"/><path class="cls-8" d="M1301,1311.9c1.88,1.16,4.2,2.48,6.26,1.51a6.5,6.5,0,0,0,2.1-2,73.51,73.51,0,0,0,8.89-15.46,5.88,5.88,0,0,0,.65-2.5c0-2-1.78-3.47-3.44-4.63a128.11,128.11,0,0,0-28.44-13.52c-8.27-3.13-16.9-5.85-25.66-5.07a24.47,24.47,0,0,0-17.12,8.7c-6.26,8,4.22,10.48,10.8,13.39C1270.25,1299.2,1286.71,1303.21,1301,1311.9Z"/><path class="cls-5" d="M1291.16,1365.1a4.58,4.58,0,0,0,1.31,3.94c.91-4.44-.28-9.13.66-13.61,1.37-6.73,7.91-11.79,8.48-18.55C1289.62,1334.53,1291.25,1357.84,1291.16,1365.1Z"/><polygon class="cls-9" points="1842.9 1120.39 1842.9 1151.22 1715.67 1158.95 1711.82 1128.09 1842.9 1120.39"/><path class="cls-3" d="M1279.2,1170.24c8-6.47,3.35-20,8.73-28.75,3.13-4.76,8.42-7.26,13.62-9.39a61.85,61.85,0,0,1,19.87-5.51,23.07,23.07,0,0,1,18.77,6.92c2,2.31,3.41,5.13,5.32,7.54a20.33,20.33,0,0,0,19.72,6.82c4.16-.94,8.48-4.1,8.19-8.36a11.82,11.82,0,0,0-3.75-6.69l-9-9.92c-10.17-11.27-21.47-23.22-36.39-26-10.39-2-21,.82-31,4.16-4,1.35-8.57,3.35-9.7,7.45-.75,2.82.38,5.89-.28,8.73-1.28,5.67-8.54,7.58-11.92,12.33s-2.35,10.39-3.32,15.65-3.78,10.39-4.13,15.83c-.22,3.29,1.44,9.39,5.13,10.58S1276.92,1166.33,1279.2,1170.24Z"/><path class="cls-8" d="M1370.39,1135a93.88,93.88,0,0,0-16.65-38,66.65,66.65,0,0,0-29.63-23.53,42.42,42.42,0,0,0-36.9,2.91,53.5,53.5,0,0,0-18.43,23.25c-8.1,17.46-11.11,38.8-1.69,55.57,3.76-4.57,10.2-2.5,15.9-4.16,7.13-2,13.17-6.79,20-9.76C1323.45,1132.19,1348.48,1139.51,1370.39,1135Z"/><path class="cls-5" d="M1271.88,1134c-.72-5.63-1.19-12.17,2.82-16.18a2,2,0,0,1,1.66-.75,2.16,2.16,0,0,1,1.28,1.13,69.7,69.7,0,0,1,5.88,11.51,12,12,0,0,0-12.52,4.85"/><path class="cls-5" d="M1345,1118.14l-1.13-11.17a5.15,5.15,0,0,1,.22-2.75,3.53,3.53,0,0,1,4.57-1.25,9.33,9.33,0,0,1,3.66,3.66,65.63,65.63,0,0,1,6.45,12.73,38,38,0,0,0-15.24.19"/><polygon class="cls-5" points="1373.02 1571.54 1373.02 1597.07 1351.46 1598.51 1238.05 1598.51 1238.05 1571.54 1373.02 1571.54"/><polygon class="cls-6" points="1373.02 1571.54 1373.02 1598.51 1238.05 1598.51 879.5 1149.37 879.5 1128.16 954.67 1128.16 1373.02 1571.54"/><polygon class="cls-5" points="1373.02 1571.54 1373.02 1598.51 1238.05 1598.51 879.5 1149.37 879.5 1128.16 954.67 1128.16 1373.02 1571.54"/><polygon class="cls-5" points="1373.02 1571.54 1373.02 1598.51 1238.05 1598.51 879.5 1149.37 879.5 1128.16 1239.99 1571.54 1373.02 1571.54"/><path class="cls-8" d="M926.51,2021.71a9.4,9.4,0,0,1-7.52,11l-.68.1c-8.7,2.94-17.93,5.85-24.1,12.51s-7.38,19,0,24.44a23.71,23.71,0,0,0,12.52,3.41c14.17,1,28.94.79,41.81-5.22,9.2-4.26,17.86-11.52,28-10.86,5.23.31,10.8,2.75,15.46.38s6-9,6-14.56a107.64,107.64,0,0,0-5.17-34.07c-.46-1.5-20.37-2.66-22.74-3.13l-24.13-3.13c-4.57-.6-14.43-4-18-.22S926.51,2017.17,926.51,2021.71Z"/><path class="cls-8" d="M1070.48,1943.6a75.12,75.12,0,0,0,5,16.4c3.34,8.51,7.63,17.56,15.83,21.69,7.45,3.72,16.59,2.38,24.16-1.16a19.9,19.9,0,0,0,8-6.1,24.29,24.29,0,0,0,3.13-14c0-12.11-.72-24.63-6.26-35.39-4.76-9.39-13-17.47-13.17-27.85l-28.51,5.5a8.1,8.1,0,0,0-4.19,1.66,7.22,7.22,0,0,0-1.82,3.41A93.18,93.18,0,0,0,1070.48,1943.6Z"/><path class="cls-8" d="M730.05,1646.33c-1.19,10.07-.69,20.87,4.57,29.57s16.34,14.46,25.91,11a3.77,3.77,0,0,0,2.35-1.78,4.42,4.42,0,0,0-.41-3.13,46.18,46.18,0,0,1,1-34.8c.63-1.44,2-3.13,3.44-2.56a3.08,3.08,0,0,1,1.41,1.44,16.33,16.33,0,0,1,2.19,8.63,32.41,32.41,0,0,0-.25,8.29c.6,2.7,3.48,5.23,6,4.07a6.3,6.3,0,0,0,2.85-4c7-20.19,3.81-42.25.62-63.37a3.33,3.33,0,0,0-3.13-3.5,2.92,2.92,0,0,0-.59,0c-14.77-1.48-22.85-5-31.29,8.73C737.41,1616.47,730.05,1632.4,730.05,1646.33Z"/><path class="cls-3" d="M902.72,1595c-4.38,18.21-8.79,36.64-9.07,55.35a253.65,253.65,0,0,0,2.63,34.83l3.28,27.1c1.13,9.14,2.22,18.24,3.82,27.29a72.63,72.63,0,0,1,1.66,14.17,76.42,76.42,0,0,1-2.22,13.93,162.63,162.63,0,0,0-3.29,29.1c-.34,15.65,1.6,31.29,2.82,46.94a522.79,522.79,0,0,1-1.1,93.62,35.15,35.15,0,0,0,5.13,24.13,30.91,30.91,0,0,1,4.54,7.45c2.35,7.16-3.13,14.33-4.54,21.68a21.92,21.92,0,0,0,18.22,25c25,3,50.75,1.63,73.32,13.08,2.37-7-2.82-14.83-.44-21.91,1.5-4.38,5.63-7.22,8.45-10.92a31.78,31.78,0,0,0,5.38-19.09,69.71,69.71,0,0,0-4.63-25.87c-2.66-6.89-6.48-13.68-6.26-21.06,0-3.63,1.28-7.45-.19-10.8a17,17,0,0,0-4-5,63.58,63.58,0,0,1-16.36-37.08,171,171,0,0,1,1.31-41.12c1.54-13,3.6-26.63,11.83-36.73a235.82,235.82,0,0,1,6.6-91.54c.82-2.75,2.1-5.94,4.92-6.6a7,7,0,0,1,6,2.38c4.92,4.6,7.26,11.27,9.39,17.65,2.35,6.92,4.73,14.3,2.94,21.37-.75,3.13-2.25,5.89-3.13,8.89a26.37,26.37,0,0,0,.94,18.37,17.65,17.65,0,0,1,2.26,6.91,19.13,19.13,0,0,1-1.88,6,27.67,27.67,0,0,0,2.6,22.38,81,81,0,0,0,14.61,17.93,65.69,65.69,0,0,0,2,36.17,4.57,4.57,0,0,1,.41,3.47c-.56,1.19-2,1.63-3.13,2.48-3.13,2.56-1.19,7.41.91,10.76a248.21,248.21,0,0,0,19,26.35c6.26,7.48,5.7,21.9,15,24.59a28,28,0,0,0,11.89,0c9.2-1.4,19.47-4.06,24-12.2,1.85-3.35,2.6-7.42,5.48-9.92s6.6-2.94,8.2-5.94-.19-6.95.34-10.43,3.57-6.25,4.54-9.91c2.32-8.45-7.54-15.4-8.89-24-1.94-12.51,13.84-21.9,13.18-34.42-1.38-27.19-2.25-54.51-3.66-81.7a588.13,588.13,0,0,1-.75-73.2c1.09-15.17,3.13-31.07-2.44-45.18-8-19.9-30.11-31.08-51.48-33.2s-42.68,2.94-63.87,6.25A403.8,403.8,0,0,1,902.72,1595Z"/><circle class="cls-10" cx="966.25" cy="1245.75" r="50.13"/><path class="cls-10" d="M945.84,1305.24a21.35,21.35,0,0,1-20.43,12.92c-1.81,7.51,2.54,15.09,7.51,21a89.13,89.13,0,0,0,85.3,29.26,42.1,42.1,0,0,0,16.81-7,37.26,37.26,0,0,0,12.83-22.22,110.45,110.45,0,0,0,1.22-26.13,6.79,6.79,0,0,0-1.38-4.82,6.93,6.93,0,0,0-4.38-1.44c-10.58-.93-21.62-1.34-30.92-6.54s-15.89-16.93-11.42-26.56c-.72,1.5-19,2.22-21.4,2.53-7.54,1.07-15.09,2.25-22.6,3.63a41.2,41.2,0,0,0-10.6,2c-4.54,2.35-2.85,1.19-1.79,5.45C946.19,1293.82,948.54,1298.48,945.84,1305.24Z"/><path class="cls-3" d="M984,1335.72a83.1,83.1,0,0,1-20.06-2.22,28.2,28.2,0,0,1-16.46-11c-2.31-3.5-3.82-7.91-7.51-9.89-6-3.12-12.92,2.16-17.74,7a64.5,64.5,0,0,1-15.08,12.15c-6.7,3.53-14.52,4.78-20.84,8.94a52.5,52.5,0,0,0-12.52,13.52l-44.34,60.4c-17.81,24.28-33.3,50.35-49.16,76-13.74,22.18-20.94,47.72-31.3,71.66a8,8,0,0,0-1,4.81c.38,1.63,2.35,3,3.73,2-4.66,4.63-.57,12.51-1.66,19a23.29,23.29,0,0,1-7.45,11.67,59,59,0,0,1,20.65,1,63.41,63.41,0,0,1,19.53,9.39c3.79-.59,3.44-7.32,6.26-9.82,1.69-1.47,4.19-1.29,6.41-1.72,8.36-1.63,11.68-11.68,18.09-17.34,5.35-4.73,12.93-6.26,18.59-10.7,9.2-7.23,11.17-20.09,16-30.76,4.1-9,10.55-16.93,14.14-26.19,2.35-6,3.48-12.52,6.83-18.06,5.35-9,15.42-13.71,25-18,6.07-2.73,12.52-5.54,19.06-5.1-.35,14.55-2.19,28.88,1,43.09,1.09,5,2.62,9.88,3.94,14.86,6,22.4,7.38,45.75,7.67,68.84A209,209,0,0,1,969.6,1594c11.6-.35,23.18,1.15,34.79.93,13.77-.25,27.38-2.91,41.15-3.84s28.17,0,40.34,6.25a382,382,0,0,1,1.66-59.45l3.31-31.11A190.07,190.07,0,0,1,1095,1480c1.81-7.14,4.44-14,6.44-21.13,7-25,5.76-51.75,4.41-77.82-.68-13.39-5.85-26.57-11.92-38.49a104.69,104.69,0,0,0-7.51-12.77,74,74,0,0,0-64.65-30.35,13.17,13.17,0,0,0-4.63,1,15.44,15.44,0,0,0-5.91,7A76.66,76.66,0,0,1,984,1335.72Z"/><path class="cls-3" d="M922.16,1262.37c1.4-3.13,5.19-4.29,7.51-6.79,4.44-4.76,2.44-12.36,3.13-18.78,1.12-9.38,8.91-17.24,17.83-20.59a57.64,57.64,0,0,1,28.17-1.78,27.27,27.27,0,0,1,12.7,4.22c1.63,1.19,3.13,2.73,4.66,3.82a12.53,12.53,0,0,0,17-4c-11.08-13.33-23.35-27.42-40.18-31.51a82.17,82.17,0,0,0-17.56-1.66c-7.79-.16-15.83-.28-23,2.69-9.79,4-16.68,13.33-20.21,23.34a113.37,113.37,0,0,0-4.92,31.29,118.17,118.17,0,0,0,0,21.28,58.81,58.81,0,0,0,10.45,26.82,8.18,8.18,0,0,0,3.13,2.91C935.14,1299.92,921,1265,922.16,1262.37Z"/><path class="cls-8" d="M1011.56,1210.77c-1.72-14.74-12.24-26.91-23.41-36.71a86.27,86.27,0,0,0-31.45-18.93c-11.79-3.47-25.38-2.72-35.48,4.32-8.14,5.66-13.3,14.67-17.28,23.75a74.83,74.83,0,0,0-7.54,34.42c.78,11.83,6.54,23.81,16.81,29.79,3.69-5.44,10.1-8.26,16.27-10.48A794.7,794.7,0,0,1,1011.56,1210.77Z"/><path class="cls-5" d="M916.65,1204.63c1,0,1.66,1,2.16,1.88a79.67,79.67,0,0,1,6.54,12.52c-3.66.78-10,1.66-11.77-1.57C912.61,1215.84,913.77,1204.48,916.65,1204.63Z"/><path class="cls-5" d="M988,1197.56c-.75.72-1.62-.75-1.62-1.81v-12.14a1.72,1.72,0,0,1,.22-1,1.45,1.45,0,0,1,1-.5c2.53-.29,4.63,1.87,6.26,3.94a66.33,66.33,0,0,1,6.41,10.67l-13.23-.41"/><path class="cls-3" d="M1153.16,1398.62a81.15,81.15,0,0,1,9.2-7.55c8.66-5.78,19.15-8.07,28.88-11.76s19.62-9.67,23.41-19.37a46.09,46.09,0,0,0,1.81-18.78,18.78,18.78,0,0,0-1.38-7.73,15.35,15.35,0,0,0-4.94-5.38c-13.2-9.76-30.92-10.54-47.31-9.54a296.32,296.32,0,0,0-104.55,26.1,6.63,6.63,0,0,0-5.23,7.47,72,72,0,0,0,3.54,27.26c4.32,11.14,13.2,20.12,16.93,31.48,1.69,5.1,2.25,10.51,3.72,15.65a21.93,21.93,0,0,0,8.79,13.08c12.37,7.38,24-2.54,32.61-10.24Z"/><path class="cls-8" d="M991.28,1442l-15.86-34.61a120,120,0,0,1-6-14.8c-1.82-6-2.69-12.3-4.38-18.37-5.57-20.22-19.62-37-26.48-56.86a10.74,10.74,0,0,0-2.56-4.79,8.37,8.37,0,0,0-7-1.25c-9.58,1.66-17.06,9-25.82,13.08-4.06,1.88-8.45,3.13-12.51,5.29a15.63,15.63,0,0,0-8.39,10c-1,4.79,1.41,9.39,3.41,14,8.51,19.21,10.45,40.68,10.83,61.71.28,14.14-.44,29.32-8.8,40.68-16.05,21.9-5.78,54.07.22,80.58.72,3.13,1.57,6.51,2.07,9.82a90.37,90.37,0,0,1,.72,12.52c0,14-.78,28.54-6.67,41.27a46.11,46.11,0,0,0,18.78,5.32q27.25,3.48,54.73,4.89a59.67,59.67,0,0,0,17.18-.88,31.29,31.29,0,0,0,23.12-30.67c1,8.67,2.85,18.09,9.14,24.1s15.46,6.91,24,7.38a446.42,446.42,0,0,0,72.29-2,12.57,12.57,0,0,0,4.44-1c4.63-2.32,4.88-8.7,4.51-13.84-.69-9.6-1.41-19.21-2.57-28.75a118.21,118.21,0,0,1-1.5-18.4,105.66,105.66,0,0,1,3.13-18.78c4.19-19.52,7.51-39.46,6.1-59.45a100,100,0,0,1-.59-14.68c.81-11,6.63-21.56,5.54-32.54-3.13-32.3-5.67-65.44-14.68-96.6-1.63-5.57-3.69-11.55-8.54-14.74-6.26-4.2-15.06-2-22.22-4.67a55.71,55.71,0,0,1-9.55-5.66,43.81,43.81,0,0,0-21.56-6.63c-5.75-.22-12.17,1.06-15.64,5.69a22.63,22.63,0,0,0-3.13,8.55c-4.54,19.08-9.86,38-15.18,56.82l-5.1,18.09-13.67,48.57C991.75,1435.48,992.66,1437.07,991.28,1442Z"/><polyline class="cls-6" points="1071.3 1252.48 1373.99 1570.57 1373.99 1597.54 1239.02 1597.54 1011.56 1300.67"/><polyline class="cls-5" points="1071.3 1252.48 1373.99 1570.57 1373.99 1597.54 1239.02 1597.54 1011.56 1300.67"/><polygon class="cls-5" points="1016.38 1296.48 1017.35 1296.82 1240.96 1570.57 1373.99 1570.57 1373.99 1597.54 1239.02 1597.54 1011.56 1300.67 1016.38 1296.48"/><path class="cls-8" d="M1051.21,1303.17c-11,4.79-23.13,10.93-26.41,22.44a12.9,12.9,0,0,0-.41,6.26,12.75,12.75,0,0,0,11.48,8.79,37.44,37.44,0,0,0,15.05-2.75l64.62-21.34c1.76-.57,3.76-1.41,4.2-3.13a5.4,5.4,0,0,0-.63-3.13c-2-4.88-4-14.87-8.17-18.28-3.44-2.75-10.26-1.78-14.42-1.72C1080.5,1290.44,1065.44,1296.92,1051.21,1303.17Z"/><path class="cls-3" d="M1108.82,1319.1a103.9,103.9,0,0,1,32.07,5,57.18,57.18,0,0,1,26.57,18.15,19.84,19.84,0,0,1,4.19,8.2c.63,3.12,10.83,5,8.57,7.13,6.86-1.09,5.23,2.13,12.18,2.07s14.45-1.85,18.62-7.39a24.19,24.19,0,0,0,3.66-15.3,26.12,26.12,0,0,0-2.07-10.83c-3.13-6.57-10.32-10.11-17-13.14l-55.89-25.57a37.15,37.15,0,0,0-10.32-3.66,39.1,39.1,0,0,0-9.11.22l-25.31,2.91a38,38,0,0,1,17.3,33.39"/></g></g></svg>