<svg xmlns="http://www.w3.org/2000/svg" viewBox="0 0 3685.75 2266.95"><defs><style>.cls-1{fill:#f2f2f2;}.cls-2{fill:#ffb6b6;}.cls-3{fill:#2f2e41;}.cls-4{fill:#be8028;}.cls-5{fill:#e6e6e6;}.cls-6{opacity:0.1;}.cls-10,.cls-6{isolation:isolate;}.cls-7{fill:#a0616a;}.cls-8{fill:#ccc;}.cls-9{fill:#3f3d56;}.cls-10{fill:#f9a826;opacity:0.1;}</style></defs><title>Meeting</title><g id="Layer_2" data-name="Layer 2"><g id="Layer_1-2" data-name="Layer 1"><path class="cls-1" d="M2999.38,1395.53l-8.5,67.66-21.09,168H2546.15c3.31-37.66,7.83-91.88,12.66-150.4.48-5.85,1-11.73,1.45-17.65,12.12-147.12,25.37-313.6,25.37-313.6l55.7,10.38,108.06,20.09,44,8.18,117.92,22c58.79,10.92,99.23,96,88,185.33Z"/><polygon class="cls-2" points="2678.93 877.35 2731.03 968.51 2630.9 1039.48 2588.18 927.41 2678.93 877.35"/><circle class="cls-2" cx="2612.61" cy="834.53" r="129.06"/><path class="cls-3" d="M2603.34,863.39c-10.25-15.6-6.23-23.76-14.81-29.49,0,0-3.45-2.31-28.16-3.62h0c-5.53-39.82-12.44-44.65-12.44-44.65-8-5.56-19.77-3.75-27.12-.35-15.54,7.2-13.73,22.75-24.2,25.72-14.45,4.11-40.75-19.06-43.35-45.59-2.11-21.64,11.83-42.65,17.36-41.54s18.61-15.66,25.7-15.4c4.84.18,24.62-8.42,29.94-7.75,5.81.74,25,10.74,25.76,8.45,5.55-15.87,3.92-20.27,8.62-24.81,8.35-8.05,22-2.45,43.4.56,44,6.19,51.72-8.33,74.29,1.51,11.41,5,21,18.38,39.56,45,26,37.22,39.05,55.83,39.13,77.54.09,22.14-10.63,20.73-15.34,53.5-5.24,36.49,5.9,53.17-6.27,65-9.4,9.16-28.52,11.33-38.56,3.29-17.19-13.76,5.31-47-13.72-71.24-11.68-14.89-35.16-21.52-45.92-14.16-12.17,8.33-5.47,32.76-14,35.08-7.33,2-18.07-14.36-19.85-17.07Z"/><path class="cls-4" d="M2904,1371.7c-3.6,61.56-17.89,81-22.9,153.68-1.1,16-1.75,34.49-1.75,56.58,0,5.63,0,11.08,0,16.4a269.64,269.64,0,0,1-1.54,32.88,144.87,144.87,0,0,1-5.57,26.6h-278c0-.06,0-.12-.06-.19a191.53,191.53,0,0,1-3.44-20.3c-.25-2.07-.47-4.1-.66-6.11-.25-2.34-.47-4.66-.69-6.94-.84-9.11-1.69-17.71-3.69-25.94a66.4,66.4,0,0,0-17.59-32.39,88.31,88.31,0,0,0-12.2-10.39c-.78-.53-1.53-1.07-2.32-1.6-11.07-7.6-21.56-13.08-30.63-28.6-.16-.22-.28-.47-.41-.69a94.94,94.94,0,0,1-8.57-19.37c-3.1-9.89-5-22.31-1.6-35,8-30.11,37.83-33.11,62.18-63.53a105.17,105.17,0,0,0,7.7-11c11-17.9,14-33.67,17.49-52.41.56-3,1.06-6,1.47-9,.32-2.19.6-4.35.82-6.48a170.48,170.48,0,0,0-1.29-47c-7.44-45.1-29.41-73-13.89-113.47,4.88-12.7,11.8-22.25,18.77-30.42,14.77-17.3,29.95-28.54,27.32-50.88-2.66-22.53-19.74-25.63-21.65-45.31-1-10,2.28-20.43,8.38-30.73v0C2639.25,977,2688,946.47,2719,947.44a31.13,31.13,0,0,1,15,3.91c15.31,9,8.92,28.7,32.36,56.3,17.43,20.49,37.14,28.69,44.62,32.57,29.64,15.46,53.73,61.06,70.1,119.35.12.44.25.88.37,1.35,10.11,36.52,17.25,78,20.78,120,1.5,17.8,2.38,35.7,2.57,53.41C2905,1348.52,2904.64,1360.78,2904,1371.7Z"/><polygon class="cls-4" points="2695.83 1582.59 2690.16 1598.36 2686.6 1608.24 2678.33 1631.24 2668.76 1657.84 2607.21 1657.84 2617.53 1631.24 2622.32 1618.85 2630.27 1598.36 2643.6 1563.93 2695.83 1582.59"/><path class="cls-4" d="M2882.05,1154.19c-.16,2-.38,4.29-.6,6.73-2.44,24.85-8.2,69.31-16.61,120-4.45,26.75-9.64,55.26-15.49,83.58-12.58,61.11-28.23,121.29-45.91,160.84a196.19,196.19,0,0,1-9.73,19.28q-3.8,6.52-8,12.86a377.61,377.61,0,0,1-29.6,39.27c-.41.53-.88,1-1.35,1.57-1.69,2-3.44,4-5.19,5.94-8.58,9.67-17.34,18.68-25.82,26.94-10.32,10.08-20.28,19-29.19,26.6h-99.95l-.41-.19-14.39-6.38s4.09-4.82,11-13.92c1.41-1.85,2.91-3.88,4.54-6.11q3-4.08,6.47-9c4.82-6.82,10.3-14.83,16.18-23.9,11.39-17.56,24.38-39.15,37.49-64.15q2.25-4.37,4.57-8.83c0-.09.09-.19.12-.28,2.6-5.07,5.17-10.3,7.73-15.62,21.75-45.24,28-82.8,29.76-95,2.51-17.21,6-41.27,5-67.75a195.51,195.51,0,0,0-9.2-54.26v0c-1.25-3.85-2.66-7.7-4.26-11.51a151.76,151.76,0,0,0-10.23-20.28c-17.68-29.35-32-30.57-43.46-62.56-3.38-9.48-11.05-30.88-8.7-53.47v0a73,73,0,0,1,1.37-8.42v0c.16-.79.38-1.6.6-2.38a63.35,63.35,0,0,1,9.2-20.28c8.73-12.64,20.65-20.15,31.32-24.63l0,0a89.34,89.34,0,0,1,25-6.41c45.72-4.07,81.17,34.36,100.54,55.35a289.73,289.73,0,0,0,20.59,20.44c48.72,43.49,62.09,15.71,65.56,1.34a50.9,50.9,0,0,0,1-5.38Z"/><path class="cls-4" d="M2882.2,1152.56a14.33,14.33,0,0,1-.15,1.57c.06-.47.09-.94.12-1.38C2882.17,1152.66,2882.17,1152.59,2882.2,1152.56Z"/><path class="cls-5" d="M2633.68,1812.86H956.25a28.28,28.28,0,1,0,0,56.55H2633.68a28.28,28.28,0,0,0,0-56.55Z"/><path class="cls-5" d="M2261.43,1958.94h-933a28.27,28.27,0,0,0,0,56.54h933a28.27,28.27,0,1,0,0-56.54Z"/><polygon class="cls-2" points="1142.91 883.35 1248.62 838.86 1293.97 931.81 1182.88 977.15 1142.91 883.35"/><polygon class="cls-6" points="1142.91 883.35 1248.62 838.86 1293.97 931.81 1182.88 977.15 1142.91 883.35"/><path class="cls-4" d="M1157.94,847.92l104.29,120.17s-72.55,229-145.1,249.39-206.32,120.16-206.32,120.16L743,1228.82l81.62-120.17s197.24-269.79,249.39-269.79,83.89,9.06,83.89,9.06Z"/><path class="cls-3" d="M1017,1631.24H774.26l-15.35-20.51L696.24,1527l-14.42-19.27s-54.41-99.76-43.07-190.44S768,1206.14,768,1206.14h4.85L917.16,1333l-8.62,118,45.71,76Z"/><polygon class="cls-3" points="823.98 1631.24 758.91 1631.24 758.91 1534.89 823.98 1631.24"/><path class="cls-1" d="M2227.42,1485l-8.09,42-20.09,104.29H1795.7c3.15-23.37,7.46-57,12.06-93.34q.69-5.43,1.39-11c11.54-91.3,24.17-194.61,24.17-194.61l53,6.43,102.93,12.47,41.94,5.08L2143.56,1370a97.32,97.32,0,0,1,83.86,115Z"/><path class="cls-3" d="M2798.51,1631.24H2579.63c3.34-3.92,5.22-6.18,5.22-6.18l65.61-10.84,135.2-22.31s6.16,15.94,12.85,39.33Z"/><polygon class="cls-7" points="1870.1 928.69 1965.28 1063.31 1799.25 1068.27 1781.43 941.76 1870.1 928.69"/><polygon class="cls-6" points="1870.1 928.69 1965.28 1063.31 1799.25 1068.27 1781.43 941.76 1870.1 928.69"/><path id="uuid-ae755ff6-bb09-410e-86b1-7d1b81a37005-131" class="cls-7" d="M1400.68,1207.6c-12.21-35.23-40.29-57.49-62.71-49.71s-30.69,42.64-18.47,77.88a93.32,93.32,0,0,0,23.36,37.38l53.63,148.63,69.21-26.66-60.22-143.69a93.36,93.36,0,0,0-4.8-43.83Z"/><path class="cls-8" d="M2045,1139l-.13,137.19-12.77,50.67-26.25,104.23L1986.74,1527l-14.24,71.42-5.08,25.51q-5.75,3.84-11.45,7.36H1624.35c-18.84-11.31-29.39-20.11-29.39-20.11a110.7,110.7,0,0,0,11.18-12.76c10.07-13.29,22.24-35,14.78-55.84-1.56-4.35-2-9.66-1.49-15.58,3-39,44-105.06,44-105.06l-8.48-98-3.72-42.94,26.22-209.38,85.45-49.67,14.75-1.43,145.62-7.87,60.19,3.47,2.75.75L2045,1139Z"/><polygon class="cls-2" points="2051.47 1631.24 1978.91 1631.24 1975.72 1598.37 1975.65 1597.71 1996.19 1596.31 2049.63 1592.66 2050.56 1612.34 2051.28 1627.44 2051.47 1631.24"/><path class="cls-8" d="M2069.33,1172.18,2099.8,1351l-24.87,176-3.88,27.39-6.84,48.36-2.11,14.87.07,1.61.52,12.06h-86.16l-3.17-32.87-.27-2.95-6.49-67.33-.11-1.14-13.76-142.79,27-103.2,2-7.59v0l11.74-176.7-9.09-80.31-.09-.75.52.34c.48.3,1,.59,1.41.91a179.32,179.32,0,0,1,83.14,155.35Z"/><path class="cls-8" d="M1708.29,1105.85l-33.13-34.27s-70.92,32-74.45,49.71S1472,1399.56,1472,1399.56l-54.48-145.5-70.92,47.34s56.91,225.91,110.12,236.51,231.57-267.38,231.57-267.38l20-164.68Z"/><path class="cls-5" d="M3053.53,1525.38h-2580a66.23,66.23,0,0,0,0,132.46h2580a66.23,66.23,0,1,0,0-132.46Z"/><path class="cls-9" d="M2029.9,1323.52l-5,234.08a41.66,41.66,0,0,1-41.65,40.77h-430.6A41.67,41.67,0,0,1,1511,1559l-12.8-234.08a41.67,41.67,0,0,1,41.61-43.94h448.4a41.67,41.67,0,0,1,41.66,42.56Z"/><circle class="cls-2" cx="1334.78" cy="836.83" r="103.02"/><polygon class="cls-2" points="1162.47 1106.39 1173.81 1228.82 1250.89 1539.42 1184.3 1562.76 1071.78 1224.28 1056.24 1088.25 1162.47 1106.39"/><path class="cls-9" d="M1131.81,1323.52l-5,234.08a41.66,41.66,0,0,1-41.66,40.77H654.54a41.66,41.66,0,0,1-41.6-39.39l-12.8-234.08A41.67,41.67,0,0,1,641.75,1281h448.4a41.67,41.67,0,0,1,41.66,42.56Z"/><ellipse class="cls-2" cx="1263.17" cy="1563.97" rx="81.36" ry="35.99"/><path class="cls-4" d="M1002.63,1125.1l46.48-247.7s129.23-18.14,133.77,24.94-3.24,253.6-3.24,253.6l-177-30.84Z"/><path class="cls-3" d="M1293.19,853s63.73-22.75,90.61-35,80.29,73.11,81.48,28-17.27-64-17.27-64-4.61-98.62-104-86.29c0,0,21.85-49.34-49.89-57s-183.34,165.61-173.34,191.49,22,47.3-6.38,75-81.46,183.9-41.06,225.94,43,60.28,15.37,86.43-93.1,83-22.36,92.89-6.47,2.5,46.27-43.89,129.7-44.49,101-118.92,21.19-181.09,14.94-197.27,14-118.93,14-118.93,47.11-6.92,50.63,21.47Z"/><circle class="cls-7" cx="1819.2" cy="865.27" r="112.15"/><path class="cls-3" d="M1828.15,714.5c-3.24,1.89-7.59-1-8.63-4.58s.17-7.45,1.38-11l6-17.92c4.29-12.71,8.84-25.86,18.14-35.54,14-14.6,36.32-18.31,56.39-15.62,25.77,3.45,51.2,17.41,63.18,40.49s6.88,55.27-14.77,69.67c30.86,35.37,41.62,74.79,39.92,121.7s-52.82,90.09-86.16,123.13c-7.44-4.51-14.21-25.66-10.12-33.34s-1.77-16.59,3.3-23.67,9.31,4.2,4.19-2.84c-3.24-4.44,9.39-14.66,4.58-17.31-23.26-12.86-31-41.85-45.6-64a109.09,109.09,0,0,0-79.68-47.92c-17.57-1.65-36.14,1.35-50.55,11.55S1706,835.69,1709.38,853a40.64,40.64,0,0,1,8.46-63.63,66.4,66.4,0,0,1,14.09-62.6c15-16.57,76-13.75,97.92-9.39Z"/><path class="cls-3" d="M1831.56,796.35c29.06,3.14,50,28.31,67.75,51.55,10.21,13.4,20.9,28.19,20.65,45-.26,17-11.65,31.63-17.09,47.77-8.89,26.38-.22,57.76,21,75.83-20.92,4-43.53-11.71-47.15-32.7-4.2-24.42,14.32-48,12.12-72.69-1.93-21.75-19.07-38.49-33.64-54.75s-28.26-37.85-21.56-58.63l-2-1.41Z"/><path id="uuid-aec20554-f6ec-4c5b-9d97-717cd04239bf-132" class="cls-2" d="M2265.92,1539.56c-28.78,16.36-43.66,44.48-33.24,62.8s42.2,19.88,71,3.5a82.85,82.85,0,0,0,28.85-26.44l121.06-70.9-34.48-56.1-115.68,75.85a82.75,82.75,0,0,0-37.49,11.29Z"/><path class="cls-4" d="M2675.81,1019.67c-3.61-1.43-35.36-13.45-64.34,2.42-33.29,18.23-38.43,59.85-40.23,74.45-4.17,33.72,8.1,41.28,10.7,75.42,4.84,63.87,17.62-9-2.79,20.16-7.06,10.09-79.22,166.47-119,197.1-77.39,59.57-126.54,101.52-126.54,101.52l56.11,61s88.66-23.62,167-74.51c80.39-52.19,120.58-78.29,151.68-129.34,2.67-4.4,66.75-113.21,32.34-233.52-7.85-27.44-22.23-77.73-64.93-94.65Z"/><path class="cls-9" d="M2965.54,1323.52l-5,234.08a41.68,41.68,0,0,1-41.66,40.77H2488.28a41.67,41.67,0,0,1-41.61-39.39l-12.79-234.08a41.66,41.66,0,0,1,41.6-43.94h448.41a41.66,41.66,0,0,1,41.65,42.56Z"/><path class="cls-10" d="M3685.75,1456.07a755.42,755.42,0,0,1-22.13,182.25q-7.44,30.14-17.3,59a697.58,697.58,0,0,1-27.91,69.85q-8,17.27-16.87,33.86a455.51,455.51,0,0,1-38.08,183,471.88,471.88,0,0,1-229,235.94A481.76,481.76,0,0,1,3130,2267H699.73a612.37,612.37,0,0,1-308-82.33l-1.44-.81q-20-11.71-39-24.79a611.23,611.23,0,0,1-80-66,595.64,595.64,0,0,1-88-109,581.65,581.65,0,0,1-89.46-310.52C34.58,1569.5,0,1444.87,0,1310.93c0-169,55-323.12,145.23-439.81a617.42,617.42,0,0,1,61.68-68.62,573.27,573.27,0,0,1,70.53-57.74A548.06,548.06,0,0,1,340,707.21c9.05-4.6,18.12-9,27.35-13q12.17-5.38,24.6-10.1,14.92-5.67,30.23-10.42t30.19-8.33q21.92-5.36,44.56-8.7c12.52-1.84,25-3.13,37.56-4.1,10-.75,20-1.15,30.1-1.28h5.48c11.14,0,22.21.44,33.2,1.19,1.15-2.32,2.41-4.66,3.56-7,4.38-8.35,8.92-16.68,13.49-24.81a.81.81,0,0,1,0-.22q1.17-2.16,2.38-4.23c3.69-6.66,7.54-13.26,11.48-19.8,1.82-3.13,3.6-6.07,5.45-9a23.85,23.85,0,0,1,1.28-2.12q2.82-4.7,5.73-9.39,14.49-23.16,30.13-45.5l2.66-3.82c1.63-2.31,3.13-4.57,4.95-6.88,4.31-6,8.76-12.11,13.23-18.06,3.13-4.25,6.26-8.48,9.64-12.52q12.21-15.65,25-31.29T759,427c1.25-1.41,2.5-2.79,3.81-4.17l13.37-14.58h0c.65-.69,1.22-1.31,1.84-1.94h0c1.6-1.72,3.13-3.44,4.85-5.1,7.17-7.6,14.52-15.05,21.91-22.47A1192.08,1192.08,0,0,1,924.6,274.31c1.66-1.31,3.35-2.57,5-3.82,7.95-6,16-11.89,24.1-17.71a1268.54,1268.54,0,0,1,139-86.68c3.32-1.91,6.7-3.69,10.11-5.44a1324.51,1324.51,0,0,1,133-61.21c24.75-9.8,50.07-19,75.54-27.41,17-5.57,34-10.86,51.22-15.84q40.44-11.64,81.43-20.87A1450.22,1450.22,0,0,1,1688.76,2q37.54-1.9,75.94-2a1455.44,1455.44,0,0,1,366.13,46.31,13.19,13.19,0,0,0,11.36,5.92h10.51c4.57,1.25,9.11,2.5,13.67,3.82q38.28,11,75.45,24.06l6.26,2.25a1347.38,1347.38,0,0,1,178.08,78.23,1284.14,1284.14,0,0,1,149.11,92.13q11,7.89,21.66,15.9,12.95-8.3,26.34-15.9a518.4,518.4,0,0,1,109.15-46.53,497.87,497.87,0,0,1,244.83-9.58c104.05,22.06,198.24,76.82,274.31,154.71a639.79,639.79,0,0,1,82.27,104.46c1.72,2.69,3.44,5.41,5.1,8.16a689.16,689.16,0,0,1,52.39,104.43c.53,1.34,1.06,2.59,1.53,3.91a723.16,723.16,0,0,1,32.23,104.36c.38,1.81.81,3.6,1.19,5.41a752.25,752.25,0,0,1,15.4,104.42,20.19,20.19,0,0,0,.25,3.85q2,27.25,2,55.08,0,24.87-1.6,49.38c0,1.78-.25,3.63-.4,5.47-.29,4.73-.69,9.39-1.1,14.15a594,594,0,0,1,66.9,63.11q13.68,14.94,26.48,31a658.69,658.69,0,0,1,68.21,104.43C3655.33,1212.8,3685.75,1330.3,3685.75,1456.07Z"/></g></g></svg>