<svg xmlns="http://www.w3.org/2000/svg" viewBox="0 0 3685.75 2266.95"><defs><style>.cls-1{fill:#f9a826;opacity:0.1;isolation:isolate;}.cls-2{fill:#f2f2f2;}.cls-3{fill:#3f3d56;}.cls-4{fill:#fff;}.cls-5{fill:#be8028;}.cls-6{fill:#a0616a;}.cls-7{fill:#2f2e41;}.cls-8{fill:#939393;}.cls-9{fill:#e6e6e6;}</style></defs><title>Move-in</title><g id="Layer_2" data-name="Layer 2"><g id="Layer_1-2" data-name="Layer 1"><path class="cls-1" d="M3685.75,1456.07a755.42,755.42,0,0,1-22.13,182.25q-7.44,30.14-17.3,59a697.58,697.58,0,0,1-27.91,69.85q-8,17.27-16.87,33.86a455.51,455.51,0,0,1-38.08,183,471.88,471.88,0,0,1-229,235.94A481.76,481.76,0,0,1,3130,2267H699.73a612.37,612.37,0,0,1-308-82.33l-1.44-.81q-20-11.71-39-24.79a611.23,611.23,0,0,1-80-66,595.64,595.64,0,0,1-88-109,581.65,581.65,0,0,1-89.46-310.52C34.58,1569.5,0,1444.87,0,1310.93c0-169,55-323.12,145.23-439.81a617.42,617.42,0,0,1,61.68-68.62,573.27,573.27,0,0,1,70.53-57.74A548.06,548.06,0,0,1,340,707.21c9.05-4.6,18.12-9,27.35-13q12.17-5.38,24.6-10.1,14.92-5.67,30.23-10.42t30.19-8.33q21.92-5.36,44.56-8.7c12.52-1.84,25-3.13,37.56-4.1,10-.75,20-1.15,30.1-1.28h5.48c11.14,0,22.21.44,33.2,1.19,1.15-2.32,2.41-4.66,3.56-7,4.38-8.35,8.92-16.68,13.49-24.81a.81.81,0,0,1,0-.22q1.17-2.16,2.38-4.23c3.69-6.66,7.54-13.26,11.48-19.8,1.82-3.13,3.6-6.07,5.45-9a23.85,23.85,0,0,1,1.28-2.12q2.82-4.7,5.73-9.39,14.49-23.16,30.13-45.5l2.66-3.82c1.63-2.31,3.13-4.57,4.95-6.88,4.31-6,8.76-12.11,13.23-18.06,3.13-4.25,6.26-8.48,9.64-12.52q12.21-15.65,25-31.29T759,427c1.25-1.41,2.5-2.79,3.81-4.17l13.37-14.58h0c.65-.69,1.22-1.31,1.84-1.94h0c1.6-1.72,3.13-3.44,4.85-5.1,7.17-7.6,14.52-15.05,21.91-22.47A1192.08,1192.08,0,0,1,924.6,274.31c1.66-1.31,3.35-2.57,5-3.82,7.95-6,16-11.89,24.1-17.71a1268.54,1268.54,0,0,1,139-86.68c3.32-1.91,6.7-3.69,10.11-5.44a1324.51,1324.51,0,0,1,133-61.21c24.75-9.8,50.07-19,75.54-27.41,17-5.57,34-10.86,51.22-15.84q40.44-11.64,81.43-20.87A1450.22,1450.22,0,0,1,1688.76,2q37.54-1.9,75.94-2a1455.44,1455.44,0,0,1,366.13,46.31,13.19,13.19,0,0,0,11.36,5.92h10.51c4.57,1.25,9.11,2.5,13.67,3.82q38.28,11,75.45,24.06l6.26,2.25a1347.38,1347.38,0,0,1,178.08,78.23,1284.14,1284.14,0,0,1,149.11,92.13q11,7.89,21.66,15.9,12.95-8.3,26.34-15.9a518.4,518.4,0,0,1,109.15-46.53,497.87,497.87,0,0,1,244.83-9.58c104.05,22.06,198.24,76.82,274.31,154.71a639.79,639.79,0,0,1,82.27,104.46c1.72,2.69,3.44,5.41,5.1,8.16a689.16,689.16,0,0,1,52.39,104.43c.53,1.34,1.06,2.59,1.53,3.91a723.16,723.16,0,0,1,32.23,104.36c.38,1.81.81,3.6,1.19,5.41a752.25,752.25,0,0,1,15.4,104.42,20.19,20.19,0,0,0,.25,3.85q2,27.25,2,55.08,0,24.87-1.6,49.38c0,1.78-.25,3.63-.4,5.47-.29,4.73-.69,9.39-1.1,14.15a594,594,0,0,1,66.9,63.11q13.68,14.94,26.48,31a658.69,658.69,0,0,1,68.21,104.43C3655.33,1212.8,3685.75,1330.3,3685.75,1456.07Z"/><path class="cls-2" d="M640.47,1508.38c-12.56,1.35-26.27,3.37-40.86,6.36-61.81,12.6-63.12,54.57-62.56,64.19l-.44-.28a103.45,103.45,0,0,0-12.48,29.57l-2.82-128.66A97.1,97.1,0,0,0,526.2,1467c4.61,14.27,12.2,27.7,18.76,26.83,8.5-1.15,12.2-26.19,10.61-44,10.81,13.91,29,28.81,35.89,24.2,5.49-3.65,2.23-18.76-3.73-32.51,12.48,7.51,26.31,12.44,30.6,7.67,5.84-6.52-8.19-28.73-21.1-41.14,17.29,1.63,39.31-1.15,40.78-9,1.19-6.48-11.93-14.67-26-20,14.07-3.7,27.27-10.18,26.83-16.58-.52-7.59-20.07-12.72-37-13.47,12.71-9.94,24.4-23.73,20.82-29.93-3.3-5.72-18.56-3.5-32.67,1.55,8.35-11.92,14.23-25.4,9.74-30-5.57-5.72-25.32,4.17-38.83,15.1,2.62-17,1.31-38.55-6.36-40.5-6.4-1.63-15.47,10.89-21.67,24.53-2.74-14.31-8.3-27.91-14.7-27.91-9.14,0-16.54,27.55-16.54,45.51,0,1,0,2,.08,2.91a45.84,45.84,0,0,0-3.18-3.34c-12.88-12.52-37.8-26.4-44.2-19.84-4.45,4.61,1.39,18,9.74,30-14.11-5.05-29.41-7.27-32.67-1.55-4.41,7.67,14.47,26.87,29.81,36.17-.91-.12-1.91-.2-2.94-.28-17.93-1.23-45.91,4.3-46.55,13.4-.43,6.4,12.72,12.88,26.83,16.57-14,5.29-27.1,13.48-25.95,20,1.43,7.87,23.45,10.65,40.78,9-12.92,12.4-26.95,34.62-21.11,41.14,4.3,4.77,18.13-.16,30.61-7.67-6,13.75-9.22,28.85-3.74,32.51,7.24,4.85,27.15-12,37.6-26.55-1.07,17.77,3.18,42.17,11.61,43.12,3.54.4,7.27-3.37,10.65-9.14l-9.54,138.28c-2.22,16.1,12.05,26.63,13.32,33.23l2.07,93.65a100.53,100.53,0,0,0-9.7-20.28l-.44.28c.56-9.62-.76-51.59-62.56-64.19-14.59-3-28.3-5-40.86-6.36-14.83-1.59-20.63,18.72-7.24,25.28,19.4,9.5,37.64,21.46,47.18,35.61,24.33,36.21,57.91,15.31,62.72,12.05a100.5,100.5,0,0,1,11.05,26.35l1.12,49.72a17.53,17.53,0,0,1-.48,1.87l.52.16,2.66,120.36,24.56-.2-8.78-123c1.47-6.64,6-29.25,0-52.71l-8.78-96.66h0l-11.45-38a100.85,100.85,0,0,1,13.39-38c4.77,3.26,38.4,24.21,62.72-12,9.5-14.15,27.79-26.11,47.18-35.61,13.4-6.56,7.64-26.87-7.23-25.28h0ZM528.26,1793.13l-.47-21.07A116.69,116.69,0,0,1,528.26,1793.13Z"/><path class="cls-3" d="M324.56,1935.66a4.72,4.72,0,0,0,4.73,4.73H3228a4.73,4.73,0,0,0,0-9.46H329.29A4.72,4.72,0,0,0,324.56,1935.66Z"/><circle class="cls-3" cx="2083.69" cy="1725.2" r="214.63"/><circle class="cls-4" cx="2083.69" cy="1725.2" r="143.09"/><circle class="cls-3" cx="2083.69" cy="1725.2" r="81.48"/><circle class="cls-3" cx="843.58" cy="1725.2" r="214.63"/><circle class="cls-4" cx="843.58" cy="1725.2" r="143.09"/><path class="cls-5" d="M2377.3,1623.13c-27.94-70.48-125.64-285.79-299.65-357.05a16.94,16.94,0,0,0-4.17-1.12L1515.39,1185a17,17,0,0,0-19.24,14.15l-9.78,60.42a17,17,0,0,0,2.46,11.92c28.34,44,210,342.42-80.88,342.42s-371-208.15-383.76-244.92a17.28,17.28,0,0,1-.16-10.69l88.16-279.22a16.91,16.91,0,0,0-1.83-14.11l38.76-72,71,40.19,36.77.44,125.48,65.58,25.56-41.74-258.79-129.1s.43-29.89-83-53.73L934.92,815,919,834.9l39.75,31.8,4,23.85,27.82,7.94,55.65,107.32-15.9,30.77,19.32,9.42-5.53-1.28a17,17,0,0,0-19.39,9.82L937,1255.5a17.25,17.25,0,0,1-6.4,7.52l-31.24,20.15a17,17,0,0,0-6.52,7.83l-35.69,86.53a17.05,17.05,0,0,0-1.15,8.27c-44.48,8.42-175.21,44.83-247,188.44l83.47,67.57s130.85-84.66,347.07,3.5c37.6,58.5,92.41,107,171.59,111.61,208.71,12.08,554.51,24,594.26-23.69,29.1-34.94,49.33-56.72,58.11-65.9a17.18,17.18,0,0,1,11.77-5.25l486.7-15.54a17.05,17.05,0,0,0,15.3-23.33Z"/><circle class="cls-3" cx="1034.37" cy="934.23" r="63.6"/><path class="cls-3" d="M2052.81,1266.36c-.76,0-1.51,0-2.27,0l-531.74-20.59a56.3,56.3,0,0,1-51.35-38.16l-7.27-21.19a56.6,56.6,0,0,1,52.22-75l549.39-12.64a56.57,56.57,0,0,1,56.88,67.17l-10.38,54.38a56.24,56.24,0,0,1-55.52,46Z"/><circle class="cls-3" cx="843.58" cy="1725.2" r="81.48"/><path class="cls-3" d="M2266.45,1493.23a35.73,35.73,0,0,1-31.32-18.52l-40.27-72.9a35.81,35.81,0,0,1,33.19-53.06l73.1,3.74a36.1,36.1,0,0,1,31.16,21.82l21.34,50.48a35.81,35.81,0,0,1-21.3,47.81l-54.14,18.68a35.21,35.21,0,0,1-11.72,2Z"/><path class="cls-3" d="M1342.13,1977.71a9.38,9.38,0,0,1-1.83-.12l-16.22-1.79a16.77,16.77,0,0,1-13.59-23.17l84.42-200.48,1.83.75-1.83-.75a16.74,16.74,0,0,1,28.42-4.1,16.63,16.63,0,0,1,2.9,15.94l-68.16,202.27a16.88,16.88,0,0,1-15.9,11.41Z"/><path class="cls-6" d="M1780.42,578.65s-30.88-61.77-24.72-117.33l-102.79,53.26,4,101.11,123.53-37Z"/><circle class="cls-6" cx="1716.63" cy="450.38" r="92.73"/><polygon class="cls-6" points="1811.34 1906.4 1754.74 1906.4 1727.84 1688.15 1811.34 1688.15 1811.34 1906.4"/><path class="cls-7" d="M1617.5,1905.09h0c-1.75,3-2.71,12.56-2.71,16h0a19.19,19.19,0,0,0,19.2,19.2H1809.2a13.13,13.13,0,0,0,13.11-13.12v-7.31s8.67-21.94-9.18-48.93c0,0-22.18,21.15-55.33-12l-9.77-17.69L1677.28,1893l-39.23,4.81c-8.59,1.07-16.18-.16-20.59,7.27h0Z"/><path class="cls-5" d="M1644.52,578.65l135.9-18.52,105,49.4,6.16,382.93s-258.27,30.88-299-9.26-9.81-361.31-9.81-361.31l61.76-43.24h0Z"/><path class="cls-7" d="M1693.41,474h-24.92s-21.62-26.63-18.72-10.41-8.74,33.67-8.74,33.67l-17.45-5.81s-34.9-146.78,69.83-154.85,128,73.41,128,73.41-5.8,40.74-17.45,29.1-75.64-17.45-75.64-17.45L1693.45,474h0Z"/><polygon class="cls-6" points="1627.47 1857.36 1573.06 1872.7 1487.84 1670.03 1568.21 1647.33 1627.47 1857.36"/><path class="cls-7" d="M1440.58,1908.79h0c-.87,3.34.84,12.8,1.75,16.14h0A19.2,19.2,0,0,0,1466,1938.2l168.61-47.61a13.14,13.14,0,0,0,9.06-16.18l-2-7s2.39-23.45-22.14-44.59c0,0-15.58,26.39-56.48,3.49l-14.23-14.38-54,69-36.41,15.3c-8,3.34-15.62,4.25-17.85,12.6Z"/><path class="cls-7" d="M1873,955.41l18.52,56.05V1204L1836,1785.3H1727.36l-12.24-414.93,9.65-204.93L1517.65,1478.8l91,223.82-100.2,66.82S1358.62,1428,1381,1394.86s223.22-423.67,223.22-423.67S1873,961.61,1873,955.45h0Z"/><path class="cls-6" d="M1928.64,733.07,1958.49,782s42.21,165.9,0,166.58S1831.06,864,1831.06,864l11.13-44.47,30.88,12.36-6.16-98.81h61.73Z"/><path class="cls-5" d="M1836,608.78s98.81-17.41,108.07,47.26,14.43,126,14.43,126l-107.08,8.86L1836,608.78Z"/><ellipse class="cls-6" cx="1812.03" cy="826.23" rx="27.9" ry="55.77" transform="translate(87.83 1822.84) rotate(-54.54)"/><path class="cls-2" d="M2671.55,1508.38c-12.56,1.35-26.27,3.37-40.86,6.36-61.8,12.6-63.12,54.57-62.56,64.19l-.44-.28a103.73,103.73,0,0,0-12.48,29.57l-2.82-128.66a97.1,97.1,0,0,0,4.89-12.56c4.61,14.27,12.2,27.7,18.76,26.83,8.51-1.15,12.2-26.19,10.61-44,10.81,13.91,29,28.81,35.89,24.2,5.49-3.65,2.23-18.76-3.73-32.51,12.48,7.51,26.31,12.44,30.6,7.67,5.85-6.52-8.18-28.73-21.1-41.14,17.29,1.63,39.31-1.15,40.78-9,1.19-6.48-11.93-14.67-26-20,14.07-3.7,27.27-10.18,26.83-16.58-.51-7.59-20.07-12.72-37-13.47,12.72-9.94,24.4-23.73,20.83-29.93-3.3-5.72-18.57-3.5-32.68,1.55,8.35-11.92,14.23-25.4,9.74-30-5.56-5.72-25.32,4.17-38.83,15.1,2.62-17,1.31-38.55-6.36-40.5-6.4-1.63-15.46,10.89-21.66,24.53-2.75-14.31-8.31-27.91-14.71-27.91-9.14,0-16.54,27.55-16.54,45.51,0,1,0,2,.08,2.91a43.78,43.78,0,0,0-3.18-3.34c-12.87-12.52-37.79-26.4-44.19-19.84-4.46,4.61,1.39,18,9.73,30-14.11-5.05-29.41-7.27-32.67-1.55-4.41,7.67,14.47,26.87,29.81,36.17-.91-.12-1.91-.2-2.94-.28-17.92-1.23-45.91,4.3-46.54,13.4-.44,6.4,12.72,12.88,26.83,16.57-14,5.29-27.11,13.48-26,20,1.43,7.87,23.45,10.65,40.78,9-12.92,12.4-26.95,34.62-21.1,41.14,4.29,4.77,18.12-.16,30.6-7.67-6,13.75-9.22,28.85-3.73,32.51,7.23,4.85,27.14-12,37.6-26.55-1.08,17.77,3.18,42.17,11.6,43.12,3.54.4,7.28-3.37,10.65-9.14l-9.53,138.28c-2.23,16.1,12,26.63,13.31,33.23L2556,1749a100.53,100.53,0,0,0-9.7-20.28l-.44.28c.56-9.62-.75-51.59-62.56-64.19-14.59-3-28.3-5-40.86-6.36-14.83-1.59-20.63,18.72-7.23,25.28,19.39,9.5,37.64,21.46,47.18,35.61,24.32,36.21,57.91,15.31,62.72,12.05a101.18,101.18,0,0,1,11.05,26.35l1.11,49.72a17.53,17.53,0,0,1-.48,1.87l.52.16,2.66,120.36,24.57-.2-8.79-123c1.47-6.64,6-29.25,0-52.71l-8.78-96.66h0l-11.45-38a100.88,100.88,0,0,1,13.4-38c4.76,3.26,38.39,24.21,62.72-12,9.5-14.15,27.78-26.11,47.18-35.61,13.39-6.56,7.63-26.87-7.24-25.28h0Zm-112.2,284.75-.48-21.07A117.71,117.71,0,0,1,2559.35,1793.13Z"/><polygon class="cls-6" points="2385.49 1914.91 2428.22 1905.69 2412.92 1736.61 2349.92 1750.2 2385.49 1914.91"/><path class="cls-7" d="M2531.6,1882.36h0c1.83,2,4.1,9,4.65,11.64h0a14.78,14.78,0,0,1-11.36,17.61l-132.24,28.58a10.16,10.16,0,0,1-12.05-7.75l-1.19-5.53s-10.13-15.14-1.07-38.43c0,0,20.19,12.36,39.78-18.09l4.5-14.94,61.84,27.5,30.37-2.74c6.64-.6,12.2-2.78,16.73,2.15h0Z"/><polygon class="cls-6" points="2461.89 1901.99 2497.5 1876.71 2416.93 1727.26 2364.35 1764.55 2461.89 1901.99"/><path class="cls-7" d="M2583.39,1814.55h0c2.43,1.07,7.32,6.68,8.83,8.86h0a14.83,14.83,0,0,1-3.5,20.67l-110.34,78.3a10.16,10.16,0,0,1-14.11-2.38l-3.26-4.61s-15.26-9.94-16.1-34.94c0,0,23.42,3.42,29.5-32.27l-1.75-15.51,67.69,1,26.87-14.47c5.88-3.18,10.13-7.35,16.21-4.61h0Z"/><path class="cls-8" d="M1948.63,1065.91s-66.42,90.31,66.42,191.86l271.27-86.69L2189.42,969,2103.6,922l-155,143.92h0Z"/><polyline class="cls-8" points="2286.36 1171.12 2391.53 1375.94 2457.99 1802.27 2374.96 1807.79 2291.89 1403.64 2145.18 1184.95 2247.61 1137.89"/><path class="cls-8" d="M2015.09,1193.46v64.35l188.24,206.72s0,155,72,227l83,127.35,72-38.75-105.17-370.92L2136.91,1165.6l-121.78,27.86h0Z"/><path class="cls-6" d="M2148.84,555.56l-35.46,135.18L1978.2,664.15s94.32-97.27,81-141.58l89.63,33h0Z"/><path class="cls-3" d="M2045.53,576l83,38.75s42.72,26.11,43.52,43.52-4.77,100.44-4.77,100.44,33.23,33.23,11.09,99.65l11.09,110.74-249.14,132.87L1962.5,869.4l-11.09-215.91,94.12-77.5h0Z"/><path id="uuid-a736fb77-ebf6-42b0-8b8a-4fdda1f3d2e9-35" class="cls-6" d="M1971,1206c9.74,22.3,29.13,35.37,43.32,29.17s17.81-29.29,8.11-51.59a60.85,60.85,0,0,0-17.09-23.13l-42.41-94-43.68,20.82,46.42,90.47A60.7,60.7,0,0,0,1971,1206Z"/><path class="cls-3" d="M2015.09,667.33s-60.89-38.76-83,5.52-72,271.27-72,271.27l72,215.91,66.41-27.66L1940.32,900l74.73-232.68h0Z"/><path id="uuid-58a199b9-e878-46e4-8346-6749f3d4d3cf-36" class="cls-6" d="M2327.22,1171.16c17.25,17.17,40.11,22.18,51,11.17s5.76-33.79-11.49-51a61,61,0,0,0-24.4-15.22l-74-71.78-33,35.45,76.47,67a60.83,60.83,0,0,0,15.38,24.32h0Z"/><path class="cls-3" d="M2169.74,654.09s-106.16-4.33-110.45,45,68.32,269.45,68.32,269.45l146.47,174.21,51.55-50.2L2186,897.94l-16.22-243.85Z"/><path class="cls-4" d="M1858.88,1053.79l-88.67-269.21c-71.71-63.16-149.49,88.95-358.29,2.7l65.67,304.51C1635.46,1006.45,1771.32,973,1858.88,1053.79Z"/><path class="cls-3" d="M1477.59,1099.74a4,4,0,0,1-1.67-.36,4,4,0,0,1-2.23-2.78L1408,792.09a4,4,0,0,1,5.4-4.53c118.61,49,195.16,19.83,251.09-1.47,42.49-16.18,76-29,108.31-.56a4.38,4.38,0,0,1,1.15,1.75l88.68,269.21a4,4,0,0,1-6.48,4.13c-77-71-196.67-58.74-376.69,38.6a3.94,3.94,0,0,1-1.9.48Zm-60.22-302,63,292c172.74-92.49,291.07-106.76,370.28-44.24l-83.9-254.66c-28.42-24.33-58.27-13-99.41,2.7-56,21.35-132.4,50.44-249.93,4.22h0Z"/><path class="cls-6" d="M1549.45,656.32l-56.12,11.6s-150,82.56-121.63,113.84,148.81,35.29,148.81,35.29l24.89-38.51-30.13-14.11,76.39-63-42.21-45.11Z"/><path class="cls-5" d="M1703.51,639S1648.7,555,1595.16,592.4s-101.79,75.52-101.79,75.52l66.69,84.23L1703.55,639h0Z"/><ellipse class="cls-6" cx="1561.07" cy="805.12" rx="27.9" ry="55.77" transform="translate(462.32 2175.49) rotate(-78.56)"/><circle class="cls-3" cx="2652.28" cy="1932.52" r="33.55"/><circle class="cls-3" cx="2696.99" cy="1984.55" r="33.55"/><circle class="cls-3" cx="3032.38" cy="1984.55" r="33.55"/><path class="cls-3" d="M2746.12,1482.54V1118.26c0-40.78,34.1-50.88,74.88-50.88,20,0,29.69-2.3,43.72,11.93s29.62,20.15,29.3,40.14l-5.88,357.45-142.06,5.6ZM2825,1091.27c-36.41,0-70.91-9.38-70.91,27v356l126.27-5,5.77-349.93c.28-17.85-28.74-15.38-41.22-28.1s-2,0-19.87,0h0Z"/><path class="cls-9" d="M2646.27,1478.13l-5.08,398a30.59,30.59,0,0,0,3.53,14.7l37.6,71a30.57,30.57,0,0,0,28.38,16.26l330.14-14.55a30.61,30.61,0,0,0,29.22-32l-20.71-454.43a30.61,30.61,0,0,0-30.57-29.21H2676.84a30.64,30.64,0,0,0-30.61,30.21h0Z"/><path class="cls-3" d="M2776.41,1657.75l-7.95-.4,2.94-58.91a61.23,61.23,0,0,1,59.46-57.91l140.59-3.26a52.23,52.23,0,0,1,53.46,49.41l3,53.86-7.95.43-3-53.85a44.3,44.3,0,0,0-45.36-41.9L2831,1548.48a53.23,53.23,0,0,0-51.71,50.36l-2.94,58.91Z"/><path class="cls-3" d="M2770.8,1943.05l-7.91-.79L2780,1775.08a63.57,63.57,0,0,1,60-56.68l137.13-6.16a63.17,63.17,0,0,1,66,62.44l1.55,145.56-7.95.08-1.55-145.56a55.21,55.21,0,0,0-57.67-54.61l-137.13,6.16a55.55,55.55,0,0,0-52.47,49.52L2770.84,1943Z"/><path class="cls-3" d="M2709.35,1931.49l-7.95-.12,5-382a48.57,48.57,0,0,1,47.18-48l270.28-7.95.24,7.95-270.28,8a40.55,40.55,0,0,0-39.47,40.11l-5,382Z"/><path class="cls-3" d="M2710.07,1877.07h-5.53v-348a20,20,0,0,0-20-20h-30.88v-8h30.88a28,28,0,0,1,27.82,25.48c.08.79.12,1.63.12,2.46v164.76Z"/><path class="cls-6" d="M2206.55,483.3A92.26,92.26,0,1,1,2114.3,391,92.25,92.25,0,0,1,2206.55,483.3Z"/><path class="cls-7" d="M2106.94,359.28c2.67,1.55,6.24-.79,7.12-3.77s-.16-6.12-1.11-9.06c-1.67-4.93-3.3-9.82-5-14.75-3.54-10.45-7.28-21.27-14.91-29.21-11.52-12-29.89-15.07-46.38-12.84-21.19,2.86-42.1,14.31-52,33.31s-5.65,45.47,12.16,57.31c-25.4,29.1-34.22,61.53-32.83,100.08s43.44,74.09,70.87,101.28c6.12-3.7,11.68-21.11,8.3-27.43s1.48-13.63-2.7-19.47-7.67,3.46-3.46-2.35c2.67-3.65-7.71-12-3.77-14.23,19.12-10.57,25.48-34.42,37.48-52.66a89.68,89.68,0,0,1,65.54-39.39c14.47-1.35,29.73,1.11,41.58,9.5s19.51,23.37,16.77,37.64a33.43,33.43,0,0,0-6.95-52.35,54.58,54.58,0,0,0-11.61-51.47c-12.36-13.63-62.48-11.29-80.53-7.71l1.39-2.39h0Z"/><path class="cls-7" d="M2104.16,426.62c-23.89,2.58-41.14,23.29-55.72,42.41-8.39,11-17.21,23.17-17,37s9.58,26,14.07,39.27c7.32,21.7.2,47.5-17.21,62.36,17.21,3.26,35.82-9.61,38.76-26.9,3.46-20.08-11.77-39.47-10-59.78,1.59-17.89,15.7-31.64,27.66-45s23.26-31.12,17.73-48.21l1.67-1.15Z"/></g></g></svg>